<svg xmlns="http://www.w3.org/2000/svg" xmlns:xlink="http://www.w3.org/1999/xlink" version="1.1" x="0px" y="0px" viewBox="0 0 100 125" enable-background="new 0 0 100 100" xml:space="preserve"><g><path d="M74.564,77.214H42.097c-0.808,0-1.462,0.655-1.462,1.463c0,0.807,0.655,1.462,1.462,1.462h32.467   c0.807,0,1.462-0.655,1.462-1.462C76.026,77.869,75.371,77.214,74.564,77.214z"/><path d="M44.515,81.966H28.281c-0.808,0-1.462,0.655-1.462,1.463s0.655,1.462,1.462,1.462h16.233c0.807,0,1.462-0.654,1.462-1.462   S45.322,81.966,44.515,81.966z"/><path d="M89.46,50.39c0-0.807-0.654-1.462-1.462-1.462h-9.327c-0.186-0.594-0.733-1.027-1.389-1.027   c-0.808,0-1.462,0.655-1.462,1.462v22.864h-1.991c-0.192,0-0.501-0.002-0.587-0.422c0.002-0.062,0.01-0.123,0.01-0.188V56.149   c0-1.42-0.941-3.534-3.535-3.534h-0.429V46.86h0.968c1.316,0,2.128-0.446,2.414-1.326c0.284-0.871-0.138-1.796-1.157-2.538   L50.468,27.682c-0.344-0.25-0.705-0.44-1.081-0.577v-0.821h9.253c0.808,0,1.463-0.655,1.463-1.462V18.57   c0-0.056-0.011-0.109-0.017-0.164c0.006-0.055,0.017-0.108,0.017-0.164c0-0.808-0.655-1.462-1.463-1.462h-9.326   c-0.187-0.594-0.734-1.027-1.389-1.027c-0.808,0-1.462,0.655-1.462,1.462v9.923c-0.603,0.219-0.999,0.494-1.066,0.543   L24.352,42.997c-1.064,0.774-1.458,1.613-1.172,2.493c0.284,0.871,1.168,1.371,2.429,1.371h0.954v5.755h-0.356   c-1.421,0-3.535,0.941-3.535,3.534v15.468c0,0.021,0.002,0.042,0.002,0.062c-0.057,0.54-0.393,0.547-0.6,0.547h-9.029   c-0.808,0-1.462,0.654-1.462,1.462s0.655,1.462,1.462,1.462h9.029c0.865,0,1.542-0.237,2.066-0.604   c0.523,0.366,1.201,0.604,2.066,0.604h43.51c0.626,0,1.386-0.183,2.041-0.608c0.524,0.368,1.203,0.607,2.071,0.607h9.029   c0.807,0,1.462-0.654,1.462-1.462s-0.655-1.462-1.462-1.462h-4.114V58.433h9.254c0.808,0,1.462-0.655,1.462-1.463v-6.251   c0-0.057-0.01-0.109-0.017-0.164C89.45,50.5,89.46,50.447,89.46,50.39z M66.363,52.615h-5.035V46.86h5.035V52.615z M42.483,46.86   v5.755h-5.036V46.86H42.483z M45.407,46.86h5.036v5.755h-5.036V46.86z M53.367,46.86h5.036v5.755h-5.036V46.86z M49.387,19.704   h7.792v3.655h-7.792V19.704z M47.117,30.047c0.003-0.003,0.407-0.263,0.878-0.263c0.268,0,0.507,0.083,0.753,0.262l19.086,13.89   H28.031L47.117,30.047z M29.487,46.86h5.036v5.755h-5.036V46.86z M32.108,72.228H29.83v-4.957c0-0.624,0.507-1.132,1.131-1.132   c0.624,0,1.131,0.508,1.131,1.132v4.4C32.092,71.868,32.099,72.052,32.108,72.228z M43.082,72.228h-2.278v-4.957   c0-0.624,0.507-1.132,1.131-1.132c0.624,0,1.131,0.508,1.131,1.132v4.4C43.065,71.868,43.072,72.052,43.082,72.228z M54.055,72.228   h-2.278v-4.957c0-0.624,0.508-1.132,1.132-1.132s1.131,0.508,1.131,1.132v4.4C54.039,71.868,54.046,72.052,54.055,72.228z    M65.027,72.228h-2.276v-4.957c0-0.624,0.507-1.132,1.13-1.132s1.131,0.508,1.131,1.132v4.4   C65.012,71.868,65.019,72.052,65.027,72.228z M69.717,72.228h-1.08v-4.957c0-2.623-2.134-4.757-4.756-4.757   s-4.755,2.134-4.755,4.757v4.4c0,0.197,0.006,0.381,0.016,0.557h-1.478v-4.957c0-2.623-2.133-4.757-4.756-4.757   c-2.623,0-4.756,2.134-4.756,4.757v4.4c0,0.197,0.006,0.381,0.016,0.557H46.69v-4.957c0-2.623-2.133-4.757-4.756-4.757   s-4.756,2.134-4.756,4.757v4.4c0,0.197,0.006,0.381,0.016,0.557h-1.478v-4.957c0-2.623-2.133-4.757-4.755-4.757   c-2.623,0-4.756,2.134-4.756,4.757v4.4c0,0.197,0.006,0.381,0.016,0.557h-0.015c-0.195,0-0.546-0.007-0.601-0.534   c0.001-0.025,0.003-0.052,0.003-0.076v-6.573c0-0.043-0.009-0.083-0.013-0.125v-8.77c0-0.204,0-0.584,0.61-0.609h9.96v0.007   l13.01-0.007c0.021,0,0.042,0,0.063,0h20.477c0.219,0,0.586,0,0.61,0.609v8.592c-0.021,0.098-0.032,0.198-0.032,0.303v6.573   c0,0.076,0.004,0.155,0.01,0.235C70.262,72.03,70.13,72.211,69.717,72.228z M78.744,51.853h7.792v3.655h-7.792V51.853z"/></g><text x="0" y="115" fill="#000000" font-size="5px" font-weight="bold" font-family="'Helvetica Neue', Helvetica, Arial-Unicode, Arial, Sans-serif">Created by Ivan Colic</text><text x="0" y="120" fill="#000000" font-size="5px" font-weight="bold" font-family="'Helvetica Neue', Helvetica, Arial-Unicode, Arial, Sans-serif">from the Noun Project</text></svg>