<svg xmlns:dc="http://purl.org/dc/elements/1.1/" xmlns:cc="http://creativecommons.org/ns#" xmlns:rdf="http://www.w3.org/1999/02/22-rdf-syntax-ns#" xmlns:svg="http://www.w3.org/2000/svg" xmlns="http://www.w3.org/2000/svg" xmlns:sodipodi="http://sodipodi.sourceforge.net/DTD/sodipodi-0.dtd" xmlns:inkscape="http://www.inkscape.org/namespaces/inkscape" version="1.1" x="0px" y="0px" viewBox="0 0 100 125"><g transform="translate(0,-952.36218)"><path style="text-indent:0;text-transform:none;direction:ltr;block-progression:tb;baseline-shift:baseline;color:#000000;enable-background:accumulate;" d="m 35,6 c -2.181406,0 -4,1.81859 -4,4 l 0,6 c 0,2.18141 1.818594,4 4,4 l 1,0 0,15.59375 C 29.43067,49.735702 22.847823,63.871328 16.25,78 l -0.0625,0.15625 C 14.914641,80.44305 14,82.6835 14,85 c 0,2.5362 0.837977,4.9179 2.625,6.5625 C 18.412023,93.2071 20.951528,94 24,94 l 52,0 c 3.048472,0 5.587977,-0.7929 7.375,-2.4375 C 85.162023,89.9179 86,87.5362 86,85 86,82.6835 85.085359,80.44305 83.8125,78.15625 L 83.75,78 64,35.59375 64,20 l 1,0 c 2.181406,0 4,-1.81859 4,-4 l 0,-6 C 69,7.81859 67.181406,6 65,6 z m 0,4 30,0 0,6 -3,0 -2,0 0,2 c 0,6.15625 0,12.3125 0,18.46875 3.87273,8.334383 7.749609,16.66685 11.625,25 C 66.923661,65.820197 64.461813,67 60,67 56.658921,67 53.39551,64.84725 49.75,62.34375 46.10449,59.84015 42.069996,57 37,57 34.413972,57 31.968379,57.580423 29.65625,58.71875 33.099757,51.300039 36.560015,43.889093 40,36.46875 40,30.3125 40,24.15625 40,18 l 0,-2 -2,0 -3,0 z m 17,26.03125 c -2.737734,0 -4.96875,2.23102 -4.96875,4.96875 0,2.73773 2.231016,4.96875 4.96875,4.96875 2.737734,0 4.96875,-2.23102 4.96875,-4.96875 0,-2.73773 -2.231016,-4.96875 -4.96875,-4.96875 z m 0,3.9375 c 0.575973,0 1.03125,0.45528 1.03125,1.03125 0,0.57597 -0.455277,1.03125 -1.03125,1.03125 -0.575973,0 -1.03125,-0.45528 -1.03125,-1.03125 0,-0.57597 0.455277,-1.03125 1.03125,-1.03125 z m -9,5.0625 c -2.737734,0 -4.96875,2.23099 -4.96875,4.96875 0,2.7377 2.231016,4.96875 4.96875,4.96875 2.737734,0 4.96875,-2.23105 4.96875,-4.96875 0,-2.73776 -2.231016,-4.96875 -4.96875,-4.96875 z m 0,3.9375 c 0.575973,0 1.03125,0.45525 1.03125,1.03125 0,0.5759 -0.455277,1.03125 -1.03125,1.03125 -0.575973,0 -1.03125,-0.45535 -1.03125,-1.03125 0,-0.576 0.455277,-1.03125 1.03125,-1.03125 z m 15,4.0625 c -2.737734,0 -4.96875,2.23095 -4.96875,4.96875 0,2.7377 2.231016,4.96875 4.96875,4.96875 2.737734,0 4.96875,-2.23105 4.96875,-4.96875 0,-2.7378 -2.231016,-4.96875 -4.96875,-4.96875 z m 0,3.9375 c 0.575973,0 1.03125,0.45525 1.03125,1.03125 0,0.5759 -0.455277,1.03125 -1.03125,1.03125 -0.575973,0 -1.03125,-0.45535 -1.03125,-1.03125 0,-0.576 0.455277,-1.03125 1.03125,-1.03125 z M 37,61 c 3.517318,0 6.833697,2.1286 10.46875,4.625 C 51.103803,68.1214 55.050643,71 60,71 c 4.980375,0 8.729568,-1.672735 13.40625,-5.75 l 6.78125,14.59375 0.03125,0.0625 0.03125,0.0625 C 81.403443,82.01715 82,83.7625 82,85 82,86.7319 81.544082,87.8367 80.6875,88.625 79.830918,89.4133 78.377109,90 76,90 L 24,90 C 21.622891,90 20.169082,89.4133 19.3125,88.625 18.455918,87.8367 18,86.7319 18,85 c 0,-1.2375 0.596557,-2.98285 1.75,-5.03125 l 0.03125,-0.0625 0.03125,-0.0625 6,-12.875 C 29.458569,62.523717 32.718079,61 37,61 z" transform="translate(0,952.36218)" fill="#000000" fill-opacity="1" stroke="none" marker="none" visibility="visible" display="inline" overflow="visible"/></g><text x="0" y="115" fill="#000000" font-size="5px" font-weight="bold" font-family="'Helvetica Neue', Helvetica, Arial-Unicode, Arial, Sans-serif">Created by Rockicon</text><text x="0" y="120" fill="#000000" font-size="5px" font-weight="bold" font-family="'Helvetica Neue', Helvetica, Arial-Unicode, Arial, Sans-serif">from the Noun Project</text></svg>