<svg xmlns="http://www.w3.org/2000/svg" xmlns:xlink="http://www.w3.org/1999/xlink" version="1.1" x="0px" y="0px" viewBox="0 0 100 125" enable-background="new 0 0 100 100" xml:space="preserve"><g><path d="M63,55H37C19.4,55,5,69.4,5,87v6c0,1.1,0.9,2,2,2h86c1.1,0,2-0.9,2-2v-6C95,69.4,80.6,55,63,55z M91,91H79v-8   c0-1.1-0.9-2-2-2s-2,0.9-2,2v8H25v-8c0-1.1-0.9-2-2-2s-2,0.9-2,2v8H9v-4c0-15.4,12.6-28,28-28h26c15.4,0,28,12.6,28,28V91z M52,85   c0,1.1-0.9,2-2,2s-2-0.9-2-2s0.9-2,2-2S52,83.9,52,85z M52,75c0,1.1-0.9,2-2,2s-2-0.9-2-2s0.9-2,2-2S52,73.9,52,75z M52,65   c0,1.1-0.9,2-2,2s-2-0.9-2-2s0.9-2,2-2S52,63.9,52,65z M50,5c-10.5,0-19,8.5-19,19v8c0,10.5,8.5,19,19,19s19-8.5,19-19v-8   C69,13.5,60.5,5,50,5z M50,9c1.6,0,3.1,0.2,4.5,0.7c-1.8,4.7-8.2,8.1-15.5,8.1c-1,0-1.9,0.1-2.8,0.4C38.5,12.8,43.8,9,50,9z M65,32   c0,8.3-6.7,15-15,15s-15-6.7-15-15v-8c0-1.1,1.7-2.2,4-2.2c8.9,0,16.5-4.3,19.1-10.4C62.2,14.1,65,18.7,65,24V32z"/></g><text x="0" y="115" fill="#000000" font-size="5px" font-weight="bold" font-family="'Helvetica Neue', Helvetica, Arial-Unicode, Arial, Sans-serif">Created by Joel Avery</text><text x="0" y="120" fill="#000000" font-size="5px" font-weight="bold" font-family="'Helvetica Neue', Helvetica, Arial-Unicode, Arial, Sans-serif">from the Noun Project</text></svg>