<svg xmlns="http://www.w3.org/2000/svg" xmlns:xlink="http://www.w3.org/1999/xlink" version="1.1" x="0px" y="0px" viewBox="0 0 32 40" enable-background="new 0 0 32 32" xml:space="preserve"><g display="none"><rect x="-104.596" y="-143.699" display="inline" fill="#000000" width="240.181" height="241.399"/></g><g display="none"><g display="inline"><path d="M16,0C7.163,0,0,7.163,0,16s7.163,16,16,16c8.837,0,16-7.163,16-16S24.837,0,16,0z M16,31C7.729,31,1,24.271,1,16    C1,7.729,7.729,1,16,1c8.271,0,15,6.729,15,15C31,24.271,24.271,31,16,31z"/><path d="M5.576,10.223v11.554L16,27.554l10.424-5.777V10.223L16,4.446L5.576,10.223z M25.424,21.188L16,26.411l-9.424-5.223    V10.812L16,5.589l9.424,5.223V21.188z"/><path d="M15.515,10.614l-4.07,2.256l-0.515,0.286v0.589v4.511v0.589l0.515,0.286l4.07,2.256L16,21.654l0.485-0.269l4.07-2.256    l0.515-0.286v-0.589v-4.511v-0.589l-0.515-0.286l-4.07-2.256L16,10.345L15.515,10.614z M20.07,13.744v4.511L16,20.511l-4.07-2.256    v-4.511L16,11.489L20.07,13.744z"/></g></g><g display="none"><g display="inline"><path d="M6.576,10.812v10.376L16,26.411l9.424-5.223V10.812L16,5.589L6.576,10.812z M20.555,12.87l0.515,0.286v0.589v4.511v0.589    l-0.515,0.286l-4.07,2.256L16,21.654l-0.485-0.269l-4.07-2.256l-0.515-0.286v-0.589v-4.511v-0.589l0.515-0.286l4.07-2.256    L16,10.345l0.485,0.269L20.555,12.87z"/><polygon points="11.93,13.744 11.93,18.256 16,20.511 20.07,18.256 20.07,13.744 16,11.489   "/><path d="M16,0C7.163,0,0,7.163,0,16s7.163,16,16,16s16-7.163,16-16S24.837,0,16,0z M26.424,21.777L16,27.554L5.576,21.777V10.223    L16,4.446l10.424,5.777V21.777z"/></g></g><g><g><path d="M16,0C7.163,0,0,7.163,0,16s7.163,16,16,16c8.837,0,16-7.163,16-16S24.837,0,16,0z M16,30C8.28,30,2,23.72,2,16    C2,8.28,8.28,2,16,2c7.72,0,14,6.28,14,14C30,23.72,23.72,30,16,30z"/><path d="M5.576,10.223v11.554L16,27.554l10.424-5.777V10.223L16,4.446L5.576,10.223z M24.424,20.599L16,25.268l-8.424-4.669    v-9.198L16,6.732l8.424,4.669V20.599z"/><path d="M15.03,9.739l-4.07,2.256L9.93,12.566v1.178v4.511v1.178l1.031,0.571l4.07,2.256L16,22.798l0.969-0.537l4.07-2.256    l1.031-0.571v-1.178v-4.511v-1.178l-1.031-0.571l-4.07-2.256L16,9.202L15.03,9.739z M20.07,13.744v4.511L16,20.511l-4.07-2.256    v-4.511L16,11.489L20.07,13.744z"/></g></g><g display="none"><g display="inline"><path d="M16,0.5c8.547,0,15.5,6.953,15.5,15.5S24.547,31.5,16,31.5S0.5,24.547,0.5,16S7.453,0.5,16,0.5 M16,0    C7.163,0,0,7.163,0,16s7.163,16,16,16s16-7.163,16-16S24.837,0,16,0L16,0z"/></g><g display="inline"><path d="M16,5.017l9.924,5.5v10.965L16,26.983l-9.924-5.5V10.517L16,5.017 M16,21.083l0.242-0.134l4.07-2.256l0.258-0.143v-0.295    v-4.511V13.45l-0.258-0.143l-4.07-2.256L16,10.917l-0.242,0.134l-4.07,2.256L11.43,13.45v0.295v4.511v0.295l0.258,0.143    l4.07,2.256L16,21.083 M16,4.446L5.576,10.223v11.554L16,27.554l10.424-5.777V10.223L16,4.446L16,4.446z M16,20.511l-4.07-2.256    v-4.511L16,11.489l4.07,2.256v4.511L16,20.511L16,20.511z"/></g></g><text x="0" y="47" fill="#000000" font-size="5px" font-weight="bold" font-family="'Helvetica Neue', Helvetica, Arial-Unicode, Arial, Sans-serif">Created by Alfredo Hernandez</text><text x="0" y="52" fill="#000000" font-size="5px" font-weight="bold" font-family="'Helvetica Neue', Helvetica, Arial-Unicode, Arial, Sans-serif">from the Noun Project</text></svg>