<svg xmlns="http://www.w3.org/2000/svg" xmlns:xlink="http://www.w3.org/1999/xlink" version="1.1" x="0px" y="0px" viewBox="0 0 48 60" enable-background="new 0 0 48 48" xml:space="preserve"><g><path fill="#000000" d="M41.5,48H6.4c-0.6,0-1-0.4-1-1V23.5c0-0.6,0.4-1,1-1h35.1c0.6,0,1,0.4,1,1V47C42.5,47.6,42.1,48,41.5,48z    M7.4,46h33.1V24.5H7.4V46z"/><path fill="#000000" d="M47,24.5H1c-0.4,0-0.8-0.2-0.9-0.6c-0.2-0.4-0.1-0.8,0.2-1.1l23-22.5c0.4-0.4,1-0.4,1.4,0l23,22.5   c0.3,0.3,0.4,0.7,0.2,1.1C47.8,24.3,47.4,24.5,47,24.5z M3.5,22.5h41.1L24,2.4L3.5,22.5z"/><path fill="#000000" d="M29.9,48c-0.6,0-1-0.4-1-1V37c0-2.7-2.2-5-4.9-5c-2.7,0-4.9,2.2-4.9,5v10c0,0.6-0.4,1-1,1s-1-0.4-1-1V37   c0-3.9,3.1-7,6.9-7s6.9,3.1,6.9,7v10C30.9,47.6,30.5,48,29.9,48z"/></g><text x="0" y="63" fill="#000000" font-size="5px" font-weight="bold" font-family="'Helvetica Neue', Helvetica, Arial-Unicode, Arial, Sans-serif">Created by Creative Stall</text><text x="0" y="68" fill="#000000" font-size="5px" font-weight="bold" font-family="'Helvetica Neue', Helvetica, Arial-Unicode, Arial, Sans-serif">from the Noun Project</text></svg>