<?xml version="1.0" standalone="no"?>
<!DOCTYPE svg PUBLIC "-//W3C//DTD SVG 20010904//EN"
 "http://www.w3.org/TR/2001/REC-SVG-20010904/DTD/svg10.dtd">
<svg version="1.0" xmlns="http://www.w3.org/2000/svg"
 width="700.000000pt" height="700.000000pt" viewBox="0 0 700.000000 700.000000"
 preserveAspectRatio="xMidYMid meet">
<metadata>
Created by potrace 1.11, written by Peter Selinger 2001-2013
</metadata>
<g transform="translate(0.000000,700.000000) scale(0.100000,-0.100000)"
fill="#000000" stroke="none">
<path d="M3385 6892 c-22 -9 -74 -36 -115 -60 -98 -58 -406 -240 -445 -262
-16 -9 -129 -75 -250 -147 -121 -71 -274 -161 -340 -200 -66 -38 -185 -108
-265 -155 -80 -47 -161 -95 -180 -106 -19 -11 -109 -63 -200 -117 -91 -54
-178 -105 -195 -115 -40 -23 -243 -142 -329 -193 -38 -23 -81 -48 -96 -57
-185 -104 -360 -212 -390 -242 -77 -74 -75 -57 -77 -488 l-1 -385 246 2 c136
0 249 2 253 2 3 1 4 124 2 275 l-2 274 287 168 c158 93 296 174 307 180 11 6
56 32 100 59 44 26 94 55 110 65 17 9 273 160 570 335 297 175 554 325 570
335 17 9 117 69 223 131 255 150 285 168 299 175 7 3 70 -27 140 -67 70 -39
153 -86 183 -102 30 -16 62 -36 71 -43 8 -8 18 -14 21 -14 4 0 50 -25 103 -55
54 -30 99 -55 100 -55 2 0 32 -17 66 -38 35 -21 89 -52 119 -69 30 -16 217
-122 415 -235 198 -113 385 -219 415 -235 30 -17 84 -48 120 -68 36 -21 81
-46 100 -57 19 -11 175 -99 345 -196 l310 -177 3 -147 c1 -82 3 -214 5 -295
l2 -147 248 -1 c213 0 247 2 248 15 1 39 -3 588 -5 683 -2 64 -8 113 -15 120
-6 6 -11 18 -11 27 0 32 -80 98 -201 167 -68 39 -308 175 -534 303 -225 128
-459 260 -520 295 -60 35 -126 72 -145 82 -19 11 -136 77 -260 148 -124 70
-245 139 -270 153 -25 14 -90 51 -145 82 -55 31 -120 68 -145 82 -25 14 -88
50 -140 80 -280 161 -489 278 -524 292 -49 20 -129 20 -181 -2z"/>
<path d="M2433 5189 c-144 -36 -254 -99 -314 -182 -40 -55 -50 -78 -64 -157
-21 -121 16 -238 103 -328 83 -85 164 -130 387 -212 165 -61 184 -71 229 -111
80 -69 63 -195 -32 -241 -81 -39 -250 -20 -311 36 -32 29 -61 93 -61 139 0 42
18 39 -185 39 -63 0 -131 -1 -150 -1 l-35 -1 5 -52 c21 -209 171 -365 414
-430 107 -29 314 -28 424 1 167 44 283 137 326 261 30 89 20 242 -21 321 -73
138 -170 204 -462 313 -172 64 -230 96 -257 139 -64 106 27 209 184 210 117 0
183 -45 207 -141 l11 -48 177 0 177 1 2 25 c2 36 -23 133 -48 182 -33 65 -137
162 -211 196 -137 63 -337 80 -495 41z"/>
<path d="M3687 5158 c-9 -5 -12 -131 -11 -505 0 -274 4 -520 8 -548 31 -217
166 -364 385 -420 68 -17 255 -25 326 -13 127 21 261 90 329 169 45 53 91 150
106 224 14 65 21 1067 8 1088 -9 14 -337 16 -346 2 -3 -5 -7 -239 -8 -520 -1
-280 -5 -523 -8 -540 -24 -102 -95 -153 -216 -154 -79 -1 -137 23 -172 70 -51
68 -54 94 -53 642 0 279 -2 507 -5 508 -24 5 -334 2 -343 -3z"/>
<path d="M2578 3285 c-2 -2 -28 -5 -58 -8 -136 -13 -291 -79 -360 -154 -62
-66 -70 -79 -90 -136 -48 -137 -14 -288 88 -391 87 -88 155 -125 408 -221 161
-61 201 -84 234 -132 31 -45 32 -122 4 -160 -40 -54 -79 -68 -184 -68 -75 1
-105 5 -142 22 -59 27 -98 83 -107 155 l-6 53 -180 0 -180 0 -1 -35 c-1 -97
55 -221 136 -300 149 -146 404 -204 680 -155 137 24 276 118 329 223 56 113
50 277 -16 391 -68 118 -179 189 -436 283 -227 82 -287 126 -287 211 0 45 35
95 85 121 58 30 173 29 236 -2 47 -23 84 -73 91 -124 2 -15 7 -30 11 -34 4 -4
86 -8 183 -8 l176 -1 -6 50 c-28 216 -191 371 -431 411 -34 5 -173 12 -177 9z"/>
<path d="M4210 3283 c-145 -19 -269 -70 -357 -148 -70 -62 -138 -167 -173
-267 -40 -117 -42 -131 -46 -338 -3 -141 0 -203 12 -259 54 -257 198 -432 411
-500 251 -80 641 -11 801 142 l32 31 0 308 c0 286 -1 308 -17 309 -10 0 -148
1 -308 1 l-290 1 -1 -114 c0 -63 1 -119 3 -125 3 -8 39 -11 106 -11 56 0 112
-1 125 -2 22 -1 23 -2 20 -118 l-3 -118 -43 -23 c-48 -27 -162 -42 -229 -30
-112 19 -190 92 -227 215 -37 120 -39 396 -5 528 40 152 135 238 263 238 140
0 214 -56 246 -185 l12 -48 175 0 175 0 -7 38 c-4 20 -9 48 -11 62 -34 194
-199 358 -399 394 -87 16 -217 25 -265 19z"/>
<path d="M529 2632 c-12 -2 -14 -37 -12 -210 5 -481 10 -586 26 -622 20 -45
76 -103 130 -134 23 -13 206 -117 407 -231 428 -244 367 -209 705 -400 149
-84 286 -162 305 -174 19 -11 42 -24 50 -28 8 -4 69 -38 135 -76 66 -38 149
-85 185 -105 36 -19 77 -43 92 -54 14 -10 30 -18 35 -18 4 0 24 -11 43 -23 19
-13 64 -40 100 -59 36 -20 146 -82 245 -138 467 -266 459 -262 529 -267 46 -4
76 -1 103 10 22 8 154 83 294 165 140 82 283 166 319 187 582 341 804 472 845
497 28 17 65 39 83 49 17 11 47 27 65 38 17 10 84 49 147 86 63 37 187 110
275 162 88 52 167 98 175 103 33 20 275 162 314 184 118 67 254 151 287 177
21 16 49 53 63 81 l26 52 -1 373 c-2 371 -2 373 -23 374 -26 1 -469 1 -476 0
-4 -1 -5 -124 -4 -275 l3 -275 -157 -92 c-86 -51 -182 -106 -212 -124 -30 -18
-95 -56 -145 -85 -49 -29 -103 -60 -120 -70 -16 -10 -208 -122 -425 -250 -217
-127 -411 -241 -430 -252 -19 -12 -147 -87 -285 -168 -137 -81 -344 -202 -460
-270 -115 -68 -217 -128 -226 -133 -13 -8 -52 10 -180 83 -90 51 -184 104
-209 118 -25 13 -142 80 -260 147 -118 67 -357 202 -530 300 -173 98 -358 203
-410 233 -52 30 -113 64 -135 76 -22 12 -76 43 -120 68 -44 26 -103 59 -131
75 -28 15 -162 91 -297 168 l-246 140 -1 289 c0 160 -3 292 -5 295 -5 5 -461
8 -486 3z"/>
</g>
</svg>
