<?xml version="1.0" encoding="utf-8"?>
<!-- Generator: Adobe Illustrator 16.0.0, SVG Export Plug-In . SVG Version: 6.00 Build 0)  -->
<!DOCTYPE svg PUBLIC "-//W3C//DTD SVG 1.1//EN" "http://www.w3.org/Graphics/SVG/1.1/DTD/svg11.dtd">
<svg version="1.1" id="Layer_1" xmlns="http://www.w3.org/2000/svg" xmlns:xlink="http://www.w3.org/1999/xlink" x="0px" y="0px"
	 width="64px" height="59px" viewBox="0 0 64 59" enable-background="new 0 0 64 59" xml:space="preserve">
<g>
	<path fill="#ED6306" d="M57.979,30.528l0.885-4.648c0.054-0.281-0.021-0.573-0.204-0.795c-0.184-0.221-0.455-0.349-0.742-0.349
		h-2.89V21.67c1.118-0.399,1.927-1.458,1.927-2.712V17.03c0-0.531-0.431-0.962-0.964-0.962h-3.853c-0.533,0-0.963,0.431-0.963,0.962
		v1.928c0,1.254,0.808,2.312,1.926,2.712v3.066h-2.889c-0.287,0-0.559,0.128-0.743,0.349c-0.182,0.221-0.259,0.513-0.204,0.795
		l0.883,4.636H39.617V28.59h4.816c1.593,0,2.89-1.297,2.89-2.89v-9.632c0-1.594-1.297-2.891-2.89-2.891H27.095
		c-1.593,0-2.89,1.297-2.89,2.891V25.7c0,1.593,1.296,2.89,2.89,2.89h4.816v1.926h-7.706v-0.962c0-1.062-0.864-1.928-1.927-1.928
		H19.39c-1.062,0-1.927,0.865-1.927,1.928v0.962h-1.061c-0.407-1.992-2.052-3.52-4.092-3.788l-3.104-6.207
		c0.897-0.492,1.513-1.434,1.513-2.526c0-0.74-0.288-1.409-0.747-1.921l1.8-0.899c-0.055,0.29-0.09,0.588-0.09,0.895
		c0,0.531,0.431,0.962,0.963,0.962h7.706c0.533,0,0.963-0.431,0.963-0.962c0-1.581-0.776-2.975-1.956-3.854h0.03v-0.963
		c0-1.594-1.297-2.89-2.89-2.89s-2.89,1.296-2.89,2.89v0.849l-6.064,3.033c-1.458,0.145-2.604,1.364-2.604,2.86
		c0,1.375,0.968,2.524,2.257,2.814l3.048,6.097c-1.652,0.523-2.931,1.891-3.281,3.61H5.904c-0.532,0-0.963,0.433-0.963,0.964v3.853
		c0,0.531,0.431,0.964,0.963,0.964h1.927V55.56c0,0.532,0.431,0.964,0.963,0.964h4.816c0.533,0,0.963-0.432,0.963-0.964V36.296
		H49.25V55.56c0,0.532,0.431,0.964,0.963,0.964h4.816c0.533,0,0.963-0.432,0.963-0.964V36.296h1.927
		c0.533,0,0.963-0.433,0.963-0.964v-3.853C58.882,30.969,58.482,30.562,57.979,30.528z M53.102,17.994h1.927v0.964
		c0,0.529-0.432,0.962-0.963,0.962c-0.532,0-0.964-0.433-0.964-0.962V17.994z M51.376,26.664h5.378l-0.734,3.852H52.11
		L51.376,26.664z M27.095,15.104h17.338c0.532,0,0.964,0.433,0.964,0.964v6.742H26.132v-6.742
		C26.132,15.537,26.563,15.104,27.095,15.104z M26.132,25.7v-0.964h19.265V25.7c0,0.53-0.432,0.964-0.964,0.964h-5.779h-5.779
		h-5.779C26.563,26.664,26.132,26.23,26.132,25.7z M33.837,28.59h3.854v1.926h-3.854V28.59z M19.39,29.554h2.889v0.962H19.39V29.554
		z M13.774,15.104c0.398-1.121,1.469-1.927,2.725-1.927s2.327,0.806,2.725,1.927H13.774z M16.5,10.288
		c0.532,0,0.963,0.434,0.963,0.964v0.098c-0.311-0.064-0.634-0.098-0.963-0.098s-0.652,0.033-0.963,0.098v-0.098
		C15.537,10.722,15.968,10.288,16.5,10.288z M7.831,17.03c0.532,0,0.963,0.434,0.963,0.964c0,0.531-0.432,0.964-0.963,0.964
		c-0.531,0-0.963-0.433-0.963-0.964C6.868,17.464,7.299,17.03,7.831,17.03z M11.684,28.59c1.256,0,2.327,0.806,2.725,1.926h-5.45
		C9.356,29.396,10.427,28.59,11.684,28.59z M12.647,54.597h-2.89V36.296h2.89V54.597z M54.066,54.597h-2.89V36.296h2.89V54.597z
		 M56.956,34.369h-1.927h-4.816H13.61H8.794H6.868v-1.927h0.963h7.706h2.89h4.816h9.632h5.779h12.66h5.505h0.137V34.369z"/>
	<path fill="#ED6306" d="M38.654,41.111c0-1.593-1.296-2.89-2.89-2.89h-7.706c-1.593,0-2.89,1.297-2.89,2.89
		c0,1.594,1.297,2.891,2.89,2.891h0.623l-3.47,11.275c-0.028,0.091-0.042,0.187-0.042,0.282v0.964h1.927v-0.818l3.602-11.703h0.251
		v12.521h1.926V44.002h0.251l3.602,11.703v0.818h1.926V55.56c0-0.096-0.014-0.191-0.042-0.282l-3.47-11.275h0.622
		C37.357,44.002,38.654,42.705,38.654,41.111z M27.095,41.111c0-0.53,0.432-0.963,0.963-0.963h7.706
		c0.532,0,0.963,0.433,0.963,0.963c0,0.531-0.432,0.964-0.963,0.964h-7.706C27.527,42.075,27.095,41.643,27.095,41.111z"/>
	<path fill="#ED6306" d="M57.918,2.583h-9.632c-0.533,0-0.963,0.432-0.963,0.963v7.706c0,0.531,0.43,0.963,0.963,0.963h9.632
		c0.533,0,0.963-0.432,0.963-0.963V3.546C58.882,3.015,58.451,2.583,57.918,2.583z M56.956,4.509v2.89l-2.312-1.733
		c-0.383-0.288-0.919-0.251-1.258,0.089L51.95,7.189l-1.306-0.653c-0.372-0.184-0.818-0.113-1.111,0.182L49.25,7V4.509H56.956z
		 M49.25,10.288V9.724l1.153-1.153l1.305,0.654c0.37,0.183,0.817,0.111,1.112-0.182l1.336-1.336l2.8,2.1v0.481H49.25z"/>
	
		<rect x="30.15" y="17.994" transform="matrix(-0.707 0.7072 -0.7072 -0.707 69.5237 9.1112)" fill="#ED6306" width="5.449" height="1.926"/>
	
		<rect x="35.929" y="17.994" transform="matrix(-0.7071 0.7072 -0.7072 -0.7071 79.3899 5.0267)" fill="#ED6306" width="5.449" height="1.926"/>
</g>
</svg>
