<?xml version="1.0" encoding="utf-8"?>
<!-- Generator: Adobe Illustrator 16.0.0, SVG Export Plug-In . SVG Version: 6.00 Build 0)  -->
<!DOCTYPE svg PUBLIC "-//W3C//DTD SVG 1.1//EN" "http://www.w3.org/Graphics/SVG/1.1/DTD/svg11.dtd">
<svg version="1.1" id="Layer_1" xmlns="http://www.w3.org/2000/svg" xmlns:xlink="http://www.w3.org/1999/xlink" x="0px" y="0px"
	 width="31.256px" height="31.257px" viewBox="0 0 31.256 31.257" enable-background="new 0 0 31.256 31.257" xml:space="preserve">
<g>
	<g>
		<path fill="#ED6306" d="M15.628,19.621c-0.331,0-0.661-0.082-0.96-0.244L3.977,13.525c-0.641-0.352-1.04-1.023-1.04-1.754
			s0.398-1.404,1.04-1.756l10.69-5.852c0.599-0.326,1.322-0.326,1.921,0l10.691,5.852c0.641,0.352,1.039,1.025,1.039,1.756
			s-0.398,1.402-1.04,1.754l-10.69,5.852C16.29,19.539,15.958,19.621,15.628,19.621z M9.103,11.771l6.525,3.57l6.524-3.57
			l-6.524-3.572L9.103,11.771z"/>
	</g>
	<g>
		<path fill="#ED6306" d="M15.628,27.336c-1.104,0-2-0.895-2-2v-7.715c0-1.104,0.896-2,2-2s2,0.896,2,2v7.715
			C17.628,26.441,16.733,27.336,15.628,27.336z"/>
	</g>
	<g>
		<path fill="#ED6306" d="M26.319,21.484c-1.104,0-2-0.895-2-2v-7.713c0-1.105,0.896-2,2-2s2,0.895,2,2v7.713
			C28.319,20.59,27.423,21.484,26.319,21.484z"/>
	</g>
	<g>
		<path fill="#ED6306" d="M4.937,21.484c-1.104,0-2-0.895-2-2v-7.713c0-1.105,0.896-2,2-2s2,0.895,2,2v7.713
			C6.937,20.59,6.042,21.484,4.937,21.484z"/>
	</g>
</g>
</svg>
