<?xml version="1.0" encoding="utf-8"?>
<!-- Generator: Adobe Illustrator 16.0.0, SVG Export Plug-In . SVG Version: 6.00 Build 0)  -->
<!DOCTYPE svg PUBLIC "-//W3C//DTD SVG 1.1//EN" "http://www.w3.org/Graphics/SVG/1.1/DTD/svg11.dtd">
<svg version="1.1" id="Layer_1" xmlns="http://www.w3.org/2000/svg" xmlns:xlink="http://www.w3.org/1999/xlink" x="0px" y="0px"
	 width="107px" height="102.25px" viewBox="0 0 107 102.25" enable-background="new 0 0 107 102.25" xml:space="preserve">
<rect y="-0.437" fill="#1BEDD4" width="107" height="102.687"/>
<g>
	<g>
		<path fill="#FFFFFF" d="M20.429,32.795v36.658L53.5,87.781l33.071-18.328V32.795L53.5,14.469L20.429,32.795z M80.226,65.715
			L53.5,80.527L26.774,65.715V36.533L53.5,21.721l26.726,14.812V65.715z"/>
		<path fill="#FFFFFF" d="M50.423,31.26L37.51,38.418l-3.268,1.812v3.736v14.311v3.738l3.271,1.811l12.913,7.158l3.074,1.707
			l3.074-1.703l12.913-7.158l3.271-1.811v-3.738V43.969v-3.736l-3.271-1.811l-12.913-7.158L53.5,29.557L50.423,31.26z
			 M66.413,43.967v14.311L53.5,65.436l-12.912-7.158V43.967L53.5,36.812L66.413,43.967z"/>
	</g>
</g>
</svg>
