<?xml version="1.0" encoding="utf-8"?>
<!-- Generator: Adobe Illustrator 16.0.0, SVG Export Plug-In . SVG Version: 6.00 Build 0)  -->
<!DOCTYPE svg PUBLIC "-//W3C//DTD SVG 1.1//EN" "http://www.w3.org/Graphics/SVG/1.1/DTD/svg11.dtd">
<svg version="1.1" id="Layer_1" xmlns="http://www.w3.org/2000/svg" xmlns:xlink="http://www.w3.org/1999/xlink" x="0px" y="0px"
	 width="107px" height="102.25px" viewBox="0 0 107 102.25" enable-background="new 0 0 107 102.25" xml:space="preserve">
<rect y="-0.437" fill="#1BEDD4" width="107" height="102.687"/>
<g>
	<path fill="#FFFFFF" d="M63.14,53.409H43.339c-13.404,0-24.371,10.966-24.371,24.37v4.569c0,0.838,0.685,1.523,1.523,1.523h65.496
		c0.837,0,1.523-0.686,1.523-1.523v-4.569C87.51,64.375,76.544,53.409,63.14,53.409z M84.464,80.825h-9.139v-6.093
		c0-0.837-0.685-1.522-1.523-1.522s-1.523,0.686-1.523,1.522v6.093H34.2v-6.093c0-0.837-0.685-1.522-1.523-1.522
		s-1.523,0.686-1.523,1.522v6.093h-9.139v-3.046c0-11.729,9.596-21.324,21.324-21.324H63.14c11.729,0,21.324,9.596,21.324,21.324
		V80.825z M54.763,76.256c0,0.838-0.686,1.523-1.523,1.523c-0.838,0-1.523-0.686-1.523-1.523s0.686-1.523,1.523-1.523
		C54.077,74.732,54.763,75.418,54.763,76.256z M54.763,68.641c0,0.837-0.686,1.522-1.523,1.522c-0.838,0-1.523-0.686-1.523-1.522
		c0-0.838,0.686-1.523,1.523-1.523C54.077,67.117,54.763,67.803,54.763,68.641z M54.763,61.024c0,0.838-0.686,1.523-1.523,1.523
		c-0.838,0-1.523-0.686-1.523-1.523s0.686-1.523,1.523-1.523C54.077,59.501,54.763,60.187,54.763,61.024z M53.24,15.33
		c-7.997,0-14.47,6.474-14.47,14.47v6.093c0,7.996,6.473,14.47,14.47,14.47c7.996,0,14.47-6.474,14.47-14.47V29.8
		C67.709,21.804,61.236,15.33,53.24,15.33z M53.24,18.377c1.219,0,2.361,0.151,3.427,0.532c-1.371,3.58-6.245,6.169-11.804,6.169
		c-0.762,0-1.447,0.076-2.132,0.305C44.481,21.271,48.518,18.377,53.24,18.377z M64.663,35.893c0,6.321-5.103,11.424-11.423,11.424
		c-6.321,0-11.424-5.103-11.424-11.424V29.8c0-0.838,1.295-1.675,3.046-1.675c6.778,0,12.566-3.275,14.546-7.921
		c3.123,2.056,5.255,5.56,5.255,9.596V35.893z"/>
</g>
</svg>
