<?xml version="1.0" encoding="utf-8"?>
<!-- Generator: Adobe Illustrator 16.0.0, SVG Export Plug-In . SVG Version: 6.00 Build 0)  -->
<!DOCTYPE svg PUBLIC "-//W3C//DTD SVG 1.1//EN" "http://www.w3.org/Graphics/SVG/1.1/DTD/svg11.dtd">
<svg version="1.1" id="Layer_1" xmlns="http://www.w3.org/2000/svg" xmlns:xlink="http://www.w3.org/1999/xlink" x="0px" y="0px"
	 width="31.256px" height="31.257px" viewBox="0 0 31.256 31.257" enable-background="new 0 0 31.256 31.257" xml:space="preserve">
<path fill="#888888" d="M27.482,12.018l-9.12-7.482c-0.737-0.604-1.637-0.906-2.537-0.906c-0.873,0-1.747,0.285-2.473,0.855
	l-9.513,7.482c-1.34,1.055-1.865,2.842-1.307,4.453c0.488,1.41,1.714,2.416,3.157,2.643v4.566c0,2.209,1.791,4,4,4h11.879
	c2.209,0,4-1.791,4-4v-4.566c1.429-0.225,2.645-1.213,3.143-2.604C29.28,14.867,28.788,13.09,27.482,12.018z M9.689,23.629v-4.562
	h11.879v4.562H9.689z M23.331,15.111v-0.045H6.369l9.456-7.438l9.12,7.482H23.331z"/>
</svg>
