<?xml version="1.0" encoding="utf-8"?>
<!-- Generator: Adobe Illustrator 16.0.0, SVG Export Plug-In . SVG Version: 6.00 Build 0)  -->
<!DOCTYPE svg PUBLIC "-//W3C//DTD SVG 1.1//EN" "http://www.w3.org/Graphics/SVG/1.1/DTD/svg11.dtd">
<svg version="1.1" id="Layer_1" xmlns="http://www.w3.org/2000/svg" xmlns:xlink="http://www.w3.org/1999/xlink" x="0px" y="0px"
	 width="1496px" height="1566px" viewBox="0 0 1496 1566" enable-background="new 0 0 1496 1566" xml:space="preserve">
<rect x="203.15" y="578.21" fill="#F1F1F2" width="268.487" height="276.457"/>
<path fill="none" stroke="#D0D2D3" stroke-width="7" stroke-miterlimit="10" d="M202.095,638.455c0,0,35.35-5.768,54.573,16.118
	c19.223,21.889,21.143,48.066,62.469,56.117c41.323,8.051,151.257,63.443,151.257,63.443"/>
<path fill="none" stroke="#D0D2D3" stroke-width="7" stroke-miterlimit="10" d="M342.604,717.455c0,0-79.207,81.892-75.362,137.212"
	/>
<path fill="none" stroke="#D0D2D3" stroke-width="7" stroke-miterlimit="10" d="M308.179,758.818c0,0,26.333,11.911,37.868,27.239
	c11.53,15.331,3.841,68.609,3.841,68.609"/>
<path fill="none" stroke="#D0D2D3" stroke-width="7" stroke-miterlimit="10" d="M273.763,679.477c0,0,55.793-29.678,68.841-56.71
	c13.052-27.033,4.4-44.124,4.4-44.124"/>
<line fill="none" stroke="#D0D2D3" stroke-width="7" stroke-miterlimit="10" x1="294.13" y1="779.25" x2="202.095" y2="774.134"/>
<line fill="none" stroke="#D0D2D3" stroke-width="7" stroke-miterlimit="10" x1="371.593" y1="727.993" x2="470.589" y2="617.118"/>
<g>
	<path fill="#A6A8AB" d="M295.509,781.037c0,4.925-8.929,18.85-8.929,18.85s-8.933-13.925-8.933-18.85
		c0-4.934,3.999-8.934,8.933-8.934C291.509,772.104,295.509,776.104,295.509,781.037z"/>
	<path fill="#FFFFFF" d="M291.601,780.974c0,2.772-2.248,5.021-5.021,5.021c-2.776,0-5.024-2.248-5.024-5.021
		s2.248-5.024,5.024-5.024C289.353,775.949,291.601,778.201,291.601,780.974z"/>
</g>
<g>
	<path fill="#A6A8AB" d="M322.715,762.115c0,4.933-8.929,18.858-8.929,18.858s-8.931-13.926-8.931-18.858
		c0-4.93,3.998-8.929,8.931-8.929C318.721,753.187,322.715,757.186,322.715,762.115z"/>
	<path fill="#FFFFFF" d="M318.809,762.055c0,2.776-2.245,5.024-5.022,5.024c-2.772,0-5.023-2.248-5.023-5.024
		c0-2.772,2.251-5.023,5.023-5.023C316.563,757.031,318.809,759.282,318.809,762.055z"/>
</g>
<g>
	<path fill="#A6A8AB" d="M308.179,736.926c0,4.925-8.932,18.85-8.932,18.85s-8.929-13.925-8.929-18.85
		c0-4.933,3.995-8.933,8.929-8.933C304.18,727.993,308.179,731.993,308.179,736.926z"/>
	<circle fill="#FFFFFF" cx="299.248" cy="736.861" r="5.023"/>
</g>
<g>
	<path fill="#A6A8AB" d="M331.648,774.288c0,4.93-8.934,18.854-8.934,18.854s-8.929-13.925-8.929-18.854
		c0-4.933,3.996-8.933,8.929-8.933C327.649,765.355,331.648,769.355,331.648,774.288z"/>
	<path fill="#FFFFFF" d="M327.74,774.229c0,2.772-2.248,5.021-5.025,5.021c-2.772,0-5.019-2.248-5.019-5.021
		c0-2.776,2.246-5.024,5.019-5.024C325.492,769.205,327.74,771.453,327.74,774.229z"/>
</g>
<g>
	<path fill="#A6A8AB" d="M380.141,691.837c0,4.929-8.933,18.854-8.933,18.854s-8.929-13.925-8.929-18.854
		c0-4.934,3.996-8.929,8.929-8.929S380.141,686.903,380.141,691.837z"/>
	<path fill="#FFFFFF" d="M376.233,691.773c0,2.776-2.249,5.024-5.025,5.024c-2.771,0-5.021-2.248-5.021-5.024
		c0-2.772,2.249-5.021,5.021-5.021C373.984,686.753,376.233,689.001,376.233,691.773z"/>
</g>
<g>
	<path fill="#A6A8AB" d="M394.094,600.54c0,4.933-8.932,18.857-8.932,18.857s-8.929-13.925-8.929-18.857
		c0-4.934,3.995-8.93,8.929-8.93C390.095,591.61,394.094,595.606,394.094,600.54z"/>
	<path fill="#FFFFFF" d="M390.187,600.477c0,2.78-2.249,5.028-5.024,5.028c-2.772,0-5.021-2.248-5.021-5.028
		c0-2.772,2.249-5.021,5.021-5.021C387.938,595.456,390.187,597.704,390.187,600.477z"/>
</g>
<g>
	<path fill="#A6A8AB" d="M405.125,736.926c0,4.925-8.929,18.85-8.929,18.85s-8.934-13.925-8.934-18.85c0-4.933,4-8.933,8.934-8.933
		C401.125,727.993,405.125,731.993,405.125,736.926z"/>
	<path fill="#FFFFFF" d="M401.215,736.861c0,2.773-2.246,5.021-5.019,5.021c-2.777,0-5.024-2.248-5.024-5.021
		c0-2.772,2.247-5.023,5.024-5.023C398.969,731.838,401.215,734.089,401.215,736.861z"/>
</g>
<g>
	<path fill="#A6A8AB" d="M295.509,641.347c0,4.925-8.929,18.85-8.929,18.85s-8.933-13.925-8.933-18.85
		c0-4.933,3.999-8.933,8.933-8.933C291.509,632.414,295.509,636.414,295.509,641.347z"/>
	<circle fill="#FFFFFF" cx="286.578" cy="641.283" r="5.022"/>
</g>
<path fill="none" stroke="#A6A8AB" stroke-miterlimit="10" d="M209.241,533.965c-2.329,0-4.225-1.893-4.225-4.225V65.32
	c0-2.336,1.896-4.225,4.225-4.225h260.774c2.33,0,4.223,1.889,4.223,4.225v464.42c0,2.332-1.893,4.225-4.223,4.225H209.241z"/>
<line fill="none" stroke="#A6A8AB" stroke-miterlimit="10" x1="205.973" y1="492.559" x2="473.28" y2="492.559"/>
<g>
	<polygon fill="none" stroke="#E6E7E8" stroke-width="5" stroke-linejoin="round" stroke-miterlimit="10" points="316.689,105.99 
		317.477,84.977 336.07,75.148 353.877,86.34 353.09,107.354 334.496,117.182 	"/>
	<rect x="291.126" y="90.404" fill="#FFFFFF" width="95.091" height="11.521"/>
	<text transform="matrix(1 0 0 1 301.4111 99.5615)"><tspan x="0" y="0" fill="#58595B" font-family="'OpenSans-Bold'" font-size="9.6136">STARTUPS.</tspan><tspan x="55.074" y="0" fill="#58595B" font-family="'OpenSans-Light'" font-size="9.6136">SG</tspan></text>
</g>
<g>
	<polygon fill="none" stroke="#E6E7E8" stroke-width="5" stroke-linejoin="round" stroke-miterlimit="10" points="568.825,108.057 
		569.613,87.043 588.207,77.215 606.013,88.406 605.225,109.42 586.632,119.248 	"/>
	<rect x="543.262" y="92.471" fill="#FFFFFF" width="95.09" height="11.521"/>
	<text transform="matrix(1 0 0 1 553.5469 101.6279)"><tspan x="0" y="0" fill="#58595B" font-family="'OpenSans-Bold'" font-size="9.6136">STARTUPS.</tspan><tspan x="55.074" y="0" fill="#58595B" font-family="'OpenSans-Light'" font-size="9.6136">SG</tspan></text>
</g>
<g>
	<g>
		<path fill="#A6A8AB" d="M292.553,517.43c-0.33,0-0.661-0.082-0.96-0.244l-10.69-5.852c-0.642-0.352-1.041-1.023-1.041-1.754
			s0.398-1.404,1.04-1.756l10.69-5.852c0.6-0.326,1.322-0.326,1.922,0l10.69,5.852c0.642,0.352,1.04,1.025,1.04,1.756
			s-0.399,1.402-1.041,1.754l-10.69,5.852C293.214,517.348,292.883,517.43,292.553,517.43z M286.027,509.58l6.525,3.57l6.525-3.57
			l-6.525-3.572L286.027,509.58z"/>
	</g>
	<g>
		<path fill="#A6A8AB" d="M292.553,525.145c-1.104,0-2-0.895-2-2v-7.715c0-1.104,0.896-2,2-2s2,0.896,2,2v7.715
			C294.553,524.25,293.657,525.145,292.553,525.145z"/>
	</g>
	<g>
		<path fill="#A6A8AB" d="M303.244,519.293c-1.105,0-2-0.895-2-2v-7.713c0-1.105,0.895-2,2-2c1.104,0,2,0.895,2,2v7.713
			C305.244,518.398,304.348,519.293,303.244,519.293z"/>
	</g>
	<g>
		<path fill="#A6A8AB" d="M281.861,519.293c-1.104,0-2-0.895-2-2v-7.713c0-1.105,0.896-2,2-2c1.105,0,2,0.895,2,2v7.713
			C283.861,518.398,282.967,519.293,281.861,519.293z"/>
	</g>
</g>
<g>
	<g>
		<path fill="#A6A8AB" d="M354.875,522.961h-19.064c-1.104,0-2-0.895-2-2V505.91c0-1.104,0.896-2,2-2h19.064c1.104,0,2,0.896,2,2
			v15.051C356.875,522.066,355.979,522.961,354.875,522.961z M337.811,518.961h15.064V507.91h-15.064V518.961z"/>
	</g>
	<rect x="335.811" y="505.91" fill="#A6A8AB" width="19.064" height="4.051"/>
	<g>
		<path fill="#A6A8AB" d="M341.154,516.514c0,0.648-0.527,1.172-1.176,1.172s-1.175-0.523-1.175-1.172
			c0-0.65,0.526-1.176,1.175-1.176S341.154,515.863,341.154,516.514z"/>
		<path fill="#A6A8AB" d="M344.797,516.514c0,0.648-0.526,1.172-1.176,1.172c-0.648,0-1.174-0.523-1.174-1.172
			c0-0.65,0.525-1.176,1.174-1.176C344.271,515.338,344.797,515.863,344.797,516.514z"/>
		<path fill="#A6A8AB" d="M348.439,516.514c0,0.648-0.525,1.172-1.175,1.172s-1.175-0.523-1.175-1.172
			c0-0.65,0.525-1.176,1.175-1.176S348.439,515.863,348.439,516.514z"/>
		<path fill="#A6A8AB" d="M352.082,516.514c0,0.648-0.525,1.172-1.175,1.172c-0.647,0-1.175-0.523-1.175-1.172
			c0-0.65,0.527-1.176,1.175-1.176C351.557,515.338,352.082,515.863,352.082,516.514z"/>
	</g>
	<g>
		<circle fill="#A6A8AB" cx="339.878" cy="512.92" r="1.175"/>
		<circle fill="#A6A8AB" cx="343.521" cy="512.92" r="1.175"/>
		<circle fill="#A6A8AB" cx="347.165" cy="512.92" r="1.175"/>
		<circle fill="#A6A8AB" cx="350.808" cy="512.92" r="1.175"/>
	</g>
</g>
<path fill="#A6A8AB" d="M403.613,522.463l-3.889-10.336v-8.42c0-1.105-0.895-2-2-2h-4.646c-1.105,0-2,0.895-2,2v8.422l-3.889,10.334
	c-0.23,0.613-0.146,1.303,0.228,1.842s0.988,0.861,1.645,0.861h12.681c0.656,0,1.271-0.322,1.645-0.861
	C403.76,523.766,403.845,523.076,403.613,522.463z M395.725,505.707v5.729h-0.646v-5.729H395.725z M391.951,521.166l2.156-5.73
	h2.588l2.156,5.73H391.951z"/>
<g>
	<g>
		<g>
			<path fill="#A6A8AB" d="M438.838,517.369c-0.08-0.123-0.127-0.252-0.141-0.395c-0.013-0.143,0.012-0.273,0.074-0.391
				c0.061-0.115,0.154-0.209,0.279-0.279c0.123-0.068,0.282-0.09,0.477-0.064c0.106,0.008,0.201,0.035,0.285,0.084
				s0.166,0.105,0.246,0.17c0.08,0.066,0.156,0.129,0.231,0.193c0.075,0.066,0.153,0.123,0.231,0.172
				c0.045,0.023,0.099,0.051,0.16,0.078c0.062,0.027,0.203,0.082,0.16,0.068c2.064,0.775,2.715,0.062,2.6-0.527
				c-0.117-0.592-3.34-1.652-3.701-1.855c-0.363-0.203-0.655-0.473-0.877-0.812c-0.203-0.316-0.275-0.631-0.219-0.941
				c0.059-0.312,0.197-0.6,0.419-0.861c0.221-0.264,0.495-0.486,0.822-0.67c0.327-0.182,0.653-0.297,0.981-0.348
				c0-0.096,0-0.203,0-0.32s0.006-0.232,0.021-0.346c0.013-0.115,0.04-0.225,0.079-0.328c0.04-0.105,0.1-0.199,0.18-0.281
				c0.088-0.096,0.189-0.156,0.305-0.186s0.227-0.031,0.332-0.008c0.105,0.025,0.205,0.07,0.299,0.143
				c0.092,0.068,0.166,0.156,0.219,0.27c0.08,0.18,0.119,0.361,0.119,0.549c0,0.186,0,0.371,0,0.559
				c0.248,0.057,0.504,0.125,0.77,0.205c0.266,0.082,0.495,0.203,0.69,0.367c0.124,0.096,0.219,0.207,0.285,0.332
				c0.065,0.125,0.095,0.244,0.087,0.357c-0.01,0.115-0.061,0.217-0.153,0.311s-0.237,0.156-0.431,0.189
				c-0.116,0.014-0.227,0.014-0.332,0c-0.106-0.016-0.211-0.043-0.312-0.08c-0.102-0.035-0.206-0.066-0.305-0.115
				c-1.133-0.564-2.486-0.508-2.66,0.309c-0.233,1.094,0.947,0.861,2.334,1.307c0.393,0.127,0.755,0.283,1.096,0.438
				c0.34,0.154,0.648,0.377,0.922,0.668c0.15,0.162,0.256,0.357,0.318,0.584s0.082,0.457,0.061,0.691
				c-0.022,0.234-0.085,0.461-0.186,0.674c-0.103,0.215-0.242,0.391-0.418,0.529c-0.266,0.209-0.549,0.375-0.85,0.498
				c-0.301,0.121-0.62,0.219-0.955,0.291c0,0.113,0.002,0.248,0.006,0.4c0.005,0.154-0.006,0.291-0.033,0.412
				c-0.025,0.131-0.093,0.242-0.199,0.336c-0.105,0.092-0.228,0.158-0.365,0.193c-0.137,0.037-0.275,0.039-0.417,0.006
				c-0.142-0.031-0.261-0.109-0.358-0.232c-0.133-0.16-0.197-0.352-0.193-0.568c0.006-0.221,0.008-0.422,0.008-0.607
				c-0.398-0.09-0.766-0.234-1.102-0.438C439.391,517.896,439.094,517.652,438.838,517.369z"/>
			<path fill="#A6A8AB" d="M441.569,520.467c-0.103,0-0.206-0.012-0.309-0.035c-0.253-0.059-0.468-0.195-0.638-0.408
				c-0.203-0.244-0.309-0.555-0.303-0.891c0.002-0.076,0.004-0.146,0.005-0.217c-0.303-0.1-0.589-0.229-0.856-0.389
				c-0.378-0.229-0.715-0.506-1.002-0.824c-0.172-0.252-0.246-0.459-0.267-0.682c-0.022-0.242,0.021-0.467,0.129-0.67
				c0.107-0.205,0.269-0.367,0.478-0.482c0.215-0.121,0.471-0.166,0.783-0.125c0.155,0.01,0.323,0.061,0.473,0.148
				c0.104,0.059,0.207,0.131,0.308,0.211l0.247,0.205c0.057,0.051,0.111,0.09,0.168,0.125l0.284,0.123
				c0.517,0.189,0.972,0.289,1.319,0.289c0.382,0,0.506-0.115,0.534-0.148c0.011-0.014,0.042-0.051,0.027-0.123
				c-0.212-0.238-2.055-0.951-2.661-1.186c-0.395-0.152-0.693-0.273-0.794-0.328c-0.433-0.244-0.786-0.572-1.05-0.979
				c-0.275-0.426-0.373-0.865-0.292-1.305c0.073-0.396,0.251-0.766,0.528-1.094c0.257-0.307,0.58-0.57,0.961-0.781
				c0.236-0.133,0.48-0.236,0.726-0.311c0.003-0.111,0.01-0.221,0.023-0.33c0.017-0.148,0.054-0.301,0.107-0.443
				c0.064-0.17,0.161-0.322,0.29-0.453c0.143-0.154,0.328-0.268,0.539-0.32c0.196-0.049,0.385-0.053,0.562-0.012
				c0.186,0.043,0.349,0.121,0.494,0.232c0.155,0.115,0.281,0.27,0.369,0.457c0.111,0.248,0.166,0.502,0.166,0.76v0.168
				c0.136,0.035,0.273,0.074,0.414,0.117c0.334,0.104,0.625,0.26,0.867,0.463c0.163,0.125,0.305,0.291,0.405,0.48
				c0.11,0.211,0.159,0.422,0.144,0.629c-0.019,0.232-0.121,0.447-0.295,0.625c-0.172,0.172-0.408,0.281-0.705,0.33
				c-0.201,0.027-0.335,0.023-0.482,0.002s-0.287-0.057-0.42-0.107c-0.134-0.043-0.245-0.082-0.352-0.135
				c-0.408-0.203-0.867-0.32-1.26-0.32c-0.105,0-0.631,0.014-0.689,0.287c-0.029,0.137-0.016,0.197-0.012,0.207
				c0.059,0.092,0.548,0.186,0.84,0.24c0.35,0.066,0.744,0.141,1.171,0.279c0.435,0.139,0.825,0.311,1.149,0.457
				c0.398,0.18,0.762,0.441,1.079,0.779c0.207,0.225,0.353,0.49,0.437,0.795c0.078,0.285,0.104,0.578,0.076,0.871
				c-0.027,0.291-0.105,0.574-0.232,0.842c-0.137,0.285-0.325,0.523-0.562,0.709c-0.299,0.236-0.625,0.428-0.968,0.566
				c-0.206,0.082-0.419,0.154-0.638,0.217c0.006,0.195-0.009,0.369-0.045,0.533c-0.045,0.225-0.17,0.438-0.357,0.602
				c-0.172,0.148-0.362,0.248-0.57,0.303C441.806,520.451,441.688,520.467,441.569,520.467z M439.465,516.736l-0.172,0.006
				c-0.05,0.027-0.068,0.055-0.08,0.076c-0.011,0.021-0.022,0.051-0.018,0.109c0.006,0.061,0.025,0.113,0.061,0.168
				c0.174,0.184,0.436,0.398,0.729,0.574c0.288,0.174,0.608,0.301,0.953,0.377l0.391,0.088v0.4c0,0.189-0.002,0.395-0.008,0.617
				c-0.002,0.098,0.022,0.172,0.078,0.24l0.171,0.074c0.03,0,0.06-0.004,0.089-0.012c0.066-0.018,0.119-0.047,0.17-0.09
				c0.055-0.145,0.062-0.242,0.059-0.354c-0.004-0.16-0.006-0.299-0.006-0.416v-0.404l0.395-0.086
				c0.305-0.064,0.598-0.154,0.874-0.266c0.254-0.104,0.499-0.246,0.726-0.426c0.117-0.092,0.207-0.207,0.277-0.352
				c0.075-0.16,0.122-0.33,0.139-0.506c0.016-0.176,0.002-0.344-0.045-0.514c-0.041-0.148-0.107-0.271-0.203-0.377
				c-0.225-0.238-0.48-0.424-0.76-0.549c-0.301-0.137-0.658-0.293-1.044-0.418c-0.366-0.117-0.729-0.188-1.05-0.248
				c-0.639-0.121-1.19-0.225-1.486-0.67c-0.171-0.258-0.217-0.584-0.135-0.969c0.145-0.674,0.768-1.078,1.668-1.078
				c0.55,0,1.156,0.152,1.705,0.426c0.064,0.031,0.132,0.051,0.198,0.074c0.126,0.045,0.196,0.062,0.269,0.072
				c0.123,0.008,0.16,0.004,0.196,0c0.104-0.018,0.143-0.049,0.144-0.049c-0.059-0.143-0.107-0.197-0.174-0.25
				c-0.158-0.131-0.326-0.221-0.532-0.283c-0.251-0.076-0.497-0.141-0.733-0.195l-0.389-0.09v-0.957c0-0.117-0.025-0.23-0.076-0.344
				c-0.014-0.029-0.031-0.053-0.059-0.072c-0.043-0.033-0.078-0.049-0.119-0.059l-0.004,0.006l-0.158,0.051
				c-0.031,0.033-0.055,0.068-0.07,0.109c-0.024,0.064-0.041,0.133-0.049,0.207c-0.013,0.098-0.018,0.193-0.018,0.289v0.75
				l-0.424,0.064c-0.271,0.043-0.545,0.141-0.813,0.291c-0.273,0.152-0.503,0.338-0.683,0.553c-0.168,0.197-0.269,0.404-0.311,0.633
				c-0.034,0.184,0.014,0.371,0.146,0.578c0.177,0.271,0.406,0.482,0.701,0.648c0.089,0.049,0.34,0.143,0.666,0.268
				c2.436,0.943,3.172,1.375,3.281,1.926c0.066,0.34-0.02,0.688-0.236,0.951c-0.193,0.234-0.576,0.514-1.307,0.514
				c-0.485,0-1.064-0.125-1.723-0.373l0.094-0.262l-0.113,0.254l-0.166-0.07c-0.081-0.035-0.145-0.066-0.197-0.096
				c-0.126-0.078-0.225-0.148-0.322-0.234l-0.188-0.158c-0.086-0.068-0.146-0.111-0.208-0.146L439.465,516.736z"/>
		</g>
	</g>
	<g>
		<path fill="#A6A8AB" d="M444.055,525.082c-0.395,0.021-0.844-0.006-1.29-0.014c-0.451-0.008-0.919-0.016-1.403-0.016
			c-2.684,0-9.81,0-9.81-6.986c0-2.859,0.95-6.516,3.011-8.646c-0.381-1.818-0.832-4.596-0.512-5.557
			c0.258-0.771,1.012-1.596,2.358-1.596c0.451,0,0.89,0.088,1.353,0.182c0.379,0.074,0.807,0.16,1.113,0.16
			c0.111,0,0.158-0.012,0.158-0.012c1.107-0.369,2.253-0.582,3.139-0.582c0.584,0,1.096,0.092,1.531,0.273
			c0.098-0.029,0.207-0.062,0.298-0.09c0.631-0.191,1.347-0.408,2.097-0.408c0.531,0,1.016,0.111,1.441,0.33
			c1.129,0.588,1.994,1.816,0.881,6.572c2.749,2.717,3.908,8.625,3.274,11.236C450.447,525.068,446.299,525.082,444.055,525.082z
			 M438.71,509.729c0.187,0.807-0.146,1.67-0.87,2.135c-1.262,0.809-2.288,3.592-2.288,6.203c0,1.748,0.417,2.986,5.81,2.986
			c0.506,0,0.996,0.008,1.469,0.016c0.417,0.008,0.819,0.014,1.205,0.014c0,0,0,0,0.001,0c2.774,0,3.339-0.312,3.771-2.096
			c0.447-1.844-1.062-6.992-2.525-7.703c-0.865-0.42-1.309-1.396-1.056-2.324c0.263-0.965,0.481-2.012,0.606-2.834
			c-0.449,0.131-0.908,0.242-1.373,0.242c-0.562,0-0.992-0.156-1.311-0.352c-0.453,0.006-1.178,0.152-1.855,0.379
			c-0.645,0.213-1.446,0.252-2.17,0.17C438.287,507.588,438.52,508.826,438.71,509.729z"/>
	</g>
</g>
<path fill="#A6A8AB" d="M251.287,509.826l-9.121-7.482c-0.736-0.605-1.637-0.908-2.537-0.908c-0.873,0-1.746,0.285-2.473,0.855
	l-9.513,7.482c-1.341,1.055-1.864,2.842-1.308,4.453c0.488,1.412,1.715,2.416,3.158,2.643v4.566c0,2.209,1.791,4,4,4h11.879
	c2.209,0,4-1.791,4-4v-4.566c1.428-0.225,2.645-1.211,3.143-2.604C253.085,512.674,252.593,510.898,251.287,509.826z
	 M233.494,521.436v-4.562h11.879v4.562H233.494z M247.135,512.918v-0.045h-16.961l9.455-7.438l9.121,7.482H247.135z"/>
<path fill="none" stroke="#A6A8AB" stroke-miterlimit="10" d="M523.809,718.217c-2.621,0-4.753-1.895-4.753-4.225V65.32
	c0-2.336,2.132-4.225,4.753-4.225h817.44c2.621,0,4.751,1.889,4.751,4.225v648.672c0,2.33-2.13,4.225-4.751,4.225H523.809z"/>
<path fill="#E6E7E8" d="M1235.438,87.719c0,5.902-4.788,10.689-10.693,10.689h-51.979c-5.904,0-10.693-4.787-10.693-10.689l0,0
	c0-5.906,4.789-10.693,10.693-10.693h51.979C1230.65,77.025,1235.438,81.812,1235.438,87.719L1235.438,87.719z"/>
<path fill="#E6E7E8" d="M1319.653,87.719c0,5.902-4.788,10.689-10.693,10.689h-51.979c-5.905,0-10.693-4.787-10.693-10.689l0,0
	c0-5.906,4.788-10.693,10.693-10.693h51.979C1314.865,77.025,1319.653,81.812,1319.653,87.719L1319.653,87.719z"/>
<text transform="matrix(1 0 0 1 1260.416 92.667)" fill="#231F20" font-family="'OpenSans-CondensedBold'" font-size="13">SIGN UP</text>
<text transform="matrix(1 0 0 1 1181.4277 92.667)" fill="#231F20" font-family="'OpenSans-CondensedBold'" font-size="13">LOGIN</text>
<g>
	<text transform="matrix(1 0 0 1 848.0957 704.2168)" fill="#A6A8AB" font-family="'Roboto-Bold'" font-size="15">COPYRIGHT FOOTER</text>
</g>
<line fill="none" stroke="#A6A8AB" stroke-width="3" stroke-linecap="round" stroke-miterlimit="10" x1="442.269" y1="88.408" x2="457.291" y2="88.408"/>
<line fill="none" stroke="#A6A8AB" stroke-width="3" stroke-linecap="round" stroke-miterlimit="10" x1="442.269" y1="93.445" x2="457.291" y2="93.445"/>
<line fill="none" stroke="#A6A8AB" stroke-width="3" stroke-linecap="round" stroke-miterlimit="10" x1="442.269" y1="98.482" x2="457.291" y2="98.482"/>
<g>
	
		<text transform="matrix(1 0 0 1 883.54 281.6328)" fill="#58595B" font-family="'Roboto-Black'" font-size="24.4288" letter-spacing="1">LOG IN</text>
</g>
<g>
	<text transform="matrix(1 0 0 1 832.9512 339.3477)" fill="#58595B" font-family="'Roboto-Bold'" font-size="15">EMAIL</text>
</g>
<g>
	<text transform="matrix(1 0 0 1 843.4824 545.8359)" fill="#A6A8AB" font-family="'Roboto-Bold'" font-size="15">REGISTER AS NEW USER</text>
</g>
<path fill="none" stroke="#A6A8AB" stroke-miterlimit="10" d="M1038.289,373.771c0,2.35-1.904,4.252-4.252,4.252H832.761
	c-2.349,0-4.252-1.902-4.252-4.252v-23.465c0-2.35,1.903-4.252,4.252-4.252h201.276c2.348,0,4.252,1.902,4.252,4.252V373.771z"/>
<g>
	<text transform="matrix(1 0 0 1 832.9512 403.5586)" fill="#58595B" font-family="'Roboto-Bold'" font-size="15">PASSWORD</text>
</g>
<path fill="none" stroke="#A6A8AB" stroke-miterlimit="10" d="M1038.289,437.982c0,2.35-1.904,4.252-4.252,4.252H832.761
	c-2.349,0-4.252-1.902-4.252-4.252v-23.465c0-2.35,1.903-4.252,4.252-4.252h201.276c2.348,0,4.252,1.902,4.252,4.252V437.982z"/>
<path fill="#A6A8AB" d="M1038.289,520.367c0,2.348-1.904,4.252-4.252,4.252H832.761c-2.349,0-4.252-1.904-4.252-4.252V496.9
	c0-2.348,1.903-4.252,4.252-4.252h201.276c2.348,0,4.252,1.904,4.252,4.252V520.367z"/>
<g>
	
		<text transform="matrix(1 0 0 1 890.1504 516.2422)" fill="#FFFFFF" font-family="'Roboto-Black'" font-size="24.4288" letter-spacing="1">LOG IN</text>
</g>
<rect x="40.331" y="240.044" fill="#F1F1F2" width="66.013" height="67.973"/>
<path fill="none" stroke="#D0D2D3" stroke-miterlimit="10" d="M40.071,254.858c0,0,8.691-1.418,13.418,3.963
	s5.198,11.817,15.359,13.797c10.16,1.98,37.189,15.599,37.189,15.599"/>
<path fill="none" stroke="#D0D2D3" stroke-miterlimit="10" d="M74.618,274.282c0,0-19.475,20.135-18.529,33.735"/>
<path fill="none" stroke="#D0D2D3" stroke-miterlimit="10" d="M66.154,284.451c0,0,6.475,2.929,9.311,6.698
	c2.835,3.77,0.944,16.868,0.944,16.868"/>
<path fill="none" stroke="#D0D2D3" stroke-miterlimit="10" d="M57.692,264.943c0,0,13.718-7.297,16.926-13.943
	c3.209-6.646,1.082-10.849,1.082-10.849"/>
<line fill="none" stroke="#D0D2D3" stroke-miterlimit="10" x1="62.7" y1="289.475" x2="40.071" y2="288.217"/>
<line fill="none" stroke="#D0D2D3" stroke-miterlimit="10" x1="81.746" y1="276.872" x2="106.086" y2="249.611"/>
<line fill="none" stroke="#A6A8AB" stroke-miterlimit="10" x1="40.589" y1="389.258" x2="106.086" y2="389.258"/>
<line fill="none" stroke="#A6A8AB" stroke-miterlimit="10" x1="40.589" y1="308.017" x2="106.086" y2="308.017"/>
<text transform="matrix(1 0 0 1 34.5195 60.603)" fill="#A6A8AB" font-family="'OpenSans-Bold'" font-size="9">COWORKING SPACES</text>
<path fill="none" stroke="#A6A8AB" stroke-miterlimit="10" d="M41.107,399.414c-0.571,0-1.036-0.464-1.036-1.034V241.187
	c0-0.571,0.465-1.035,1.036-1.035h63.896c0.571,0,1.035,0.464,1.035,1.035V398.38c0,0.57-0.464,1.034-1.035,1.034H41.107z"/>
<g>
	<circle fill="#A6A8AB" cx="53.489" cy="324.002" r="6.226"/>
	<rect x="64.207" y="324.019" fill="#E6E7E8" width="20.447" height="2.033"/>
	<rect x="64.207" y="327.74" fill="#E6E7E8" width="15.651" height="2.032"/>
	<rect x="64.207" y="318.231" fill="#A6A8AB" width="34.89" height="3.857"/>
	<line fill="none" stroke="#E6E7E8" stroke-miterlimit="10" x1="43.757" y1="336.317" x2="102.354" y2="336.317"/>
</g>
<g>
	<circle fill="#A6A8AB" cx="53.583" cy="350.554" r="6.226"/>
	<rect x="64.301" y="350.57" fill="#E6E7E8" width="20.448" height="2.033"/>
	<rect x="64.301" y="354.291" fill="#E6E7E8" width="15.651" height="2.032"/>
	<rect x="64.301" y="344.782" fill="#A6A8AB" width="34.89" height="3.858"/>
	<line fill="none" stroke="#E6E7E8" stroke-miterlimit="10" x1="43.851" y1="362.869" x2="102.447" y2="362.869"/>
</g>
<g>
	<circle fill="#A6A8AB" cx="53.678" cy="377.105" r="6.226"/>
	<rect x="64.396" y="377.122" fill="#E6E7E8" width="20.447" height="2.033"/>
	<rect x="64.396" y="380.843" fill="#E6E7E8" width="15.65" height="2.032"/>
	<rect x="64.396" y="371.334" fill="#A6A8AB" width="34.89" height="3.858"/>
</g>
<line fill="none" stroke="#A6A8AB" stroke-miterlimit="10" x1="39.87" y1="219.513" x2="105.367" y2="219.513"/>
<line fill="none" stroke="#A6A8AB" stroke-miterlimit="10" x1="39.402" y1="102.874" x2="104.852" y2="102.874"/>
<rect x="55.321" y="87.043" fill="#E6E7E8" width="32.677" height="2.033"/>
<rect x="57.492" y="90.764" fill="#E6E7E8" width="28.335" height="2.032"/>
<rect x="49.744" y="81.255" fill="#A6A8AB" width="45.749" height="3.858"/>
<path fill="none" stroke="#A6A8AB" stroke-miterlimit="10" d="M40.389,229.669c-0.57,0-1.035-0.465-1.035-1.035V71.441
	c0-0.571,0.465-1.035,1.035-1.035h63.896c0.572,0,1.036,0.464,1.036,1.035v157.193c0,0.57-0.464,1.035-1.036,1.035H40.389z"/>
<g>
	<circle fill="#A6A8AB" cx="52.677" cy="125.957" r="6.226"/>
	<rect x="63.395" y="125.973" fill="#E6E7E8" width="20.447" height="2.033"/>
	<rect x="63.395" y="129.694" fill="#E6E7E8" width="15.651" height="2.031"/>
	<rect x="63.395" y="120.186" fill="#A6A8AB" width="34.89" height="3.857"/>
	<line fill="none" stroke="#E6E7E8" stroke-miterlimit="10" x1="42.944" y1="138.272" x2="101.54" y2="138.272"/>
</g>
<g>
	<circle fill="#A6A8AB" cx="52.771" cy="152.509" r="6.226"/>
	<rect x="63.488" y="152.525" fill="#E6E7E8" width="20.448" height="2.032"/>
	<rect x="63.488" y="156.246" fill="#E6E7E8" width="15.651" height="2.032"/>
	<rect x="63.488" y="146.737" fill="#A6A8AB" width="34.89" height="3.858"/>
	<line fill="none" stroke="#E6E7E8" stroke-miterlimit="10" x1="43.038" y1="164.825" x2="101.635" y2="164.825"/>
</g>
<g>
	<circle fill="#A6A8AB" cx="52.865" cy="179.06" r="6.226"/>
	<rect x="63.583" y="179.077" fill="#E6E7E8" width="20.447" height="2.032"/>
	<rect x="63.583" y="182.797" fill="#E6E7E8" width="15.651" height="2.032"/>
	<rect x="63.583" y="173.29" fill="#A6A8AB" width="34.89" height="3.856"/>
	<line fill="none" stroke="#E6E7E8" stroke-miterlimit="10" x1="43.132" y1="191.375" x2="101.729" y2="191.375"/>
</g>
<g>
	<circle fill="#A6A8AB" cx="52.959" cy="205.611" r="6.226"/>
	<rect x="63.677" y="205.627" fill="#E6E7E8" width="20.448" height="2.033"/>
	<rect x="63.677" y="209.349" fill="#E6E7E8" width="15.651" height="2.032"/>
	<rect x="63.677" y="199.84" fill="#A6A8AB" width="34.89" height="3.857"/>
</g>
<g>
	<polygon fill="#FFFFFF" points="71.588,104.909 72.667,104.328 72.667,100.838 71.588,101.42 	"/>
	<polygon fill="#FFFFFF" points="69.879,104.576 71.049,104.981 71.049,101.451 69.879,101.046 	"/>
	<path fill="#E6E6E6" d="M75.361,98.101h-6.469c-0.85,0-1.539,0.689-1.539,1.539v6.468c0,0.85,0.689,1.54,1.539,1.54h6.469
		c0.85,0,1.539-0.689,1.539-1.54V99.64C76.9,98.79,76.211,98.101,75.361,98.101z M75.005,105.361c0,0.093-0.047,0.18-0.126,0.228
		c-0.043,0.028-0.093,0.042-0.143,0.042c-0.041,0-0.08-0.01-0.119-0.026l-1.675-0.812l-1.497,0.806
		c-0.04,0.022-0.084,0.032-0.128,0.032c-0.029,0-0.059-0.004-0.089-0.016l-1.709-0.591c-0.107-0.038-0.181-0.14-0.181-0.255v-4.103
		c0-0.087,0.043-0.168,0.113-0.219c0.07-0.051,0.162-0.066,0.245-0.035l1.596,0.552l1.517-0.815
		c0.033-0.018,0.069,0.005,0.105,0.002c0.047-0.004,0.095-0.028,0.138-0.007l1.8,0.871c0.095,0.046,0.152,0.14,0.152,0.244V105.361z
		"/>
	<polygon fill="#FFFFFF" points="74.465,104.93 74.465,101.427 73.207,100.817 73.207,104.319 	"/>
	<path fill="#999999" d="M71.049,105.361v-0.379l-1.17-0.405v-3.53l1.17,0.405v-0.192c0-0.1,0.054-0.191,0.141-0.238l0.104-0.056
		l-1.596-0.552c-0.083-0.031-0.175-0.016-0.245,0.035c-0.07,0.051-0.113,0.132-0.113,0.219v4.103c0,0.115,0.073,0.218,0.181,0.255
		l1.709,0.591c0.03,0.011,0.06,0.016,0.089,0.016c-0.048,0-0.096-0.013-0.139-0.038C71.099,105.543,71.049,105.455,71.049,105.361z"
		/>
	<path fill="#999999" d="M71.588,101.259v0.161l1.079-0.582v-0.452c0-0.093,0.048-0.179,0.126-0.229
		c0.037-0.022,0.08-0.003,0.122-0.007c-0.036,0.003-0.072-0.02-0.105-0.002l-1.517,0.815l0.112,0.039
		C71.515,101.041,71.588,101.144,71.588,101.259z"/>
	<path fill="#999999" d="M72.667,104.489v-0.161l-1.079,0.581v0.452c0,0.088-0.043,0.169-0.113,0.219
		c-0.047,0.033-0.103,0.051-0.157,0.051c0.044,0,0.088-0.01,0.128-0.032l1.497-0.806l-0.123-0.061
		C72.727,104.687,72.667,104.592,72.667,104.489z"/>
	<path fill="#999999" d="M71.588,105.361v-0.452v-3.489v-0.161c0-0.115-0.073-0.218-0.183-0.256l-0.112-0.039l-0.104,0.056
		c-0.087,0.047-0.141,0.138-0.141,0.238v0.192v3.53v0.379c0,0.094,0.05,0.183,0.13,0.232c0.043,0.025,0.091,0.038,0.139,0.038
		c0.055,0,0.11-0.018,0.157-0.051C71.545,105.53,71.588,105.449,71.588,105.361z"/>
	<path fill="#999999" d="M74.853,101.015l-1.8-0.871c-0.043-0.021-0.091,0.003-0.138,0.007c0.055-0.005,0.11-0.025,0.16,0.003
		c0.082,0.049,0.132,0.137,0.132,0.232v0.431l1.258,0.61v3.503l-1.258-0.611v0.17c0,0.099-0.055,0.191-0.143,0.237l-0.122,0.066
		l1.675,0.812c0.039,0.017,0.078,0.026,0.119,0.026c0.05,0,0.1-0.014,0.143-0.042c0.079-0.048,0.126-0.135,0.126-0.228v-4.102
		C75.005,101.155,74.947,101.061,74.853,101.015z"/>
	<path fill="#999999" d="M73.207,104.489v-0.17v-3.502v-0.431c0-0.095-0.05-0.183-0.132-0.232c-0.05-0.029-0.105-0.008-0.16-0.003
		c-0.042,0.003-0.085-0.016-0.122,0.007c-0.078,0.049-0.126,0.136-0.126,0.229v0.452v3.49v0.161c0,0.103,0.06,0.198,0.152,0.243
		l0.123,0.061l0.122-0.066C73.152,104.68,73.207,104.588,73.207,104.489z"/>
</g>
<g>
	<rect x="45.758" y="392.412" fill="#E6E7E8" width="3.733" height="3.734"/>
	<rect x="58.357" y="392.412" fill="#E6E7E8" width="3.734" height="3.734"/>
	<rect x="70.958" y="392.412" fill="#E6E7E8" width="3.734" height="3.734"/>
	<rect x="83.558" y="392.412" fill="#E6E7E8" width="3.734" height="3.734"/>
	<rect x="94.95" y="392.412" fill="#E6E7E8" width="3.733" height="3.734"/>
</g>
<g>
	<rect x="45.416" y="222.667" fill="#E6E7E8" width="3.733" height="3.734"/>
	<rect x="58.016" y="222.667" fill="#E6E7E8" width="3.734" height="3.734"/>
	<rect x="70.616" y="222.667" fill="#E6E7E8" width="3.734" height="3.734"/>
	<rect x="83.217" y="222.667" fill="#E6E7E8" width="3.733" height="3.734"/>
	<rect x="94.608" y="222.667" fill="#E6E7E8" width="3.733" height="3.734"/>
</g>
<g>
	<path fill="#A6A8AB" d="M63.039,289.914c0,1.212-2.195,4.636-2.195,4.636s-2.196-3.424-2.196-4.636
		c0-1.213,0.983-2.196,2.196-2.196C62.056,287.718,63.039,288.701,63.039,289.914z"/>
	<circle fill="#FFFFFF" cx="60.843" cy="289.898" r="1.235"/>
</g>
<g>
	<path fill="#A6A8AB" d="M69.729,285.262c0,1.212-2.195,4.636-2.195,4.636s-2.196-3.424-2.196-4.636s0.983-2.196,2.196-2.196
		S69.729,284.05,69.729,285.262z"/>
	<circle fill="#FFFFFF" cx="67.533" cy="285.247" r="1.235"/>
</g>
<g>
	<path fill="#A6A8AB" d="M66.154,279.068c0,1.212-2.196,4.636-2.196,4.636s-2.195-3.424-2.195-4.636
		c0-1.213,0.982-2.196,2.195-2.196S66.154,277.855,66.154,279.068z"/>
	<circle fill="#FFFFFF" cx="63.958" cy="279.052" r="1.235"/>
</g>
<g>
	<path fill="#A6A8AB" d="M71.925,288.255c0,1.212-2.196,4.636-2.196,4.636s-2.195-3.424-2.195-4.636
		c0-1.213,0.982-2.196,2.195-2.196S71.925,287.042,71.925,288.255z"/>
	<circle fill="#FFFFFF" cx="69.729" cy="288.24" r="1.235"/>
</g>
<g>
	<path fill="#A6A8AB" d="M83.848,267.982c0,1.212-2.196,4.636-2.196,4.636s-2.195-3.424-2.195-4.636
		c0-1.213,0.982-2.196,2.195-2.196S83.848,266.77,83.848,267.982z"/>
	<circle fill="#FFFFFF" cx="81.652" cy="267.967" r="1.235"/>
</g>
<g>
	<path fill="#A6A8AB" d="M87.278,245.536c0,1.212-2.196,4.636-2.196,4.636s-2.195-3.424-2.195-4.636
		c0-1.213,0.982-2.196,2.195-2.196S87.278,244.323,87.278,245.536z"/>
	<circle fill="#FFFFFF" cx="85.083" cy="245.52" r="1.235"/>
</g>
<g>
	<path fill="#A6A8AB" d="M89.99,279.068c0,1.212-2.195,4.636-2.195,4.636s-2.196-3.424-2.196-4.636c0-1.213,0.983-2.196,2.196-2.196
		C89.007,276.872,89.99,277.855,89.99,279.068z"/>
	<circle fill="#FFFFFF" cx="87.794" cy="279.052" r="1.235"/>
</g>
<g>
	<path fill="#A6A8AB" d="M63.039,255.568c0,1.212-2.195,4.636-2.195,4.636s-2.196-3.424-2.196-4.636
		c0-1.213,0.983-2.196,2.196-2.196C62.056,253.372,63.039,254.355,63.039,255.568z"/>
	<circle fill="#FFFFFF" cx="60.843" cy="255.553" r="1.235"/>
</g>
<g>
	
		<rect x="69.564" y="304.913" fill="#FFFFFF" stroke="#A6A8AB" stroke-linecap="round" stroke-linejoin="round" stroke-miterlimit="10" width="6.982" height="6.209"/>
	<polyline fill="#FFFFFF" stroke="#A6A8AB" stroke-linecap="round" stroke-linejoin="round" stroke-miterlimit="10" points="
		71.661,308.715 73.055,307.32 74.45,308.715 	"/>
</g>
<g>
	<text transform="matrix(1 0 0 1 255.5908 154.1411)" fill="#58595B" font-family="'Roboto-Bold'" font-size="16">coworking spaces</text>
</g>
<g>
	<text transform="matrix(1 0 0 1 284.127 262.6987)" fill="#58595B" font-family="'Roboto-Bold'" font-size="13">The working capitol</text>
</g>
<text transform="matrix(1 0 0 1 266.7148 174.29)"><tspan x="0" y="0" fill="#A6A8AB" font-family="'OpenSans-Bold'" font-size="10">Artisanal filler text for </tspan><tspan x="14.546" y="12" fill="#A6A8AB" font-family="'OpenSans-Bold'" font-size="10">your site or project.</tspan></text>
<g>
	<text transform="matrix(1 0 0 1 284.584 276.96)" fill="#58595B" font-family="'OpenSans-Bold'" font-size="9">1 Keong Saik Rd, 089109</text>
</g>
<g>
	<text transform="matrix(1 0 0 1 284.584 290.7393)" fill="#58595B" font-family="'OpenSans'" font-size="9">https://www.theworkingcapitol.com/</text>
</g>
<line fill="none" stroke="#A6A8AB" stroke-miterlimit="10" x1="205.973" y1="218.667" x2="474.238" y2="218.667"/>
<g>
	<polygon fill="#FFFFFF" points="337.488,228.362 341.77,226.057 341.77,212.209 337.488,214.517 	"/>
	<polygon fill="#FFFFFF" points="330.707,227.041 335.349,228.649 335.349,214.641 330.707,213.033 	"/>
	<path fill="#E6E6E6" d="M352.462,201.346h-25.671c-3.369,0-6.104,2.736-6.104,6.107v25.664c0,3.374,2.735,6.109,6.104,6.109h25.671
		c3.368,0,6.104-2.735,6.104-6.109v-25.664C358.566,204.082,355.83,201.346,352.462,201.346z M351.046,230.154
		c0,0.368-0.187,0.713-0.499,0.905c-0.171,0.11-0.369,0.167-0.566,0.167c-0.163,0-0.316-0.039-0.472-0.105l-6.646-3.221
		l-5.942,3.198c-0.157,0.089-0.333,0.128-0.507,0.128c-0.116,0-0.232-0.018-0.353-0.062l-6.78-2.345
		c-0.427-0.149-0.718-0.556-0.718-1.013v-16.279c0-0.345,0.172-0.668,0.45-0.87c0.279-0.203,0.644-0.261,0.972-0.14l6.331,2.191
		l6.018-3.235c0.132-0.072,0.276,0.021,0.42,0.008c0.186-0.016,0.376-0.113,0.546-0.029l7.142,3.456
		c0.375,0.182,0.604,0.556,0.604,0.969V230.154z"/>
	<polygon fill="#FFFFFF" points="348.904,228.445 348.904,214.546 343.912,212.124 343.912,226.021 	"/>
	<path fill="#999999" d="M335.349,230.154v-1.505l-4.642-1.608v-14.008l4.642,1.608v-0.764c0-0.397,0.214-0.76,0.558-0.946
		l0.41-0.223l-6.331-2.191c-0.328-0.122-0.692-0.063-0.972,0.14c-0.278,0.202-0.45,0.525-0.45,0.87v16.279
		c0,0.457,0.291,0.864,0.718,1.013l6.78,2.345c0.12,0.043,0.236,0.062,0.353,0.062c-0.189,0-0.379-0.051-0.549-0.149
		C335.547,230.878,335.349,230.528,335.349,230.154z"/>
	<path fill="#999999" d="M337.488,213.877v0.64l4.281-2.308v-1.794c0-0.368,0.189-0.711,0.5-0.906
		c0.146-0.089,0.317-0.014,0.484-0.027c-0.144,0.013-0.288-0.08-0.42-0.008l-6.018,3.235l0.447,0.153
		C337.197,213.014,337.488,213.42,337.488,213.877z"/>
	<path fill="#999999" d="M341.77,226.696v-0.639l-4.281,2.305v1.792c0,0.351-0.171,0.67-0.449,0.868
		c-0.188,0.131-0.408,0.203-0.625,0.203c0.174,0,0.35-0.039,0.507-0.128l5.942-3.198l-0.489-0.241
		C342.005,227.481,341.77,227.104,341.77,226.696z"/>
	<path fill="#999999" d="M337.488,230.154v-1.792v-13.845v-0.64c0-0.458-0.291-0.864-0.725-1.015l-0.447-0.153l-0.41,0.223
		c-0.344,0.186-0.558,0.549-0.558,0.946v0.764v14.008v1.505c0,0.374,0.198,0.724,0.517,0.922c0.17,0.099,0.359,0.149,0.549,0.149
		c0.217,0,0.437-0.072,0.625-0.203C337.317,230.824,337.488,230.505,337.488,230.154z"/>
	<path fill="#999999" d="M350.441,212.909l-7.142-3.456c-0.17-0.084-0.36,0.013-0.546,0.029c0.217-0.02,0.438-0.101,0.636,0.013
		c0.324,0.196,0.522,0.544,0.522,0.92v1.709l4.992,2.422v13.899l-4.992-2.423v0.674c0,0.394-0.216,0.757-0.565,0.941l-0.483,0.262
		l6.646,3.221c0.155,0.066,0.309,0.105,0.472,0.105c0.197,0,0.396-0.057,0.566-0.167c0.312-0.192,0.499-0.537,0.499-0.905v-16.277
		C351.046,213.465,350.816,213.09,350.441,212.909z"/>
	<path fill="#999999" d="M343.912,226.696v-0.674v-13.897v-1.709c0-0.376-0.198-0.724-0.522-0.92
		c-0.198-0.114-0.419-0.033-0.636-0.013c-0.167,0.013-0.338-0.062-0.484,0.027c-0.311,0.195-0.5,0.539-0.5,0.906v1.794v13.847v0.639
		c0,0.409,0.235,0.785,0.604,0.963l0.489,0.241l0.483-0.262C343.696,227.453,343.912,227.089,343.912,226.696z"/>
</g>
<path fill="#A6A8AB" d="M273.622,275.725c0,13.929-11.294,25.218-25.216,25.218c-13.928,0-25.217-11.289-25.217-25.218
	c0-13.929,11.289-25.217,25.217-25.217C262.328,250.508,273.622,261.796,273.622,275.725z"/>
<line fill="none" stroke="#E6E7E8" stroke-width="3" stroke-miterlimit="10" x1="220" y1="315.599" x2="461" y2="315.599"/>
<g>
	<text transform="matrix(1 0 0 1 284.6797 344.6274)" fill="#58595B" font-family="'Roboto-Bold'" font-size="13">The working capitol</text>
</g>
<g>
	<text transform="matrix(1 0 0 1 285.1367 358.8887)" fill="#58595B" font-family="'OpenSans-Bold'" font-size="9">1 Keong Saik Rd, 089109</text>
</g>
<g>
	<text transform="matrix(1 0 0 1 285.1367 372.668)" fill="#58595B" font-family="'OpenSans'" font-size="9">https://www.theworkingcapitol.com/</text>
</g>
<path fill="#A6A8AB" d="M274.175,357.654c0,13.929-11.294,25.218-25.216,25.218c-13.928,0-25.217-11.289-25.217-25.218
	c0-13.929,11.289-25.217,25.217-25.217C262.881,332.437,274.175,343.725,274.175,357.654z"/>
<line fill="none" stroke="#E6E7E8" stroke-width="3" stroke-miterlimit="10" x1="220.553" y1="397.527" x2="461.553" y2="397.527"/>
<g>
	<text transform="matrix(1 0 0 1 285.2324 426.5566)" fill="#58595B" font-family="'Roboto-Bold'" font-size="13">The working capitol</text>
</g>
<g>
	<text transform="matrix(1 0 0 1 285.6895 440.8174)" fill="#58595B" font-family="'OpenSans-Bold'" font-size="9">1 Keong Saik Rd, 089109</text>
</g>
<g>
	<text transform="matrix(1 0 0 1 285.6895 454.5967)" fill="#58595B" font-family="'OpenSans'" font-size="9">https://www.theworkingcapitol.com/</text>
</g>
<path fill="#A6A8AB" d="M274.728,439.583c0,13.93-11.294,25.218-25.216,25.218c-13.928,0-25.217-11.288-25.217-25.218
	c0-13.929,11.289-25.217,25.217-25.217C263.434,414.366,274.728,425.654,274.728,439.583z"/>
<path fill="none" stroke="#A6A8AB" stroke-miterlimit="10" d="M207.103,1051.079c-2.329,0-4.225-1.893-4.225-4.225v-464.42
	c0-2.336,1.896-4.225,4.225-4.225h260.774c2.33,0,4.223,1.889,4.223,4.225v464.42c0,2.332-1.893,4.225-4.223,4.225H207.103z"/>
<line fill="none" stroke="#A6A8AB" stroke-miterlimit="10" x1="203.834" y1="1009.673" x2="471.142" y2="1009.673"/>
<g>
	<g>
		<path fill="#A6A8AB" d="M290.414,1034.544c-0.33,0-0.661-0.082-0.96-0.244l-10.69-5.852c-0.642-0.352-1.041-1.023-1.041-1.754
			s0.398-1.404,1.04-1.756l10.69-5.852c0.6-0.326,1.322-0.326,1.922,0l10.69,5.852c0.642,0.352,1.04,1.025,1.04,1.756
			s-0.399,1.402-1.041,1.754l-10.69,5.852C291.075,1034.462,290.744,1034.544,290.414,1034.544z M283.889,1026.694l6.525,3.57
			l6.525-3.57l-6.525-3.572L283.889,1026.694z"/>
	</g>
	<g>
		<path fill="#A6A8AB" d="M290.414,1042.259c-1.104,0-2-0.895-2-2v-7.715c0-1.104,0.896-2,2-2s2,0.896,2,2v7.715
			C292.414,1041.364,291.519,1042.259,290.414,1042.259z"/>
	</g>
	<g>
		<path fill="#A6A8AB" d="M301.105,1036.407c-1.105,0-2-0.895-2-2v-7.713c0-1.105,0.895-2,2-2c1.104,0,2,0.895,2,2v7.713
			C303.105,1035.513,302.209,1036.407,301.105,1036.407z"/>
	</g>
	<g>
		<path fill="#A6A8AB" d="M279.723,1036.407c-1.104,0-2-0.895-2-2v-7.713c0-1.105,0.896-2,2-2c1.105,0,2,0.895,2,2v7.713
			C281.723,1035.513,280.828,1036.407,279.723,1036.407z"/>
	</g>
</g>
<g>
	<g>
		<path fill="#A6A8AB" d="M352.736,1040.075h-19.064c-1.104,0-2-0.895-2-2v-15.051c0-1.104,0.896-2,2-2h19.064c1.104,0,2,0.896,2,2
			v15.051C354.736,1039.181,353.841,1040.075,352.736,1040.075z M335.672,1036.075h15.064v-11.051h-15.064V1036.075z"/>
	</g>
	<rect x="333.672" y="1023.024" fill="#A6A8AB" width="19.064" height="4.051"/>
	<g>
		<path fill="#A6A8AB" d="M339.016,1033.628c0,0.648-0.527,1.172-1.176,1.172s-1.175-0.523-1.175-1.172
			c0-0.65,0.526-1.176,1.175-1.176S339.016,1032.978,339.016,1033.628z"/>
		<path fill="#A6A8AB" d="M342.658,1033.628c0,0.648-0.526,1.172-1.176,1.172c-0.648,0-1.174-0.523-1.174-1.172
			c0-0.65,0.525-1.176,1.174-1.176C342.132,1032.452,342.658,1032.978,342.658,1033.628z"/>
		<path fill="#A6A8AB" d="M346.301,1033.628c0,0.648-0.525,1.172-1.175,1.172s-1.175-0.523-1.175-1.172
			c0-0.65,0.525-1.176,1.175-1.176S346.301,1032.978,346.301,1033.628z"/>
		<path fill="#A6A8AB" d="M349.943,1033.628c0,0.648-0.525,1.172-1.175,1.172c-0.647,0-1.175-0.523-1.175-1.172
			c0-0.65,0.527-1.176,1.175-1.176C349.418,1032.452,349.943,1032.978,349.943,1033.628z"/>
	</g>
	<g>
		<circle fill="#A6A8AB" cx="337.739" cy="1030.034" r="1.175"/>
		<circle fill="#A6A8AB" cx="341.382" cy="1030.034" r="1.175"/>
		<circle fill="#A6A8AB" cx="345.026" cy="1030.034" r="1.175"/>
		<circle fill="#A6A8AB" cx="348.669" cy="1030.034" r="1.175"/>
	</g>
</g>
<path fill="#A6A8AB" d="M401.475,1039.577l-3.889-10.336v-8.42c0-1.105-0.895-2-2-2h-4.646c-1.105,0-2,0.895-2,2v8.422
	l-3.889,10.334c-0.23,0.613-0.146,1.303,0.228,1.842s0.988,0.861,1.645,0.861h12.681c0.656,0,1.271-0.322,1.645-0.861
	C401.621,1040.88,401.706,1040.19,401.475,1039.577z M393.586,1022.821v5.729h-0.646v-5.729H393.586z M389.812,1038.28l2.156-5.73
	h2.588l2.156,5.73H389.812z"/>
<g>
	<g>
		<g>
			<path fill="#A6A8AB" d="M436.699,1034.483c-0.08-0.123-0.127-0.252-0.141-0.395c-0.013-0.143,0.012-0.273,0.074-0.391
				c0.061-0.115,0.154-0.209,0.279-0.279c0.123-0.068,0.282-0.09,0.477-0.064c0.106,0.008,0.201,0.035,0.285,0.084
				s0.166,0.105,0.246,0.17c0.08,0.066,0.156,0.129,0.231,0.193c0.075,0.066,0.153,0.123,0.231,0.172
				c0.045,0.023,0.099,0.051,0.16,0.078c0.062,0.027,0.203,0.082,0.16,0.068c2.064,0.775,2.715,0.062,2.6-0.527
				c-0.117-0.592-3.34-1.652-3.701-1.855c-0.363-0.203-0.655-0.473-0.877-0.812c-0.203-0.316-0.275-0.631-0.219-0.941
				c0.059-0.312,0.197-0.6,0.419-0.861c0.221-0.264,0.495-0.486,0.822-0.67c0.327-0.182,0.653-0.297,0.981-0.348
				c0-0.096,0-0.203,0-0.32s0.006-0.232,0.021-0.346c0.013-0.115,0.04-0.225,0.079-0.328c0.04-0.105,0.1-0.199,0.18-0.281
				c0.088-0.096,0.189-0.156,0.305-0.186s0.227-0.031,0.332-0.008c0.105,0.025,0.205,0.07,0.299,0.143
				c0.092,0.068,0.166,0.156,0.219,0.27c0.08,0.18,0.119,0.361,0.119,0.549c0,0.186,0,0.371,0,0.559
				c0.248,0.057,0.504,0.125,0.77,0.205c0.266,0.082,0.495,0.203,0.69,0.367c0.124,0.096,0.219,0.207,0.285,0.332
				c0.065,0.125,0.095,0.244,0.087,0.357c-0.01,0.115-0.061,0.217-0.153,0.311s-0.237,0.156-0.431,0.189
				c-0.116,0.014-0.227,0.014-0.332,0c-0.106-0.016-0.211-0.043-0.312-0.08c-0.102-0.035-0.206-0.066-0.305-0.115
				c-1.133-0.564-2.486-0.508-2.66,0.309c-0.233,1.094,0.947,0.861,2.334,1.307c0.393,0.127,0.755,0.283,1.096,0.438
				c0.34,0.154,0.648,0.377,0.922,0.668c0.15,0.162,0.256,0.357,0.318,0.584s0.082,0.457,0.061,0.691
				c-0.022,0.234-0.085,0.461-0.186,0.674c-0.103,0.215-0.242,0.391-0.418,0.529c-0.266,0.209-0.549,0.375-0.85,0.498
				c-0.301,0.121-0.62,0.219-0.955,0.291c0,0.113,0.002,0.248,0.006,0.4c0.005,0.154-0.006,0.291-0.033,0.412
				c-0.025,0.131-0.093,0.242-0.199,0.336c-0.105,0.092-0.228,0.158-0.365,0.193c-0.137,0.037-0.275,0.039-0.417,0.006
				c-0.142-0.031-0.261-0.109-0.358-0.232c-0.133-0.16-0.197-0.352-0.193-0.568c0.006-0.221,0.008-0.422,0.008-0.607
				c-0.398-0.09-0.766-0.234-1.102-0.438C437.252,1035.011,436.955,1034.767,436.699,1034.483z"/>
			<path fill="#A6A8AB" d="M439.431,1037.581c-0.103,0-0.206-0.012-0.309-0.035c-0.253-0.059-0.468-0.195-0.638-0.408
				c-0.203-0.244-0.309-0.555-0.303-0.891c0.002-0.076,0.004-0.146,0.005-0.217c-0.303-0.1-0.589-0.229-0.856-0.389
				c-0.378-0.229-0.715-0.506-1.002-0.824c-0.172-0.252-0.246-0.459-0.267-0.682c-0.022-0.242,0.021-0.467,0.129-0.67
				c0.107-0.205,0.269-0.367,0.478-0.482c0.215-0.121,0.471-0.166,0.783-0.125c0.155,0.01,0.323,0.061,0.473,0.148
				c0.104,0.059,0.207,0.131,0.308,0.211l0.247,0.205c0.057,0.051,0.111,0.09,0.168,0.125l0.284,0.123
				c0.517,0.189,0.972,0.289,1.319,0.289c0.382,0,0.506-0.115,0.534-0.148c0.011-0.014,0.042-0.051,0.027-0.123
				c-0.212-0.238-2.055-0.951-2.661-1.186c-0.395-0.152-0.693-0.273-0.794-0.328c-0.433-0.244-0.786-0.572-1.05-0.979
				c-0.275-0.426-0.373-0.865-0.292-1.305c0.073-0.396,0.251-0.766,0.528-1.094c0.257-0.307,0.58-0.57,0.961-0.781
				c0.236-0.133,0.48-0.236,0.726-0.311c0.003-0.111,0.01-0.221,0.023-0.33c0.017-0.148,0.054-0.301,0.107-0.443
				c0.064-0.17,0.161-0.322,0.29-0.453c0.143-0.154,0.328-0.268,0.539-0.32c0.196-0.049,0.385-0.053,0.562-0.012
				c0.186,0.043,0.349,0.121,0.494,0.232c0.155,0.115,0.281,0.27,0.369,0.457c0.111,0.248,0.166,0.502,0.166,0.76v0.168
				c0.136,0.035,0.273,0.074,0.414,0.117c0.334,0.104,0.625,0.26,0.867,0.463c0.163,0.125,0.305,0.291,0.405,0.48
				c0.11,0.211,0.159,0.422,0.144,0.629c-0.019,0.232-0.121,0.447-0.295,0.625c-0.172,0.172-0.408,0.281-0.705,0.33
				c-0.201,0.027-0.335,0.023-0.482,0.002s-0.287-0.057-0.42-0.107c-0.134-0.043-0.245-0.082-0.352-0.135
				c-0.408-0.203-0.867-0.32-1.26-0.32c-0.105,0-0.631,0.014-0.689,0.287c-0.029,0.137-0.016,0.197-0.012,0.207
				c0.059,0.092,0.548,0.186,0.84,0.24c0.35,0.066,0.744,0.141,1.171,0.279c0.435,0.139,0.825,0.311,1.149,0.457
				c0.398,0.18,0.762,0.441,1.079,0.779c0.207,0.225,0.353,0.49,0.437,0.795c0.078,0.285,0.104,0.578,0.076,0.871
				c-0.027,0.291-0.105,0.574-0.232,0.842c-0.137,0.285-0.325,0.523-0.562,0.709c-0.299,0.236-0.625,0.428-0.968,0.566
				c-0.206,0.082-0.419,0.154-0.638,0.217c0.006,0.195-0.009,0.369-0.045,0.533c-0.045,0.225-0.17,0.438-0.357,0.602
				c-0.172,0.148-0.362,0.248-0.57,0.303C439.667,1037.565,439.549,1037.581,439.431,1037.581z M437.326,1033.851l-0.172,0.006
				c-0.05,0.027-0.068,0.055-0.08,0.076c-0.011,0.021-0.022,0.051-0.018,0.109c0.006,0.061,0.025,0.113,0.061,0.168
				c0.174,0.184,0.436,0.398,0.729,0.574c0.288,0.174,0.608,0.301,0.953,0.377l0.391,0.088v0.4c0,0.189-0.002,0.395-0.008,0.617
				c-0.002,0.098,0.022,0.172,0.078,0.24l0.171,0.074c0.03,0,0.06-0.004,0.089-0.012c0.066-0.018,0.119-0.047,0.17-0.09
				c0.055-0.145,0.062-0.242,0.059-0.354c-0.004-0.16-0.006-0.299-0.006-0.416v-0.404l0.395-0.086
				c0.305-0.064,0.598-0.154,0.874-0.266c0.254-0.104,0.499-0.246,0.726-0.426c0.117-0.092,0.207-0.207,0.277-0.352
				c0.075-0.16,0.122-0.33,0.139-0.506c0.016-0.176,0.002-0.344-0.045-0.514c-0.041-0.148-0.107-0.271-0.203-0.377
				c-0.225-0.238-0.48-0.424-0.76-0.549c-0.301-0.137-0.658-0.293-1.044-0.418c-0.366-0.117-0.729-0.188-1.05-0.248
				c-0.639-0.121-1.19-0.225-1.486-0.67c-0.171-0.258-0.217-0.584-0.135-0.969c0.145-0.674,0.768-1.078,1.668-1.078
				c0.55,0,1.156,0.152,1.705,0.426c0.064,0.031,0.132,0.051,0.198,0.074c0.126,0.045,0.196,0.062,0.269,0.072
				c0.123,0.008,0.16,0.004,0.196,0c0.104-0.018,0.143-0.049,0.144-0.049c-0.059-0.143-0.107-0.197-0.174-0.25
				c-0.158-0.131-0.326-0.221-0.532-0.283c-0.251-0.076-0.497-0.141-0.733-0.195l-0.389-0.09v-0.957c0-0.117-0.025-0.23-0.076-0.344
				c-0.014-0.029-0.031-0.053-0.059-0.072c-0.043-0.033-0.078-0.049-0.119-0.059l-0.004,0.006l-0.158,0.051
				c-0.031,0.033-0.055,0.068-0.07,0.109c-0.024,0.064-0.041,0.133-0.049,0.207c-0.013,0.098-0.018,0.193-0.018,0.289v0.75
				l-0.424,0.064c-0.271,0.043-0.545,0.141-0.813,0.291c-0.273,0.152-0.503,0.338-0.683,0.553c-0.168,0.197-0.269,0.404-0.311,0.633
				c-0.034,0.184,0.014,0.371,0.146,0.578c0.177,0.271,0.406,0.482,0.701,0.648c0.089,0.049,0.34,0.143,0.666,0.268
				c2.436,0.943,3.172,1.375,3.281,1.926c0.066,0.34-0.02,0.688-0.236,0.951c-0.193,0.234-0.576,0.514-1.307,0.514
				c-0.485,0-1.064-0.125-1.723-0.373l0.094-0.262l-0.113,0.254l-0.166-0.07c-0.081-0.035-0.145-0.066-0.197-0.096
				c-0.126-0.078-0.225-0.148-0.322-0.234l-0.188-0.158c-0.086-0.068-0.146-0.111-0.208-0.146L437.326,1033.851z"/>
		</g>
	</g>
	<g>
		<path fill="#A6A8AB" d="M441.916,1042.196c-0.395,0.021-0.844-0.006-1.29-0.014c-0.451-0.008-0.919-0.016-1.403-0.016
			c-2.684,0-9.81,0-9.81-6.986c0-2.859,0.95-6.516,3.011-8.646c-0.381-1.818-0.832-4.596-0.512-5.557
			c0.258-0.771,1.012-1.596,2.358-1.596c0.451,0,0.89,0.088,1.353,0.182c0.379,0.074,0.807,0.16,1.113,0.16
			c0.111,0,0.158-0.012,0.158-0.012c1.107-0.369,2.253-0.582,3.139-0.582c0.584,0,1.096,0.092,1.531,0.273
			c0.098-0.029,0.207-0.062,0.298-0.09c0.631-0.191,1.347-0.408,2.097-0.408c0.531,0,1.016,0.111,1.441,0.33
			c1.129,0.588,1.994,1.816,0.881,6.572c2.749,2.717,3.908,8.625,3.274,11.236C448.309,1042.183,444.16,1042.196,441.916,1042.196z
			 M436.571,1026.843c0.187,0.807-0.146,1.67-0.87,2.135c-1.262,0.809-2.288,3.592-2.288,6.203c0,1.748,0.417,2.986,5.81,2.986
			c0.506,0,0.996,0.008,1.469,0.016c0.417,0.008,0.819,0.014,1.205,0.014c0,0,0,0,0.001,0c2.774,0,3.339-0.312,3.771-2.096
			c0.447-1.844-1.062-6.992-2.525-7.703c-0.865-0.42-1.309-1.396-1.056-2.324c0.263-0.965,0.481-2.012,0.606-2.834
			c-0.449,0.131-0.908,0.242-1.373,0.242c-0.562,0-0.992-0.156-1.311-0.352c-0.453,0.006-1.178,0.152-1.855,0.379
			c-0.645,0.213-1.446,0.252-2.17,0.17C436.148,1024.702,436.381,1025.94,436.571,1026.843z"/>
	</g>
</g>
<path fill="#A6A8AB" d="M249.148,1026.94l-9.121-7.482c-0.736-0.605-1.637-0.908-2.537-0.908c-0.873,0-1.746,0.285-2.473,0.855
	l-9.513,7.482c-1.341,1.055-1.864,2.842-1.308,4.453c0.488,1.412,1.715,2.416,3.158,2.643v4.566c0,2.209,1.791,4,4,4h11.879
	c2.209,0,4-1.791,4-4v-4.566c1.428-0.225,2.645-1.211,3.143-2.604C250.946,1029.788,250.454,1028.013,249.148,1026.94z
	 M231.355,1038.55v-4.562h11.879v4.562H231.355z M244.996,1030.032v-0.045h-16.961l9.455-7.438l9.121,7.482H244.996z"/>
<line fill="none" stroke="#A6A8AB" stroke-width="3" stroke-miterlimit="10" x1="203.834" y1="855.544" x2="472.1" y2="855.544"/>
<g>
	<polygon fill="#FFFFFF" points="335.35,865.239 339.631,862.934 339.631,849.087 335.35,851.394 	"/>
	<polygon fill="#FFFFFF" points="328.568,863.917 333.21,865.526 333.21,851.519 328.568,849.909 	"/>
	<path fill="#58595B" d="M350.323,838.223h-25.671c-3.369,0-6.104,2.735-6.104,6.106v25.664c0,3.374,2.735,6.109,6.104,6.109h25.671
		c3.368,0,6.104-2.735,6.104-6.109v-25.664C356.428,840.958,353.691,838.223,350.323,838.223z M348.907,867.031
		c0,0.368-0.187,0.713-0.499,0.905c-0.171,0.109-0.369,0.166-0.566,0.166c-0.163,0-0.316-0.039-0.472-0.105l-6.646-3.221
		l-5.942,3.198c-0.157,0.089-0.333,0.128-0.507,0.128c-0.116,0-0.232-0.018-0.353-0.062l-6.78-2.345
		c-0.427-0.148-0.718-0.557-0.718-1.014v-16.278c0-0.345,0.172-0.669,0.45-0.87c0.279-0.203,0.644-0.262,0.972-0.14l6.331,2.191
		l6.018-3.235c0.132-0.072,0.276,0.021,0.42,0.008c0.186-0.016,0.376-0.113,0.546-0.029l7.142,3.457
		c0.375,0.182,0.604,0.556,0.604,0.969V867.031z"/>
	<polygon fill="#FFFFFF" points="346.766,865.321 346.766,851.423 341.773,849.001 341.773,862.898 	"/>
	<path fill="#999999" d="M333.21,867.031v-1.505l-4.642-1.609v-14.008l4.642,1.609v-0.764c0-0.397,0.214-0.76,0.558-0.946
		l0.41-0.223l-6.331-2.191c-0.328-0.122-0.692-0.063-0.972,0.14c-0.278,0.201-0.45,0.525-0.45,0.87v16.278
		c0,0.457,0.291,0.865,0.718,1.014l6.78,2.345c0.12,0.044,0.236,0.062,0.353,0.062c-0.189,0-0.379-0.051-0.549-0.149
		C333.408,867.755,333.21,867.405,333.21,867.031z"/>
	<path fill="#999999" d="M335.35,850.755v0.639l4.281-2.307v-1.795c0-0.367,0.189-0.711,0.5-0.906
		c0.146-0.09,0.317-0.014,0.484-0.027c-0.144,0.014-0.288-0.08-0.42-0.008l-6.018,3.235l0.447,0.153
		C335.059,849.891,335.35,850.297,335.35,850.755z"/>
	<path fill="#999999" d="M339.631,863.573v-0.64l-4.281,2.306v1.792c0,0.351-0.171,0.67-0.449,0.868
		c-0.188,0.131-0.408,0.203-0.625,0.203c0.174,0,0.35-0.039,0.507-0.128l5.942-3.198l-0.489-0.24
		C339.866,864.358,339.631,863.981,339.631,863.573z"/>
	<path fill="#999999" d="M335.35,867.031v-1.792v-13.846v-0.639c0-0.458-0.291-0.864-0.725-1.016l-0.447-0.153l-0.41,0.223
		c-0.344,0.187-0.558,0.549-0.558,0.946v0.764v14.008v1.505c0,0.374,0.198,0.724,0.517,0.922c0.17,0.099,0.359,0.149,0.549,0.149
		c0.217,0,0.437-0.072,0.625-0.203C335.179,867.701,335.35,867.382,335.35,867.031z"/>
	<path fill="#999999" d="M348.303,849.786l-7.142-3.457c-0.17-0.084-0.36,0.014-0.546,0.029c0.217-0.02,0.438-0.102,0.636,0.014
		c0.324,0.195,0.522,0.544,0.522,0.92v1.709l4.992,2.422v13.898l-4.992-2.423v0.675c0,0.393-0.216,0.757-0.565,0.941l-0.483,0.262
		l6.646,3.221c0.155,0.066,0.309,0.105,0.472,0.105c0.197,0,0.396-0.057,0.566-0.166c0.312-0.192,0.499-0.537,0.499-0.905v-16.276
		C348.907,850.342,348.678,849.968,348.303,849.786z"/>
	<path fill="#999999" d="M341.773,863.573v-0.675v-13.897v-1.709c0-0.376-0.198-0.725-0.522-0.92
		c-0.198-0.115-0.419-0.033-0.636-0.014c-0.167,0.014-0.338-0.062-0.484,0.027c-0.311,0.195-0.5,0.539-0.5,0.906v1.795v13.847v0.64
		c0,0.408,0.235,0.785,0.604,0.963l0.489,0.24l0.483-0.262C341.558,864.33,341.773,863.966,341.773,863.573z"/>
</g>
<line fill="none" stroke="#E6E7E8" stroke-width="3" stroke-miterlimit="10" x1="218.414" y1="914.642" x2="459.414" y2="914.642"/>
<g>
	<text transform="matrix(1 0 0 1 283.0938 943.6709)" fill="#58595B" font-family="'Roboto-Bold'" font-size="13">The working capitol</text>
</g>
<g>
	<text transform="matrix(1 0 0 1 283.5508 957.9316)" fill="#58595B" font-family="'OpenSans-Bold'" font-size="9">1 Keong Saik Rd, 089109</text>
</g>
<g>
	<text transform="matrix(1 0 0 1 283.5508 971.7109)" fill="#58595B" font-family="'OpenSans'" font-size="9">https://www.theworkingcapitol.com/</text>
</g>
<path fill="#A6A8AB" d="M272.589,956.697c0,13.93-11.294,25.218-25.216,25.218c-13.928,0-25.217-11.288-25.217-25.218
	c0-13.929,11.289-25.217,25.217-25.217C261.295,931.48,272.589,942.769,272.589,956.697z"/>
</svg>
