<?xml version="1.0" encoding="utf-8"?>
<!-- Generator: Adobe Illustrator 16.0.0, SVG Export Plug-In . SVG Version: 6.00 Build 0)  -->
<!DOCTYPE svg PUBLIC "-//W3C//DTD SVG 1.1//EN" "http://www.w3.org/Graphics/SVG/1.1/DTD/svg11.dtd">
<svg version="1.1" id="Layer_1" xmlns="http://www.w3.org/2000/svg" xmlns:xlink="http://www.w3.org/1999/xlink" x="0px" y="0px"
	 width="1496px" height="1007.89px" viewBox="0 0 1496 1007.89" enable-background="new 0 0 1496 1007.89" xml:space="preserve">
<g>
	<rect x="209" y="702.333" fill="#A9FCDC" width="129.671" height="136.667"/>
</g>
<g>
	<rect x="340.92" y="702.333" fill="#A9FCDC" width="129.08" height="136.667"/>
</g>
<g>
	<rect x="209" y="563" fill="#A9FCDC" width="129.671" height="137.362"/>
</g>
<g>
	<rect x="340.92" y="563" fill="#A9FCDC" width="129.08" height="137.362"/>
</g>
<path fill="none" stroke="#A6A8AB" stroke-miterlimit="10" d="M43.669,404.479c-0.571,0-1.035-0.464-1.035-1.035V228.13
	c0-0.572,0.464-1.035,1.035-1.035h63.896c0.571,0,1.035,0.463,1.035,1.035v175.313c0,0.571-0.464,1.035-1.035,1.035H43.669z"/>
<circle fill="#A6A8AB" cx="76.577" cy="254.892" r="8.682"/>
<rect x="42.634" y="303.136" fill="#A6A8AB" width="65.731" height="20.535"/>
<rect x="59.279" y="276.882" fill="#E6E7E8" width="32.676" height="2.033"/>
<rect x="61.45" y="280.603" fill="#E6E7E8" width="28.335" height="2.033"/>
<line fill="none" stroke="#A6A8AB" stroke-miterlimit="10" x1="42.869" y1="323.671" x2="108.366" y2="323.671"/>
<line fill="none" stroke="#A6A8AB" stroke-miterlimit="10" x1="42.869" y1="394.333" x2="108.366" y2="394.333"/>
<line fill="#A6A8AB" x1="42.869" y1="359.43" x2="108.366" y2="359.43"/>
<line fill="#A6A8AB" x1="75.617" y1="323.671" x2="75.617" y2="394.333"/>
<rect x="53.702" y="271.095" fill="#A6A8AB" width="45.75" height="3.857"/>
<rect x="51.721" y="343.068" fill="#E6E7E8" width="16.279" height="1.633"/>
<rect x="52.802" y="346.056" fill="#E6E7E8" width="14.117" height="1.633"/>
<rect x="48.942" y="338.421" fill="#A6A8AB" width="22.792" height="3.098"/>
<rect x="82.594" y="343.082" fill="#E6E7E8" width="16.279" height="1.633"/>
<rect x="83.675" y="346.069" fill="#E6E7E8" width="14.117" height="1.633"/>
<rect x="79.815" y="338.435" fill="#A6A8AB" width="22.792" height="3.098"/>
<rect x="51.721" y="374.825" fill="#E6E7E8" width="16.279" height="1.634"/>
<rect x="52.802" y="377.813" fill="#E6E7E8" width="14.117" height="1.632"/>
<rect x="48.942" y="370.178" fill="#A6A8AB" width="22.792" height="3.098"/>
<rect x="82.594" y="374.84" fill="#E6E7E8" width="16.279" height="1.633"/>
<rect x="83.675" y="377.827" fill="#E6E7E8" width="14.117" height="1.632"/>
<rect x="79.815" y="370.191" fill="#A6A8AB" width="22.792" height="3.098"/>
<path fill="#FFFFFF" d="M102.607,313.403c0,1.828-1.013,3.309-2.263,3.309H51.205c-1.25,0-2.263-1.48-2.263-3.309l0,0
	c0-1.826,1.013-3.307,2.263-3.307h49.139C101.595,310.097,102.607,311.577,102.607,313.403L102.607,313.403z"/>
<g>
	<path fill="#A6A8AB" d="M98.383,311.837c-0.706,0-1.28,0.572-1.28,1.279c0,0.318,0.121,0.605,0.314,0.83l-0.902,0.9l0.351,0.352
		l0.944-0.945c0.173,0.088,0.366,0.143,0.573,0.143c0.705,0,1.279-0.576,1.279-1.279C99.662,312.409,99.088,311.837,98.383,311.837z
		 M98.383,313.897c-0.432,0-0.784-0.35-0.784-0.781c0-0.434,0.352-0.785,0.784-0.785c0.432,0,0.783,0.352,0.783,0.785
		C99.166,313.548,98.814,313.897,98.383,313.897z"/>
</g>
<path fill="#E6E7E8" d="M66.919,233.618c0,1.446-1.173,2.619-2.62,2.619H51.562c-1.447,0-2.62-1.173-2.62-2.619l0,0
	c0-1.447,1.173-2.62,2.62-2.62h12.736C65.746,230.998,66.919,232.171,66.919,233.618L66.919,233.618z"/>
<path fill="#E6E7E8" d="M103.235,233.618c0,1.446-1.173,2.619-2.62,2.619H87.879c-1.447,0-2.62-1.173-2.62-2.619l0,0
	c0-1.447,1.173-2.62,2.62-2.62h12.736C102.062,230.998,103.235,232.171,103.235,233.618L103.235,233.618z"/>
<g>
	<rect x="49.154" y="397.899" fill="#E6E7E8" width="3.734" height="3.735"/>
	<rect x="61.754" y="397.899" fill="#E6E7E8" width="3.734" height="3.735"/>
	<rect x="74.354" y="397.899" fill="#E6E7E8" width="3.734" height="3.735"/>
	<rect x="86.955" y="397.899" fill="#E6E7E8" width="3.734" height="3.735"/>
	<rect x="98.347" y="397.899" fill="#E6E7E8" width="3.734" height="3.735"/>
</g>
<path fill="none" stroke="#A6A8AB" stroke-miterlimit="10" d="M209.241,884.216c-2.33,0-4.225-1.894-4.225-4.225V231.319
	c0-2.336,1.895-4.225,4.225-4.225h260.775c2.33,0,4.223,1.889,4.223,4.225v648.672c0,2.331-1.893,4.225-4.223,4.225H209.241z"/>
<line fill="none" stroke="#A6A8AB" stroke-miterlimit="10" x1="205.973" y1="842.81" x2="473.28" y2="842.81"/>
<g>
	<rect x="205.017" y="224.218" fill="#333333" width="268.264" height="68.898"/>
	<path fill="#FFFFFF" d="M449.78,255.201c0,7.461-4.133,13.502-9.237,13.502H239.996c-5.101,0-9.234-6.041-9.234-13.502l0,0
		c0-7.453,4.133-13.496,9.234-13.496h200.547C445.646,241.705,449.78,247.748,449.78,255.201L449.78,255.201z"/>
	<g>
		<path fill="#A6A8AB" d="M432.538,248.808c-2.879,0-5.225,2.335-5.225,5.222c0,1.299,0.494,2.471,1.283,3.387l-3.681,3.676
			l1.431,1.434l3.854-3.857c0.707,0.358,1.492,0.582,2.337,0.582c2.877,0,5.219-2.352,5.219-5.221
			C437.757,251.143,435.416,248.808,432.538,248.808z M432.538,257.217c-1.764,0-3.198-1.426-3.198-3.188
			c0-1.77,1.435-3.205,3.198-3.205c1.762,0,3.194,1.436,3.194,3.205C435.732,255.791,434.3,257.217,432.538,257.217z"/>
	</g>
</g>
<path fill="#1BEDD4" d="M304.127,348.264c0,5.903-4.789,10.689-10.693,10.689h-51.979c-5.905,0-10.693-4.786-10.693-10.689l0,0
	c0-5.906,4.789-10.693,10.693-10.693h51.979C299.339,337.57,304.127,342.357,304.127,348.264L304.127,348.264z"/>
<path fill="#1BEDD4" d="M452.342,348.264c0,5.903-4.789,10.689-10.693,10.689h-51.979c-5.905,0-10.693-4.786-10.693-10.689l0,0
	c0-5.906,4.789-10.693,10.693-10.693h51.979C447.554,337.57,452.342,342.357,452.342,348.264L452.342,348.264z"/>
<text transform="matrix(1 0 0 1 251.0063 499.6787)" fill="#D9534F" font-family="'Roboto-Bold'" font-size="16">STARTUP SINGAPORE</text>
<text transform="matrix(1 0 0 1 393.1045 353.2129)" fill="#231F20" font-family="'OpenSans-CondensedBold'" font-size="13">SIGN UP</text>
<text transform="matrix(1 0 0 1 250.1167 353.2129)" fill="#231F20" font-family="'OpenSans-CondensedBold'" font-size="13">LOGIN</text>
<text transform="matrix(1 0 0 1 265.2764 519.8276)"><tspan x="0" y="0" fill="#888888" font-family="'OpenSans-Bold'" font-size="10">Artisanal filler text for </tspan><tspan x="14.546" y="12" fill="#888888" font-family="'OpenSans-Bold'" font-size="10">your site or project.</tspan></text>
<g>
	<text transform="matrix(1 0 0 1 232.7422 641.7012)"><tspan x="0" y="0" fill="#58595B" font-family="'RobotoCondensed-Bold'" font-size="15">coworking</tspan><tspan x="14.579" y="18" fill="#58595B" font-family="'RobotoCondensed-Bold'" font-size="15">spaces</tspan></text>
</g>
<g>
	<text transform="matrix(1 0 0 1 380.7134 651.4668)" fill="#58595B" font-family="'RobotoCondensed-Bold'" font-size="15">events</text>
</g>
<g>
	<text transform="matrix(1 0 0 1 227.0957 781.667)"><tspan x="0" y="0" fill="#58595B" font-family="'RobotoCondensed-Bold'" font-size="15">INCUBATORS/</tspan><tspan x="8.415" y="18" fill="#58595B" font-family="'RobotoCondensed-Bold'" font-size="15">INVESTORS</tspan></text>
</g>
<g>
	<text transform="matrix(1 0 0 1 386.4497 781.667)"><tspan x="0" y="0" fill="#58595B" font-family="'RobotoCondensed-Bold'" font-size="15">GOVT </tspan><tspan x="-17.777" y="18" fill="#58595B" font-family="'RobotoCondensed-Bold'" font-size="15">PROGRAMS</tspan></text>
</g>
<g>
	<text transform="matrix(1 0 0 1 253.9556 258.6665)" fill="#A6A8AB" font-family="'OpenSans-Bold'" font-size="9">SEARCH THE SG STARTUP SCENE</text>
</g>
<g>
	<path fill="none" stroke="#A6A8AB" stroke-miterlimit="10" d="M1042.037,502.839c0,7.461-4.133,13.503-9.236,13.503H832.254
		c-5.102,0-9.234-6.042-9.234-13.503l0,0c0-7.453,4.133-13.494,9.234-13.494h200.547
		C1037.904,489.345,1042.037,495.386,1042.037,502.839L1042.037,502.839z"/>
	<g>
		<path fill="#A6A8AB" d="M1024.796,496.446c-2.88,0-5.226,2.336-5.226,5.221c0,1.3,0.494,2.472,1.283,3.389l-3.68,3.674
			l1.431,1.436l3.854-3.858c0.707,0.358,1.492,0.582,2.337,0.582c2.878,0,5.22-2.352,5.22-5.222
			C1030.016,498.782,1027.674,496.446,1024.796,496.446z M1024.796,504.856c-1.764,0-3.198-1.428-3.198-3.189
			c0-1.77,1.435-3.204,3.198-3.204c1.762,0,3.194,1.435,3.194,3.204C1027.99,503.429,1026.558,504.856,1024.796,504.856z"/>
	</g>
</g>
<g>
	<text transform="matrix(1 0 0 1 846.2134 506.3052)" fill="#A6A8AB" font-family="'OpenSans-Bold'" font-size="9">SEARCH THE SG STARTUP SCENE</text>
</g>
<g>
	<g>
		<path fill="#888888" d="M292.553,867.681c-0.331,0-0.661-0.082-0.96-0.245l-10.691-5.851c-0.641-0.352-1.04-1.024-1.04-1.755
			s0.398-1.403,1.04-1.755l10.691-5.852c0.599-0.326,1.322-0.326,1.921,0l10.691,5.852c0.641,0.352,1.04,1.024,1.04,1.755
			s-0.399,1.403-1.04,1.755l-10.691,5.851C293.214,867.599,292.883,867.681,292.553,867.681z M286.028,859.83l6.525,3.57l6.525-3.57
			l-6.525-3.571L286.028,859.83z"/>
	</g>
	<g>
		<path fill="#888888" d="M292.553,875.396c-1.104,0-2-0.896-2-2v-7.715c0-1.104,0.896-2,2-2s2,0.896,2,2v7.715
			C294.553,874.5,293.657,875.396,292.553,875.396z"/>
	</g>
	<g>
		<path fill="#888888" d="M303.244,869.544c-1.104,0-2-0.896-2-2v-7.714c0-1.104,0.896-2,2-2s2,0.896,2,2v7.714
			C305.244,868.648,304.348,869.544,303.244,869.544z"/>
	</g>
	<g>
		<path fill="#888888" d="M281.862,869.544c-1.104,0-2-0.896-2-2v-7.714c0-1.104,0.896-2,2-2s2,0.896,2,2v7.714
			C283.862,868.648,282.966,869.544,281.862,869.544z"/>
	</g>
</g>
<g>
	<g>
		<path fill="#D9534F" d="M274,614.349c-0.331,0-0.661-0.082-0.96-0.245l-10.691-5.851c-0.641-0.352-1.04-1.024-1.04-1.755
			s0.398-1.403,1.04-1.755l10.691-5.852c0.599-0.326,1.322-0.326,1.921,0l10.691,5.852c0.641,0.352,1.04,1.024,1.04,1.755
			s-0.399,1.403-1.04,1.755l-10.691,5.851C274.661,614.267,274.331,614.349,274,614.349z M267.475,606.498l6.525,3.57l6.525-3.57
			L274,602.927L267.475,606.498z"/>
	</g>
	<g>
		<path fill="#D9534F" d="M274,622.063c-1.104,0-2-0.896-2-2v-7.715c0-1.104,0.896-2,2-2s2,0.896,2,2v7.715
			C276,621.168,275.104,622.063,274,622.063z"/>
	</g>
	<g>
		<path fill="#D9534F" d="M284.691,616.212c-1.104,0-2-0.896-2-2v-7.714c0-1.104,0.896-2,2-2s2,0.896,2,2v7.714
			C286.691,615.316,285.795,616.212,284.691,616.212z"/>
	</g>
	<g>
		<path fill="#D9534F" d="M263.309,616.212c-1.104,0-2-0.896-2-2v-7.714c0-1.104,0.896-2,2-2s2,0.896,2,2v7.714
			C265.309,615.316,264.414,616.212,263.309,616.212z"/>
	</g>
</g>
<g>
	<g>
		<path fill="#888888" d="M354.875,873.212h-19.064c-1.104,0-2-0.896-2-2v-15.051c0-1.104,0.896-2,2-2h19.064c1.104,0,2,0.896,2,2
			v15.051C356.875,872.316,355.979,873.212,354.875,873.212z M337.811,869.212h15.064v-11.051h-15.064V869.212z"/>
	</g>
	<rect x="335.811" y="856.161" fill="#888888" width="19.064" height="4.051"/>
	<g>
		<circle fill="#888888" cx="339.979" cy="866.764" r="1.175"/>
		<circle fill="#888888" cx="343.622" cy="866.764" r="1.175"/>
		<circle fill="#888888" cx="347.265" cy="866.764" r="1.175"/>
		<circle fill="#888888" cx="350.908" cy="866.764" r="1.175"/>
	</g>
	<g>
		<circle fill="#888888" cx="339.878" cy="863.171" r="1.175"/>
		<circle fill="#888888" cx="343.521" cy="863.171" r="1.175"/>
		<circle fill="#888888" cx="347.165" cy="863.171" r="1.175"/>
		<circle fill="#888888" cx="350.807" cy="863.171" r="1.175"/>
	</g>
</g>
<g>
	<g>
		<path fill="#D9534F" d="M416.532,620.049h-19.064c-1.104,0-2-0.896-2-2v-15.051c0-1.104,0.896-2,2-2h19.064c1.104,0,2,0.896,2,2
			v15.051C418.532,619.153,417.637,620.049,416.532,620.049z M399.468,616.049h15.064v-11.051h-15.064V616.049z"/>
	</g>
	<rect x="397.468" y="602.998" fill="#D9534F" width="19.064" height="4.051"/>
	<g>
		<circle fill="#D9534F" cx="401.636" cy="613.601" r="1.175"/>
		<circle fill="#D9534F" cx="405.279" cy="613.601" r="1.175"/>
		<circle fill="#D9534F" cx="408.922" cy="613.601" r="1.175"/>
		<circle fill="#D9534F" cx="412.565" cy="613.601" r="1.175"/>
	</g>
	<g>
		<circle fill="#D9534F" cx="401.536" cy="610.008" r="1.175"/>
		<circle fill="#D9534F" cx="405.178" cy="610.008" r="1.175"/>
		<circle fill="#D9534F" cx="408.822" cy="610.008" r="1.175"/>
		<circle fill="#D9534F" cx="412.464" cy="610.008" r="1.175"/>
	</g>
</g>
<path fill="#888888" d="M403.614,872.713l-3.889-10.335v-8.421c0-1.104-0.896-2-2-2h-4.647c-1.104,0-2,0.896-2,2v8.422
	l-3.888,10.334c-0.231,0.614-0.146,1.303,0.228,1.843c0.374,0.539,0.988,0.861,1.645,0.861h12.68c0.656,0,1.271-0.322,1.645-0.861
	C403.76,874.016,403.845,873.327,403.614,872.713z M395.725,855.957v5.729h-0.647v-5.729H395.725z M391.951,871.417l2.156-5.73
	h2.589l2.156,5.73H391.951z"/>
<path fill="#D9534F" d="M280.056,756.864l-3.889-10.335v-8.421c0-1.104-0.896-2-2-2h-4.647c-1.104,0-2,0.896-2,2v8.422
	l-3.888,10.334c-0.231,0.614-0.146,1.303,0.228,1.843c0.374,0.539,0.988,0.861,1.645,0.861h12.68c0.656,0,1.271-0.322,1.645-0.861
	C280.202,758.167,280.287,757.479,280.056,756.864z M272.167,740.108v5.729h-0.647v-5.729H272.167z M268.393,755.568l2.156-5.73
	h2.589l2.156,5.73H268.393z"/>
<g>
	<g>
		<g>
			<path fill="#888888" d="M438.837,867.619c-0.08-0.122-0.126-0.252-0.14-0.395c-0.013-0.143,0.011-0.272,0.073-0.39
				c0.062-0.116,0.155-0.21,0.279-0.279c0.124-0.069,0.283-0.09,0.477-0.065c0.106,0.008,0.201,0.036,0.286,0.085
				c0.084,0.048,0.166,0.105,0.245,0.169c0.08,0.066,0.157,0.13,0.232,0.194c0.076,0.066,0.153,0.122,0.232,0.171
				c0.045,0.024,0.098,0.051,0.16,0.079c0.062,0.027,0.204,0.082,0.16,0.067c2.065,0.775,2.715,0.063,2.599-0.527
				c-0.117-0.591-3.339-1.651-3.701-1.854c-0.363-0.203-0.655-0.474-0.876-0.813c-0.204-0.315-0.276-0.631-0.219-0.94
				c0.058-0.312,0.196-0.6,0.418-0.862c0.221-0.264,0.495-0.486,0.822-0.669c0.327-0.183,0.654-0.297,0.981-0.348
				c0-0.097,0-0.204,0-0.321s0.006-0.232,0.021-0.345c0.013-0.115,0.04-0.225,0.079-0.329c0.04-0.105,0.1-0.198,0.18-0.28
				c0.088-0.096,0.19-0.157,0.305-0.187c0.115-0.028,0.226-0.031,0.332-0.008c0.106,0.025,0.205,0.071,0.298,0.143
				c0.093,0.068,0.166,0.157,0.219,0.271c0.08,0.179,0.12,0.36,0.12,0.548c0,0.186,0,0.372,0,0.56
				c0.248,0.057,0.504,0.125,0.77,0.205c0.265,0.082,0.495,0.202,0.69,0.366c0.124,0.096,0.219,0.207,0.285,0.332
				c0.066,0.126,0.095,0.244,0.086,0.358c-0.009,0.114-0.061,0.217-0.153,0.311c-0.093,0.093-0.237,0.156-0.431,0.188
				c-0.116,0.015-0.226,0.015-0.332,0c-0.106-0.016-0.211-0.042-0.312-0.08c-0.102-0.034-0.206-0.066-0.304-0.115
				c-1.133-0.563-2.487-0.507-2.661,0.31c-0.233,1.093,0.948,0.861,2.335,1.307c0.393,0.127,0.754,0.282,1.095,0.438
				c0.34,0.153,0.648,0.376,0.922,0.667c0.15,0.163,0.256,0.357,0.319,0.584c0.062,0.227,0.082,0.457,0.06,0.691
				c-0.022,0.235-0.084,0.461-0.186,0.675c-0.102,0.214-0.241,0.391-0.418,0.528c-0.266,0.21-0.549,0.376-0.849,0.498
				c-0.301,0.121-0.62,0.219-0.956,0.291c0,0.114,0.002,0.248,0.006,0.4c0.005,0.155-0.006,0.292-0.033,0.413
				c-0.026,0.13-0.093,0.242-0.199,0.335c-0.106,0.092-0.228,0.158-0.365,0.193c-0.137,0.037-0.276,0.039-0.417,0.007
				c-0.142-0.032-0.26-0.109-0.358-0.232c-0.133-0.161-0.197-0.352-0.193-0.569c0.005-0.22,0.007-0.421,0.007-0.607
				c-0.398-0.089-0.766-0.234-1.102-0.437S439.094,867.903,438.837,867.619z"/>
			<path fill="#888888" d="M441.569,870.717c-0.103,0-0.206-0.012-0.309-0.035c-0.253-0.058-0.468-0.194-0.638-0.408
				c-0.202-0.244-0.309-0.555-0.302-0.891c0.002-0.075,0.003-0.146,0.004-0.217c-0.303-0.099-0.589-0.229-0.856-0.389
				c-0.378-0.228-0.715-0.505-1.002-0.823c-0.171-0.252-0.245-0.46-0.266-0.682c-0.022-0.242,0.021-0.468,0.129-0.671
				c0.107-0.204,0.269-0.366,0.478-0.482c0.214-0.12,0.47-0.166,0.783-0.125c0.155,0.011,0.323,0.062,0.473,0.148
				c0.104,0.059,0.207,0.131,0.307,0.211l0.247,0.206c0.057,0.05,0.112,0.09,0.168,0.124l0.285,0.123
				c0.516,0.189,0.971,0.289,1.319,0.289c0.382,0,0.505-0.114,0.534-0.148c0.01-0.013,0.042-0.051,0.027-0.122
				c-0.211-0.239-2.055-0.952-2.661-1.187c-0.395-0.152-0.694-0.272-0.794-0.328c-0.433-0.243-0.786-0.571-1.05-0.978
				c-0.275-0.427-0.373-0.865-0.292-1.305c0.073-0.397,0.251-0.766,0.528-1.094c0.257-0.307,0.581-0.57,0.96-0.782
				c0.237-0.133,0.48-0.236,0.726-0.31c0.002-0.112,0.01-0.222,0.023-0.33c0.017-0.149,0.054-0.301,0.107-0.443
				c0.064-0.17,0.162-0.322,0.29-0.453c0.143-0.155,0.328-0.268,0.54-0.321c0.196-0.049,0.384-0.052,0.562-0.012
				c0.185,0.044,0.348,0.122,0.494,0.233c0.155,0.114,0.281,0.27,0.368,0.457c0.111,0.248,0.167,0.502,0.167,0.759v0.168
				c0.136,0.036,0.274,0.075,0.415,0.118c0.334,0.104,0.625,0.259,0.867,0.462c0.163,0.125,0.304,0.291,0.405,0.48
				c0.111,0.212,0.159,0.422,0.144,0.629c-0.019,0.233-0.121,0.448-0.295,0.625c-0.172,0.172-0.409,0.282-0.706,0.331
				c-0.201,0.026-0.334,0.023-0.482,0.002c-0.147-0.021-0.287-0.058-0.419-0.107c-0.134-0.044-0.245-0.083-0.351-0.136
				c-0.408-0.202-0.868-0.319-1.26-0.319c-0.105,0-0.631,0.014-0.689,0.286c-0.029,0.137-0.017,0.197-0.012,0.207
				c0.059,0.093,0.547,0.186,0.839,0.241c0.349,0.066,0.745,0.141,1.171,0.278c0.435,0.14,0.825,0.311,1.15,0.458
				c0.397,0.18,0.761,0.441,1.079,0.779c0.207,0.225,0.353,0.49,0.437,0.794c0.078,0.286,0.103,0.578,0.076,0.871
				c-0.027,0.291-0.105,0.574-0.231,0.842c-0.137,0.286-0.326,0.524-0.563,0.709c-0.298,0.236-0.625,0.428-0.968,0.566
				c-0.206,0.083-0.419,0.155-0.638,0.218c0.006,0.194-0.009,0.369-0.045,0.532c-0.045,0.226-0.169,0.438-0.357,0.603
				c-0.171,0.147-0.362,0.248-0.571,0.302C441.806,870.701,441.688,870.717,441.569,870.717z M439.465,866.986l-0.171,0.006
				c-0.05,0.028-0.069,0.056-0.081,0.077c-0.011,0.021-0.022,0.051-0.017,0.109c0.005,0.06,0.024,0.112,0.061,0.167
				c0.174,0.185,0.435,0.398,0.728,0.574c0.288,0.174,0.608,0.301,0.953,0.377l0.391,0.088v0.4c0,0.189-0.002,0.395-0.007,0.618
				c-0.002,0.098,0.022,0.172,0.078,0.24l0.17,0.073c0.03,0,0.06-0.004,0.089-0.012c0.065-0.017,0.119-0.046,0.169-0.09
				c0.055-0.145,0.062-0.242,0.059-0.354c-0.005-0.159-0.007-0.298-0.007-0.416v-0.403l0.395-0.086
				c0.305-0.065,0.599-0.154,0.875-0.266c0.254-0.104,0.499-0.247,0.726-0.427c0.118-0.092,0.208-0.206,0.277-0.351
				c0.076-0.16,0.123-0.331,0.139-0.507c0.017-0.175,0.002-0.343-0.044-0.514c-0.041-0.148-0.108-0.271-0.204-0.376
				c-0.224-0.238-0.48-0.424-0.76-0.55c-0.3-0.137-0.658-0.293-1.043-0.418c-0.366-0.117-0.73-0.187-1.05-0.247
				c-0.639-0.121-1.19-0.226-1.486-0.671c-0.171-0.257-0.216-0.583-0.134-0.969c0.144-0.674,0.767-1.077,1.667-1.077
				c0.55,0,1.156,0.151,1.706,0.425c0.064,0.031,0.131,0.052,0.198,0.074c0.125,0.045,0.196,0.062,0.269,0.073
				c0.123,0.007,0.16,0.004,0.196-0.001c0.105-0.018,0.143-0.048,0.143-0.048c-0.058-0.143-0.106-0.198-0.173-0.25
				c-0.158-0.132-0.327-0.221-0.532-0.284c-0.25-0.075-0.497-0.141-0.733-0.195l-0.389-0.089v-0.958
				c0-0.117-0.025-0.229-0.076-0.344c-0.014-0.028-0.032-0.052-0.059-0.072c-0.042-0.032-0.078-0.049-0.119-0.059l-0.005,0.006
				l-0.157,0.052c-0.032,0.032-0.055,0.067-0.07,0.108c-0.025,0.065-0.041,0.134-0.05,0.208c-0.012,0.098-0.017,0.192-0.017,0.288
				v0.75l-0.423,0.065c-0.271,0.042-0.545,0.14-0.814,0.29c-0.273,0.152-0.503,0.338-0.683,0.554
				c-0.167,0.197-0.268,0.403-0.31,0.632c-0.034,0.184,0.014,0.372,0.147,0.578c0.176,0.271,0.406,0.483,0.7,0.648
				c0.089,0.049,0.34,0.143,0.667,0.269c2.436,0.942,3.172,1.374,3.281,1.926c0.067,0.34-0.02,0.687-0.236,0.95
				c-0.193,0.234-0.576,0.514-1.307,0.514c-0.485,0-1.065-0.125-1.723-0.372l0.093-0.262l-0.112,0.253l-0.167-0.069
				c-0.081-0.036-0.144-0.067-0.197-0.097c-0.126-0.077-0.225-0.148-0.323-0.234l-0.187-0.157c-0.086-0.069-0.146-0.112-0.208-0.147
				L439.465,866.986z"/>
		</g>
	</g>
	<g>
		<path fill="#888888" d="M444.054,875.333c-0.394,0.021-0.843-0.006-1.29-0.014c-0.451-0.008-0.919-0.016-1.404-0.016
			c-2.683,0-9.809,0-9.809-6.987c0-2.859,0.95-6.516,3.011-8.646c-0.381-1.817-0.832-4.595-0.511-5.556
			c0.257-0.771,1.012-1.596,2.358-1.596c0.451,0,0.889,0.088,1.353,0.181c0.378,0.075,0.806,0.161,1.112,0.161
			c0.112,0,0.158-0.013,0.159-0.013c1.107-0.369,2.253-0.581,3.138-0.581c0.584,0,1.096,0.092,1.531,0.273
			c0.098-0.029,0.208-0.063,0.298-0.091c0.631-0.191,1.346-0.408,2.097-0.408c0.531,0,1.016,0.111,1.441,0.331
			c1.129,0.587,1.994,1.815,0.881,6.571c2.749,2.717,3.908,8.625,3.274,11.237C450.448,875.318,446.298,875.333,444.054,875.333z
			 M438.71,859.979c0.187,0.807-0.145,1.669-0.87,2.134c-1.262,0.809-2.288,3.592-2.288,6.203c0,1.749,0.417,2.987,5.809,2.987
			c0.507,0,0.997,0.008,1.469,0.016c0.417,0.007,0.819,0.014,1.205,0.014c0,0,0,0,0.001,0c2.775,0,3.338-0.313,3.771-2.096
			c0.448-1.845-1.062-6.993-2.525-7.704c-0.865-0.42-1.309-1.396-1.056-2.324c0.262-0.965,0.481-2.011,0.606-2.833
			c-0.448,0.131-0.908,0.242-1.373,0.242c-0.561,0-0.991-0.157-1.31-0.352c-0.454,0.005-1.178,0.152-1.856,0.378
			c-0.645,0.214-1.446,0.252-2.17,0.17C438.287,857.838,438.519,859.076,438.71,859.979z"/>
	</g>
</g>
<g>
	<path fill="#D9534F" d="M410.814,749.383c-0.318-0.338-0.681-0.6-1.079-0.779c-0.325-0.147-0.715-0.318-1.15-0.458
		c-0.426-0.138-0.822-0.212-1.171-0.278c-0.292-0.056-0.781-0.148-0.839-0.241c-0.005-0.01-0.018-0.07,0.012-0.207
		c0.058-0.272,0.584-0.286,0.689-0.286c0.393,0,0.852,0.117,1.26,0.319c0.106,0.053,0.217,0.092,0.351,0.136
		c0.133,0.05,0.272,0.086,0.419,0.107c0.148,0.021,0.281,0.024,0.482-0.002c0.297-0.049,0.533-0.159,0.706-0.331
		c0.174-0.177,0.276-0.392,0.295-0.625c0.015-0.207-0.033-0.417-0.144-0.629c-0.101-0.189-0.242-0.355-0.405-0.48
		c-0.243-0.203-0.533-0.358-0.867-0.462c-0.141-0.043-0.279-0.082-0.415-0.118v-0.168c0-0.257-0.055-0.511-0.167-0.759
		c-0.087-0.188-0.213-0.343-0.368-0.457c-0.146-0.111-0.309-0.189-0.494-0.233c-0.179-0.04-0.367-0.037-0.562,0.012
		c-0.212,0.054-0.397,0.166-0.54,0.321c-0.128,0.131-0.225,0.283-0.29,0.453c-0.054,0.143-0.09,0.294-0.107,0.443
		c-0.014,0.108-0.021,0.218-0.023,0.33c-0.246,0.073-0.489,0.177-0.726,0.31c-0.38,0.212-0.704,0.476-0.96,0.782
		c-0.277,0.328-0.455,0.696-0.528,1.094c-0.082,0.439,0.016,0.878,0.292,1.305c0.264,0.406,0.618,0.734,1.05,0.978
		c0.1,0.056,0.399,0.176,0.794,0.328c0.606,0.234,2.449,0.947,2.661,1.187c0.014,0.071-0.017,0.109-0.027,0.122
		c-0.029,0.034-0.152,0.148-0.534,0.148c-0.348,0-0.803-0.1-1.319-0.289l-0.285-0.123c-0.056-0.034-0.111-0.074-0.168-0.124
		l-0.247-0.206c-0.101-0.08-0.204-0.152-0.307-0.211c-0.15-0.087-0.318-0.138-0.473-0.148c-0.313-0.041-0.569,0.005-0.783,0.125
		c-0.209,0.116-0.371,0.278-0.478,0.482c-0.108,0.203-0.151,0.429-0.129,0.671c0.021,0.222,0.095,0.43,0.266,0.682
		c0.288,0.318,0.625,0.596,1.002,0.823c0.267,0.16,0.554,0.29,0.856,0.389c-0.001,0.07-0.002,0.142-0.004,0.217
		c-0.007,0.336,0.1,0.646,0.302,0.891c0.17,0.214,0.385,0.351,0.638,0.408c0.103,0.023,0.206,0.035,0.309,0.035
		c0.118,0,0.236-0.016,0.344-0.045c0.208-0.054,0.399-0.154,0.571-0.302c0.188-0.165,0.312-0.377,0.357-0.603
		c0.036-0.163,0.051-0.338,0.045-0.532c0.219-0.062,0.432-0.135,0.638-0.218c0.343-0.139,0.669-0.33,0.968-0.566
		c0.237-0.185,0.426-0.423,0.563-0.709c0.126-0.268,0.204-0.551,0.231-0.842c0.027-0.293,0.002-0.585-0.076-0.871
		C411.167,749.873,411.021,749.607,410.814,749.383z"/>
	<path fill="#D9534F" d="M414.46,743.091c1.113-4.756,0.249-5.984-0.881-6.571c-0.425-0.22-0.91-0.331-1.441-0.331
		c-0.751,0-1.466,0.217-2.097,0.408c-0.09,0.027-0.201,0.062-0.298,0.091c-0.435-0.182-0.947-0.273-1.531-0.273
		c-0.885,0-2.031,0.212-3.138,0.581c0,0-0.047,0.013-0.159,0.013c-0.307,0-0.734-0.086-1.112-0.161
		c-0.464-0.093-0.902-0.181-1.353-0.181c-1.346,0-2.101,0.824-2.358,1.596c-0.32,0.961,0.13,3.738,0.511,5.556
		c-2.061,2.131-3.011,5.787-3.011,8.646c0,6.987,7.126,6.987,9.809,6.987c0.484,0,0.953,0.008,1.404,0.016
		c0.446,0.008,0.896,0.034,1.29,0.014c2.244,0,6.394-0.015,7.64-5.152C418.368,751.716,417.209,745.808,414.46,743.091z
		 M413.847,753.385c-0.432,1.782-0.996,2.096-3.771,2.096c0,0,0,0-0.001,0c-0.386,0-0.788-0.007-1.205-0.014
		c-0.472-0.008-0.962-0.016-1.469-0.016c-5.393,0-5.809-1.238-5.809-2.987c0-2.611,1.026-5.395,2.288-6.203
		c0.725-0.465,1.057-1.327,0.87-2.134c-0.191-0.903-0.423-2.142-0.587-3.165c0.724,0.082,1.525,0.044,2.17-0.17
		c0.678-0.226,1.403-0.373,1.856-0.378c0.318,0.194,0.749,0.352,1.31,0.352c0.465,0,0.925-0.111,1.373-0.242
		c-0.125,0.822-0.344,1.868-0.606,2.833c-0.252,0.928,0.191,1.904,1.056,2.324C412.785,746.392,414.294,751.54,413.847,753.385z"/>
</g>
<path fill="#888888" d="M251.287,860.076l-9.12-7.482c-0.737-0.604-1.637-0.907-2.537-0.907c-0.873,0-1.747,0.285-2.473,0.855
	l-9.513,7.482c-1.34,1.055-1.865,2.842-1.307,4.453c0.488,1.411,1.714,2.416,3.157,2.643v4.566c0,2.209,1.791,4,4,4h11.879
	c2.209,0,4-1.791,4-4v-4.566c1.429-0.225,2.645-1.212,3.143-2.604C253.085,862.925,252.593,861.148,251.287,860.076z
	 M233.494,871.687v-4.562h11.879v4.562H233.494z M247.135,863.169v-0.045h-16.962l9.456-7.438l9.12,7.482H247.135z"/>
<g>
	<rect x="937.09" y="563.475" fill="#A9FCDC" width="203.157" height="186.763"/>
</g>
<g>
	<rect x="1143.77" y="563.475" fill="#A9FCDC" width="202.23" height="186.763"/>
</g>
<g>
	<rect x="523.039" y="563" fill="#A9FCDC" width="203.157" height="187.713"/>
</g>
<g>
	<rect x="729.719" y="563" fill="#A9FCDC" width="202.23" height="187.713"/>
</g>
<path fill="none" stroke="#A6A8AB" stroke-miterlimit="10" d="M523.809,884.216c-2.621,0-4.753-1.894-4.753-4.225V231.319
	c0-2.336,2.132-4.225,4.753-4.225h817.44c2.621,0,4.751,1.889,4.751,4.225v648.672c0,2.331-2.13,4.225-4.751,4.225H523.809z"/>
<path fill="#E6E7E8" d="M1235.438,253.718c0,5.903-4.788,10.689-10.693,10.689h-51.979c-5.904,0-10.693-4.786-10.693-10.689l0,0
	c0-5.906,4.789-10.693,10.693-10.693h51.979C1230.65,243.024,1235.438,247.812,1235.438,253.718L1235.438,253.718z"/>
<path fill="#E6E7E8" d="M1319.653,253.718c0,5.903-4.788,10.689-10.693,10.689h-51.979c-5.905,0-10.693-4.786-10.693-10.689l0,0
	c0-5.906,4.788-10.693,10.693-10.693h51.979C1314.865,243.024,1319.653,247.812,1319.653,253.718L1319.653,253.718z"/>
<g>
	<polygon fill="none" stroke="#E6E7E8" stroke-width="5" stroke-linejoin="round" stroke-miterlimit="10" points="897.373,339.864 
		898.555,308.325 926.46,293.577 953.184,310.372 952.002,341.911 924.097,356.659 	"/>
	<rect x="859.006" y="316.474" fill="#FFFFFF" width="142.713" height="17.289"/>
	<text transform="matrix(1 0 0 1 874.4399 330.2158)"><tspan x="0" y="0" fill="#58595B" font-family="'OpenSans-Bold'" font-size="14.4281">STARTUPS.</tspan><tspan x="82.656" y="0" fill="#58595B" font-family="'OpenSans-Light'" font-size="14.4281">SG</tspan></text>
</g>
<g>
	
		<text transform="matrix(1 0 0 1 786.6494 405.1328)" fill="#58595B" font-family="'Roboto-Bold'" font-size="26" letter-spacing="1">STARTUP SINGAPORE</text>
</g>
<text transform="matrix(1 0 0 1 1260.416 258.667)" fill="#231F20" font-family="'OpenSans-CondensedBold'" font-size="13">SIGN UP</text>
<text transform="matrix(1 0 0 1 1181.4282 258.667)" fill="#231F20" font-family="'OpenSans-CondensedBold'" font-size="13">LOGIN</text>
<text transform="matrix(1 0 0 1 856.0083 425.2817)"><tspan x="0" y="0" fill="#A6A8AB" font-family="'OpenSans-Bold'" font-size="10">Artisanal filler text for </tspan><tspan x="14.546" y="12" fill="#A6A8AB" font-family="'OpenSans-Bold'" font-size="10">your site or project.</tspan></text>
<g>
	<text transform="matrix(1 0 0 1 570.0928 670.5508)"><tspan x="0" y="0" fill="#58595B" font-family="'RobotoCondensed-Bold'" font-size="20.4983" letter-spacing="1">coworking</tspan><tspan x="19.924" y="24.598" fill="#58595B" font-family="'RobotoCondensed-Bold'" font-size="20.4983" letter-spacing="1">spaces</tspan></text>
</g>
<g>
	<text transform="matrix(1 0 0 1 808.9434 670.5508)"><tspan x="0" y="0" fill="#58595B" font-family="'RobotoCondensed-Bold'" font-size="20.4983" letter-spacing="1">TECH</tspan><tspan x="-11.654" y="24.598" fill="#58595B" font-family="'RobotoCondensed-Bold'" font-size="20.4983" letter-spacing="1">events</tspan></text>
</g>
<g>
	<text transform="matrix(1 0 0 1 871.8066 870.2168)" fill="#A6A8AB" font-family="'OpenSans-Bold'" font-size="10">COPYRIGHT FOOTER</text>
</g>
<g>
	<text transform="matrix(1 0 0 1 973.0928 671.8906)"><tspan x="0" y="0" fill="#58595B" font-family="'RobotoCondensed-Bold'" font-size="20.4983" letter-spacing="1">INCUBATORS/</tspan><tspan x="11.5" y="24.598" fill="#58595B" font-family="'RobotoCondensed-Bold'" font-size="20.4983" letter-spacing="1">INVESTORS</tspan></text>
</g>
<g>
	<text transform="matrix(1 0 0 1 1226.2285 671.8906)"><tspan x="0" y="0" fill="#58595B" font-family="'RobotoCondensed-Bold'" font-size="20.4983" letter-spacing="1">GOVT</tspan><tspan x="-27.168" y="24.598" fill="#58595B" font-family="'RobotoCondensed-Bold'" font-size="20.4983" letter-spacing="1">PROGRAMS</tspan></text>
</g>
<g>
	<g>
		<path fill="#A6A8AB" d="M626.475,633.171c-0.452,0-0.903-0.112-1.312-0.335l-14.609-7.995c-0.876-0.48-1.421-1.4-1.421-2.398
			s0.544-1.918,1.421-2.398l14.609-7.996c0.817-0.446,1.807-0.446,2.625,0l14.609,7.996c0.877,0.48,1.422,1.4,1.422,2.398
			s-0.546,1.918-1.423,2.398l-14.609,7.995C627.378,633.059,626.926,633.171,626.475,633.171z M617.558,622.442l8.917,4.879
			l8.916-4.879l-8.916-4.88L617.558,622.442z"/>
	</g>
	<g>
		<path fill="#A6A8AB" d="M626.475,643.713c-1.51,0-2.733-1.224-2.733-2.732v-10.543c0-1.51,1.224-2.733,2.733-2.733
			c1.509,0,2.732,1.224,2.732,2.733v10.543C629.207,642.489,627.983,643.713,626.475,643.713z"/>
	</g>
	<g>
		<path fill="#A6A8AB" d="M641.085,635.717c-1.511,0-2.733-1.224-2.733-2.733v-10.541c0-1.51,1.223-2.733,2.733-2.733
			c1.508,0,2.733,1.224,2.733,2.733v10.541C643.818,634.493,642.593,635.717,641.085,635.717z"/>
	</g>
	<g>
		<path fill="#A6A8AB" d="M611.864,635.717c-1.509,0-2.732-1.224-2.732-2.733v-10.541c0-1.51,1.224-2.733,2.732-2.733
			c1.51,0,2.733,1.224,2.733,2.733v10.541C614.598,634.493,613.374,635.717,611.864,635.717z"/>
	</g>
</g>
<g>
	<g>
		<path fill="#A6A8AB" d="M846.236,640.96h-26.053c-1.509,0-2.732-1.224-2.732-2.732v-20.568c0-1.509,1.224-2.732,2.732-2.732
			h26.053c1.51,0,2.733,1.224,2.733,2.732v20.568C848.97,639.736,847.746,640.96,846.236,640.96z M822.917,635.494h20.587v-15.102
			h-20.587V635.494z"/>
	</g>
	<rect x="820.184" y="617.659" fill="#A6A8AB" width="26.053" height="5.536"/>
	<g>
		<circle fill="#A6A8AB" cx="825.88" cy="632.148" r="1.605"/>
		<circle fill="#A6A8AB" cx="830.857" cy="632.148" r="1.605"/>
		<circle fill="#A6A8AB" cx="835.837" cy="632.148" r="1.605"/>
		<circle fill="#A6A8AB" cx="840.815" cy="632.148" r="1.605"/>
	</g>
	<g>
		<circle fill="#A6A8AB" cx="825.744" cy="627.238" r="1.605"/>
		<circle fill="#A6A8AB" cx="830.722" cy="627.238" r="1.605"/>
		<circle fill="#A6A8AB" cx="835.7" cy="627.238" r="1.605"/>
		<circle fill="#A6A8AB" cx="840.677" cy="627.238" r="1.605"/>
	</g>
</g>
<path fill="#A6A8AB" d="M1045.466,637.995l-5.313-14.123v-11.508c0-1.51-1.223-2.733-2.733-2.733h-6.35
	c-1.511,0-2.733,1.224-2.733,2.733v11.509l-5.313,14.122c-0.315,0.839-0.2,1.78,0.311,2.519c0.512,0.736,1.351,1.177,2.247,1.177
	h17.329c0.896,0,1.736-0.44,2.247-1.177C1045.666,639.775,1045.782,638.834,1045.466,637.995z M1034.686,615.098v7.829h-0.883
	v-7.829H1034.686z M1029.529,636.224l2.946-7.831h3.537l2.946,7.831H1029.529z"/>
<g>
	<g>
		<g>
			<path fill="#A6A8AB" d="M1248.535,631.028c-0.108-0.166-0.171-0.344-0.189-0.539c-0.019-0.194,0.015-0.372,0.099-0.532
				c0.086-0.159,0.212-0.287,0.382-0.382c0.169-0.095,0.387-0.122,0.652-0.089c0.146,0.011,0.275,0.049,0.392,0.116
				c0.114,0.065,0.226,0.144,0.333,0.23c0.109,0.091,0.217,0.178,0.317,0.266c0.104,0.091,0.209,0.167,0.318,0.233
				c0.062,0.033,0.133,0.069,0.217,0.108c0.085,0.037,0.279,0.112,0.22,0.092c2.822,1.06,3.711,0.087,3.551-0.721
				c-0.159-0.808-4.562-2.257-5.058-2.534c-0.495-0.277-0.895-0.647-1.196-1.111c-0.278-0.432-0.379-0.862-0.299-1.285
				c0.077-0.428,0.267-0.819,0.571-1.179c0.302-0.36,0.676-0.665,1.124-0.914c0.445-0.25,0.894-0.405,1.341-0.476
				c0-0.132,0-0.278,0-0.438s0.01-0.317,0.028-0.472c0.019-0.157,0.054-0.307,0.108-0.449c0.055-0.145,0.136-0.271,0.245-0.383
				c0.12-0.131,0.261-0.215,0.418-0.255c0.156-0.039,0.307-0.043,0.452-0.011c0.146,0.034,0.28,0.098,0.407,0.194
				c0.128,0.094,0.227,0.215,0.299,0.37c0.109,0.244,0.164,0.492,0.164,0.748c0,0.254,0,0.509,0,0.766
				c0.338,0.077,0.69,0.17,1.053,0.279c0.362,0.112,0.676,0.276,0.942,0.501c0.17,0.131,0.299,0.283,0.39,0.454
				c0.091,0.172,0.13,0.333,0.117,0.489c-0.012,0.156-0.083,0.296-0.208,0.425c-0.128,0.126-0.323,0.213-0.59,0.257
				c-0.157,0.021-0.309,0.021-0.452,0c-0.146-0.021-0.288-0.057-0.427-0.109c-0.14-0.046-0.282-0.091-0.416-0.157
				c-1.548-0.77-3.4-0.692-3.638,0.423c-0.317,1.493,1.296,1.178,3.192,1.786c0.536,0.173,1.03,0.386,1.496,0.598
				c0.465,0.209,0.885,0.514,1.26,0.911c0.205,0.224,0.351,0.488,0.437,0.798c0.083,0.311,0.11,0.625,0.08,0.945
				c-0.029,0.321-0.115,0.63-0.254,0.922c-0.139,0.293-0.328,0.534-0.571,0.723c-0.362,0.286-0.75,0.514-1.159,0.681
				c-0.411,0.165-0.848,0.299-1.307,0.397c0,0.156,0.003,0.339,0.009,0.547c0.007,0.212-0.009,0.399-0.045,0.564
				c-0.036,0.178-0.127,0.331-0.271,0.458c-0.147,0.125-0.312,0.216-0.499,0.264c-0.188,0.051-0.38,0.054-0.571,0.01
				c-0.195-0.044-0.355-0.149-0.49-0.317c-0.183-0.221-0.27-0.48-0.263-0.778c0.005-0.3,0.01-0.575,0.01-0.83
				c-0.545-0.121-1.047-0.32-1.506-0.597S1248.886,631.417,1248.535,631.028z"/>
			<path fill="#A6A8AB" d="M1252.27,635.262c-0.141,0-0.282-0.016-0.422-0.048c-0.346-0.079-0.64-0.266-0.873-0.558
				c-0.274-0.334-0.422-0.758-0.411-1.218c0.003-0.103,0.003-0.2,0.006-0.296c-0.414-0.135-0.807-0.312-1.171-0.531
				c-0.517-0.311-0.977-0.689-1.37-1.125c-0.233-0.344-0.334-0.629-0.363-0.932c-0.03-0.331,0.029-0.639,0.176-0.917
				c0.147-0.278,0.367-0.5,0.654-0.659c0.291-0.164,0.641-0.227,1.069-0.171c0.212,0.015,0.441,0.085,0.647,0.203
				c0.141,0.08,0.281,0.179,0.418,0.288l0.337,0.282c0.077,0.067,0.153,0.122,0.229,0.169l0.39,0.168
				c0.704,0.26,1.326,0.396,1.803,0.396c0.522,0,0.69-0.156,0.73-0.203c0.013-0.018,0.056-0.069,0.037-0.167
				c-0.288-0.326-2.808-1.301-3.636-1.621c-0.54-0.208-0.949-0.372-1.086-0.448c-0.591-0.332-1.074-0.781-1.436-1.336
				c-0.377-0.583-0.51-1.183-0.398-1.783c0.101-0.543,0.345-1.046,0.723-1.494c0.351-0.419,0.794-0.779,1.312-1.069
				c0.325-0.182,0.657-0.323,0.993-0.423c0.002-0.153,0.014-0.303,0.032-0.451c0.023-0.204,0.073-0.411,0.146-0.605
				c0.088-0.232,0.222-0.44,0.396-0.62c0.195-0.212,0.448-0.365,0.738-0.438c0.268-0.066,0.523-0.071,0.77-0.017
				c0.252,0.061,0.475,0.167,0.675,0.319c0.211,0.156,0.385,0.368,0.502,0.625c0.152,0.339,0.229,0.686,0.229,1.036v0.23
				c0.186,0.049,0.375,0.103,0.566,0.161c0.457,0.142,0.854,0.354,1.186,0.631c0.222,0.171,0.415,0.397,0.553,0.657
				c0.151,0.289,0.216,0.576,0.196,0.859c-0.025,0.318-0.164,0.612-0.403,0.854c-0.236,0.235-0.56,0.386-0.965,0.453
				c-0.275,0.035-0.456,0.031-0.659,0.002c-0.2-0.029-0.392-0.078-0.572-0.146c-0.184-0.061-0.336-0.113-0.479-0.186
				c-0.558-0.276-1.187-0.437-1.723-0.437c-0.144,0-0.864,0.019-0.941,0.392c-0.04,0.187-0.023,0.27-0.016,0.282
				c0.08,0.127,0.747,0.254,1.146,0.33c0.477,0.091,1.018,0.192,1.6,0.38c0.596,0.191,1.128,0.425,1.572,0.626
				c0.542,0.246,1.038,0.604,1.474,1.065c0.282,0.307,0.482,0.67,0.597,1.085c0.104,0.391,0.14,0.79,0.103,1.19
				c-0.037,0.397-0.145,0.784-0.315,1.15c-0.187,0.391-0.445,0.716-0.77,0.969c-0.407,0.322-0.854,0.584-1.323,0.773
				c-0.281,0.113-0.572,0.213-0.871,0.298c0.008,0.266-0.012,0.505-0.062,0.728c-0.062,0.309-0.23,0.598-0.488,0.823
				c-0.233,0.201-0.495,0.339-0.78,0.412C1252.592,635.24,1252.431,635.262,1252.27,635.262z M1249.394,630.164l-0.233,0.008
				c-0.069,0.039-0.097,0.076-0.111,0.105c-0.015,0.028-0.03,0.069-0.022,0.149c0.007,0.081,0.032,0.153,0.083,0.229
				c0.237,0.252,0.594,0.544,0.994,0.784c0.394,0.238,0.831,0.411,1.301,0.516l0.535,0.12v0.547c0,0.259-0.004,0.539-0.009,0.845
				c-0.003,0.134,0.029,0.235,0.106,0.328l0.232,0.101c0.041,0,0.081-0.006,0.122-0.017c0.089-0.022,0.162-0.062,0.231-0.122
				c0.076-0.198,0.085-0.331,0.081-0.483c-0.008-0.218-0.011-0.407-0.011-0.568v-0.552l0.539-0.117
				c0.417-0.089,0.819-0.211,1.196-0.363c0.347-0.141,0.681-0.337,0.991-0.583c0.161-0.125,0.284-0.281,0.378-0.479
				c0.104-0.219,0.168-0.453,0.189-0.693c0.023-0.238,0.003-0.468-0.059-0.701c-0.057-0.203-0.148-0.371-0.28-0.514
				c-0.305-0.326-0.657-0.58-1.038-0.752c-0.41-0.187-0.898-0.4-1.426-0.571c-0.5-0.16-0.998-0.255-1.436-0.337
				c-0.873-0.166-1.626-0.309-2.03-0.917c-0.233-0.352-0.295-0.797-0.183-1.324c0.196-0.921,1.048-1.472,2.278-1.472
				c0.751,0,1.578,0.207,2.331,0.58c0.087,0.043,0.179,0.071,0.27,0.102c0.171,0.062,0.269,0.086,0.368,0.101
				c0.169,0.009,0.218,0.005,0.268-0.002c0.144-0.023,0.194-0.065,0.194-0.065c-0.077-0.194-0.145-0.271-0.236-0.342
				c-0.215-0.18-0.447-0.301-0.727-0.388c-0.342-0.103-0.679-0.192-1.003-0.268l-0.531-0.121v-1.31c0-0.16-0.033-0.313-0.103-0.47
				c-0.019-0.038-0.045-0.07-0.081-0.099c-0.058-0.044-0.105-0.066-0.162-0.08l-0.008,0.008l-0.214,0.071
				c-0.045,0.044-0.074,0.092-0.096,0.148c-0.034,0.089-0.056,0.183-0.069,0.284c-0.016,0.133-0.022,0.263-0.022,0.394v1.024
				l-0.578,0.09c-0.371,0.058-0.744,0.19-1.113,0.396c-0.373,0.208-0.687,0.462-0.934,0.757c-0.227,0.27-0.366,0.551-0.423,0.863
				c-0.047,0.251,0.02,0.508,0.201,0.79c0.24,0.371,0.554,0.66,0.955,0.886c0.123,0.067,0.466,0.195,0.912,0.367
				c3.329,1.288,4.334,1.878,4.483,2.632c0.093,0.464-0.026,0.938-0.322,1.298c-0.264,0.32-0.788,0.702-1.786,0.702
				c-0.663,0-1.456-0.171-2.354-0.508l0.126-0.358l-0.151,0.346l-0.229-0.095c-0.109-0.049-0.195-0.092-0.269-0.132
				c-0.172-0.105-0.309-0.203-0.441-0.32l-0.255-0.215c-0.118-0.095-0.199-0.153-0.285-0.201L1249.394,630.164z"/>
		</g>
	</g>
	<g>
		<path fill="#A6A8AB" d="M1255.664,641.57c-0.538,0.027-1.151-0.008-1.762-0.019c-0.616-0.011-1.257-0.021-1.919-0.021
			c-3.664,0-13.403,0-13.403-9.549c0-3.907,1.298-8.904,4.114-11.815c-0.521-2.484-1.136-6.279-0.698-7.593
			c0.35-1.054,1.383-2.181,3.222-2.181c0.616,0,1.214,0.12,1.85,0.247c0.515,0.103,1.1,0.221,1.519,0.221
			c0.153,0,0.216-0.018,0.218-0.018c1.513-0.505,3.078-0.794,4.287-0.794c0.8,0,1.499,0.125,2.093,0.373
			c0.134-0.04,0.286-0.086,0.408-0.124c0.862-0.261,1.839-0.558,2.867-0.558c0.726,0,1.388,0.152,1.968,0.452
			c1.545,0.803,2.726,2.481,1.204,8.98c3.757,3.713,5.34,11.786,4.475,15.356C1264.402,641.55,1258.731,641.57,1255.664,641.57z
			 M1248.361,620.589c0.255,1.103-0.197,2.28-1.188,2.916c-1.725,1.104-3.127,4.908-3.127,8.477c0,2.391,0.568,4.082,7.938,4.082
			c0.694,0,1.364,0.011,2.009,0.021c0.569,0.01,1.12,0.019,1.646,0.019c0.002,0,0.002,0,0.002,0c3.792,0,4.562-0.428,5.152-2.863
			c0.612-2.521-1.451-9.557-3.45-10.528c-1.182-0.574-1.788-1.908-1.443-3.176c0.357-1.319,0.657-2.748,0.827-3.872
			c-0.611,0.179-1.239,0.331-1.876,0.331c-0.767,0-1.354-0.215-1.789-0.48c-0.62,0.007-1.61,0.208-2.538,0.517
			c-0.881,0.292-1.975,0.345-2.965,0.232C1247.782,617.662,1248.101,619.354,1248.361,620.589z"/>
	</g>
</g>
<g>
	<g>
		<polyline fill="none" points="365.272,411.019 365.228,405.139 340.286,390.988 315.561,405.514 315.603,411.019 		"/>
		<polyline fill="none" points="315.733,428.308 315.778,434.188 340.719,448.339 365.444,433.813 365.402,428.308 		"/>
		<path fill="#1BEDD4" d="M315.561,405.514l24.725-14.526l24.941,14.151l0.044,5.88h5l-0.055-7.361
			c-0.007-0.893-0.489-1.715-1.266-2.155l-27.453-15.576c-0.777-0.441-1.729-0.434-2.5,0.019l-27.214,15.988
			c-0.77,0.453-1.24,1.282-1.233,2.175l0.052,6.91h5L315.561,405.514z"/>
		<path fill="#26B6A5" d="M365.444,433.813l-24.725,14.526l-24.941-14.151l-0.044-5.88h-5l0.056,7.361
			c0.007,0.893,0.489,1.714,1.266,2.155l27.452,15.576c0.383,0.217,0.809,0.326,1.234,0.326c0.438,0,0.876-0.115,1.267-0.345
			l27.214-15.989c0.77-0.452,1.24-1.281,1.233-2.174l-0.052-6.91h-5L365.444,433.813z"/>
	</g>
	<g>
		<path fill="#333333" d="M297.042,421.901c0,0.93-0.335,1.663-1.004,2.198c-0.669,0.535-1.601,0.803-2.794,0.803
			c-1.099,0-2.07-0.207-2.916-0.62v-2.029c0.695,0.31,1.283,0.528,1.765,0.655c0.481,0.127,0.922,0.19,1.321,0.19
			c0.479,0,0.846-0.092,1.103-0.275c0.256-0.183,0.384-0.456,0.384-0.817c0-0.202-0.057-0.382-0.169-0.539
			c-0.113-0.157-0.278-0.309-0.497-0.455s-0.663-0.378-1.335-0.697c-0.63-0.296-1.102-0.58-1.416-0.853s-0.566-0.589-0.754-0.951
			c-0.188-0.361-0.281-0.784-0.281-1.268c0-0.911,0.309-1.627,0.926-2.148c0.618-0.521,1.472-0.782,2.561-0.782
			c0.536,0,1.047,0.063,1.533,0.19c0.485,0.126,0.994,0.305,1.524,0.535l-0.704,1.698c-0.55-0.225-1.004-0.383-1.363-0.472
			c-0.359-0.089-0.713-0.134-1.061-0.134c-0.413,0-0.73,0.096-0.951,0.289c-0.221,0.193-0.331,0.444-0.331,0.754
			c0,0.192,0.045,0.36,0.134,0.503c0.09,0.144,0.231,0.282,0.427,0.416c0.194,0.134,0.656,0.375,1.384,0.722
			c0.963,0.46,1.623,0.921,1.98,1.384C296.864,420.662,297.042,421.229,297.042,421.901z"/>
		<path fill="#333333" d="M303.604,424.761h-2.184v-8.482h-2.797v-1.818h7.777v1.818h-2.797V424.761z"/>
		<path fill="#333333" d="M315.013,424.761l-0.747-2.452h-3.755l-0.747,2.452h-2.353l3.635-10.342h2.67l3.649,10.342H315.013z
			 M313.745,420.478c-0.69-2.222-1.079-3.478-1.166-3.769c-0.087-0.292-0.148-0.521-0.187-0.69
			c-0.155,0.601-0.599,2.087-1.331,4.459H313.745z"/>
		<path fill="#333333" d="M321.568,420.809v3.952h-2.185v-10.3h3.001c1.399,0,2.436,0.255,3.107,0.765
			c0.671,0.509,1.007,1.283,1.007,2.321c0,0.605-0.166,1.145-0.5,1.617c-0.333,0.472-0.806,0.842-1.416,1.109
			c1.55,2.315,2.56,3.812,3.029,4.488h-2.423l-2.459-3.952H321.568z M321.568,419.034h0.704c0.69,0,1.2-0.115,1.528-0.345
			c0.329-0.23,0.493-0.592,0.493-1.085c0-0.488-0.168-0.836-0.503-1.042c-0.336-0.207-0.856-0.31-1.561-0.31h-0.662V419.034z"/>
		<path fill="#333333" d="M333.603,424.761h-2.184v-8.482h-2.797v-1.818h7.777v1.818h-2.797V424.761z"/>
		<path fill="#333333" d="M347.09,414.461v6.665c0,0.761-0.17,1.428-0.511,2.001c-0.341,0.573-0.833,1.012-1.476,1.317
			c-0.644,0.305-1.405,0.458-2.283,0.458c-1.324,0-2.353-0.339-3.086-1.018c-0.732-0.679-1.099-1.607-1.099-2.787v-6.636h2.177
			v6.305c0,0.794,0.16,1.376,0.479,1.747c0.319,0.371,0.848,0.557,1.585,0.557c0.714,0,1.231-0.187,1.554-0.56
			c0.321-0.373,0.482-0.959,0.482-1.758v-6.291H347.09z"/>
		<path fill="#333333" d="M357.449,417.674c0,1.108-0.346,1.957-1.039,2.543c-0.692,0.587-1.678,0.88-2.955,0.88h-0.937v3.664
			h-2.185v-10.3h3.29c1.249,0,2.199,0.269,2.85,0.807C357.124,415.806,357.449,416.608,357.449,417.674z M352.518,419.309h0.718
			c0.672,0,1.175-0.133,1.508-0.398c0.334-0.265,0.5-0.651,0.5-1.159c0-0.512-0.14-0.89-0.419-1.134s-0.718-0.366-1.313-0.366
			h-0.993V419.309z"/>
		<path fill="#333333" d="M366.195,421.901c0,0.93-0.335,1.663-1.004,2.198c-0.669,0.535-1.601,0.803-2.794,0.803
			c-1.099,0-2.07-0.207-2.916-0.62v-2.029c0.695,0.31,1.283,0.528,1.765,0.655c0.481,0.127,0.922,0.19,1.321,0.19
			c0.479,0,0.846-0.092,1.103-0.275c0.256-0.183,0.384-0.456,0.384-0.817c0-0.202-0.057-0.382-0.169-0.539
			c-0.113-0.157-0.278-0.309-0.497-0.455s-0.663-0.378-1.335-0.697c-0.63-0.296-1.102-0.58-1.416-0.853s-0.566-0.589-0.754-0.951
			c-0.188-0.361-0.281-0.784-0.281-1.268c0-0.911,0.309-1.627,0.926-2.148c0.618-0.521,1.472-0.782,2.561-0.782
			c0.536,0,1.047,0.063,1.533,0.19c0.485,0.126,0.994,0.305,1.524,0.535l-0.704,1.698c-0.55-0.225-1.004-0.383-1.363-0.472
			c-0.359-0.089-0.713-0.134-1.061-0.134c-0.413,0-0.73,0.096-0.951,0.289c-0.221,0.193-0.331,0.444-0.331,0.754
			c0,0.192,0.045,0.36,0.134,0.503c0.09,0.144,0.231,0.282,0.427,0.416c0.194,0.134,0.656,0.375,1.384,0.722
			c0.963,0.46,1.623,0.921,1.98,1.384C366.016,420.662,366.195,421.229,366.195,421.901z"/>
		<path fill="#D9534F" d="M368.311,423.754c0-0.395,0.105-0.693,0.316-0.895c0.212-0.202,0.52-0.303,0.923-0.303
			c0.391,0,0.692,0.104,0.905,0.31c0.214,0.207,0.321,0.502,0.321,0.888c0,0.371-0.108,0.664-0.324,0.877
			c-0.216,0.214-0.517,0.321-0.902,0.321c-0.395,0-0.699-0.105-0.915-0.313C368.418,424.429,368.311,424.134,368.311,423.754z"/>
		<path fill="#D9534F" d="M379.466,422.105c0,0.859-0.316,1.541-0.947,2.043c-0.632,0.502-1.472,0.754-2.52,0.754
			c-1.258,0-2.224-0.139-2.895-0.416v-0.718c0.741,0.314,1.688,0.472,2.839,0.472c0.845,0,1.516-0.193,2.011-0.581
			c0.496-0.388,0.743-0.896,0.743-1.525c0-0.39-0.082-0.712-0.246-0.969c-0.164-0.256-0.433-0.489-0.803-0.701
			c-0.371-0.211-0.916-0.439-1.635-0.684c-1.052-0.361-1.779-0.752-2.181-1.173s-0.603-0.98-0.603-1.68
			c0-0.771,0.302-1.398,0.905-1.885c0.604-0.486,1.38-0.729,2.329-0.729c0.967,0,1.876,0.183,2.726,0.549l-0.26,0.62
			c-0.855-0.357-1.673-0.535-2.452-0.535c-0.761,0-1.366,0.176-1.817,0.528c-0.451,0.352-0.677,0.831-0.677,1.437
			c0,0.38,0.069,0.693,0.208,0.937s0.365,0.464,0.68,0.659s0.855,0.429,1.62,0.701c0.804,0.277,1.407,0.546,1.811,0.807
			c0.404,0.26,0.699,0.556,0.885,0.888C379.374,421.235,379.466,421.636,379.466,422.105z"/>
		<path fill="#D9534F" d="M386.416,419.569h3.797v4.699c-0.996,0.423-2.116,0.634-3.36,0.634c-1.625,0-2.871-0.459-3.737-1.377
			c-0.866-0.918-1.3-2.218-1.3-3.899c0-1.047,0.215-1.976,0.645-2.786c0.43-0.811,1.045-1.436,1.846-1.878
			c0.801-0.441,1.72-0.662,2.758-0.662c1.123,0,2.13,0.207,3.022,0.62l-0.289,0.648c-0.892-0.413-1.817-0.62-2.775-0.62
			c-1.357,0-2.434,0.419-3.23,1.257c-0.796,0.838-1.193,1.969-1.193,3.392c0,1.55,0.378,2.716,1.134,3.498
			c0.756,0.782,1.867,1.173,3.332,1.173c0.949,0,1.755-0.134,2.417-0.401v-3.621h-3.064V419.569z"/>
	</g>
</g>
<rect x="632.667" y="59.326" fill="#1BEDD4" width="65.628" height="65.628"/>
<rect x="758.743" y="59.326" fill="#26B6A5" width="65.628" height="65.628"/>
<rect x="525.474" y="59.326" fill="#A9FCDC" width="65.628" height="65.628"/>
<rect x="865.987" y="59.326" fill="#333333" width="65.628" height="65.628"/>
<rect x="979.804" y="59.326" fill="#888888" width="65.628" height="65.628"/>
<rect x="1095.743" y="59.326" fill="#E6E7E8" width="65.628" height="65.628"/>
<rect x="1209.036" y="59.326" fill="#D9534F" width="65.628" height="65.628"/>
<text transform="matrix(1 0 0 1 979.8042 116.5117)"><tspan x="0" y="0" font-family="'MyriadPro-Regular'" font-size="12">.</tspan><tspan x="0" y="28.8" font-family="'MyriadPro-Regular'" font-size="12">.grey </tspan><tspan x="0" y="43.199" font-family="'MyriadPro-Regular'" font-size="12">{ color: #888888;}</tspan></text>
<text transform="matrix(1 0 0 1 520.082 141.4448)"><tspan x="0" y="0" font-family="'MyriadPro-Regular'" font-size="12">.lightgreen </tspan><tspan x="0" y="14.4" font-family="'MyriadPro-Regular'" font-size="12">{ color: #a9fcdc;}</tspan></text>
<text transform="matrix(1 0 0 1 631.0615 143.0674)"><tspan x="0" y="0" font-family="'MyriadPro-Regular'" font-size="12">.brightgreen </tspan><tspan x="0" y="14.4" font-family="'MyriadPro-Regular'" font-size="12">{ color: #1bedd4;}</tspan></text>
<text transform="matrix(1 0 0 1 758.7427 143.0674)"><tspan x="0" y="0" font-family="'MyriadPro-Regular'" font-size="12">.darkgreen </tspan><tspan x="0" y="14.4" font-family="'MyriadPro-Regular'" font-size="12">{ color: #26b6a5;}</tspan></text>
<text transform="matrix(1 0 0 1 864.0288 145.7344)"><tspan x="0" y="0" font-family="'MyriadPro-Regular'" font-size="12">.darkgrey </tspan><tspan x="0" y="14.4" font-family="'MyriadPro-Regular'" font-size="12">{ color: #333333;}</tspan></text>
<text transform="matrix(1 0 0 1 1095.7427 142.5679)"><tspan x="0" y="0" font-family="'MyriadPro-Regular'" font-size="12">.lightgrey </tspan><tspan x="0" y="14.4" font-family="'MyriadPro-Regular'" font-size="12">{ color : #e6e7e8;}</tspan></text>
<text transform="matrix(1 0 0 1 1215.7427 148.9009)"><tspan x="0" y="0" font-family="'MyriadPro-Regular'" font-size="12">.red </tspan><tspan x="0" y="14.4" font-family="'MyriadPro-Regular'" font-size="12">{ color: #d9534f;}</tspan></text>
</svg>
