<?xml version="1.0" encoding="utf-8"?>
<!-- Generator: Adobe Illustrator 16.0.0, SVG Export Plug-In . SVG Version: 6.00 Build 0)  -->
<!DOCTYPE svg PUBLIC "-//W3C//DTD SVG 1.1//EN" "http://www.w3.org/Graphics/SVG/1.1/DTD/svg11.dtd">
<svg version="1.1" id="Layer_1" xmlns="http://www.w3.org/2000/svg" xmlns:xlink="http://www.w3.org/1999/xlink" x="0px" y="0px"
	 width="1496px" height="1694px" viewBox="0 0 1496 1694" enable-background="new 0 0 1496 1694" xml:space="preserve">
<path fill="none" stroke="#A6A8AB" stroke-miterlimit="10" d="M209.241,533.965c-2.329,0-4.225-1.893-4.225-4.225V65.32
	c0-2.336,1.896-4.225,4.225-4.225h260.774c2.33,0,4.223,1.889,4.223,4.225v464.42c0,2.332-1.893,4.225-4.223,4.225H209.241z"/>
<line fill="none" stroke="#A6A8AB" stroke-miterlimit="10" x1="205.973" y1="492.559" x2="473.28" y2="492.559"/>
<g>
	<polygon fill="none" stroke="#E6E7E8" stroke-width="5" stroke-linejoin="round" stroke-miterlimit="10" points="316.689,105.99 
		317.477,84.977 336.07,75.148 353.877,86.34 353.09,107.354 334.496,117.182 	"/>
	<rect x="291.126" y="90.404" fill="#FFFFFF" width="95.091" height="11.521"/>
	<text transform="matrix(1 0 0 1 301.4111 99.5615)"><tspan x="0" y="0" fill="#58595B" font-family="'OpenSans-Bold'" font-size="9.6136">STARTUPS.</tspan><tspan x="55.074" y="0" fill="#58595B" font-family="'OpenSans-Light'" font-size="9.6136">SG</tspan></text>
</g>
<g>
	<polygon fill="none" stroke="#E6E7E8" stroke-width="5" stroke-linejoin="round" stroke-miterlimit="10" points="568.825,108.057 
		569.613,87.043 588.207,77.215 606.013,88.406 605.225,109.42 586.632,119.248 	"/>
	<rect x="543.262" y="92.471" fill="#FFFFFF" width="95.09" height="11.521"/>
	<text transform="matrix(1 0 0 1 553.5469 101.6279)"><tspan x="0" y="0" fill="#58595B" font-family="'OpenSans-Bold'" font-size="9.6136">STARTUPS.</tspan><tspan x="55.074" y="0" fill="#58595B" font-family="'OpenSans-Light'" font-size="9.6136">SG</tspan></text>
</g>
<g>
	
		<text transform="matrix(1 0 0 1 292.8076 156.7422)" fill="#58595B" font-family="'Roboto-Black'" font-size="24.4288" letter-spacing="1">LOG IN</text>
</g>
<g>
	<text transform="matrix(1 0 0 1 242.2192 214.457)" fill="#58595B" font-family="'Roboto-Bold'" font-size="15">EMAIL</text>
</g>
<g>
	<g>
		<path fill="#A6A8AB" d="M292.553,517.43c-0.33,0-0.661-0.082-0.96-0.244l-10.69-5.852c-0.642-0.352-1.041-1.023-1.041-1.754
			s0.398-1.404,1.04-1.756l10.69-5.852c0.6-0.326,1.322-0.326,1.922,0l10.69,5.852c0.642,0.352,1.04,1.025,1.04,1.756
			s-0.399,1.402-1.041,1.754l-10.69,5.852C293.214,517.348,292.883,517.43,292.553,517.43z M286.027,509.58l6.525,3.57l6.525-3.57
			l-6.525-3.572L286.027,509.58z"/>
	</g>
	<g>
		<path fill="#A6A8AB" d="M292.553,525.145c-1.104,0-2-0.895-2-2v-7.715c0-1.104,0.896-2,2-2s2,0.896,2,2v7.715
			C294.553,524.25,293.657,525.145,292.553,525.145z"/>
	</g>
	<g>
		<path fill="#A6A8AB" d="M303.244,519.293c-1.105,0-2-0.895-2-2v-7.713c0-1.105,0.895-2,2-2c1.104,0,2,0.895,2,2v7.713
			C305.244,518.398,304.348,519.293,303.244,519.293z"/>
	</g>
	<g>
		<path fill="#A6A8AB" d="M281.861,519.293c-1.104,0-2-0.895-2-2v-7.713c0-1.105,0.896-2,2-2c1.105,0,2,0.895,2,2v7.713
			C283.861,518.398,282.967,519.293,281.861,519.293z"/>
	</g>
</g>
<g>
	<g>
		<path fill="#A6A8AB" d="M354.875,522.961h-19.064c-1.104,0-2-0.895-2-2V505.91c0-1.104,0.896-2,2-2h19.064c1.104,0,2,0.896,2,2
			v15.051C356.875,522.066,355.979,522.961,354.875,522.961z M337.811,518.961h15.064V507.91h-15.064V518.961z"/>
	</g>
	<rect x="335.811" y="505.91" fill="#A6A8AB" width="19.064" height="4.051"/>
	<g>
		<path fill="#A6A8AB" d="M341.154,516.514c0,0.648-0.527,1.172-1.176,1.172s-1.175-0.523-1.175-1.172
			c0-0.65,0.526-1.176,1.175-1.176S341.154,515.863,341.154,516.514z"/>
		<path fill="#A6A8AB" d="M344.797,516.514c0,0.648-0.526,1.172-1.176,1.172c-0.648,0-1.174-0.523-1.174-1.172
			c0-0.65,0.525-1.176,1.174-1.176C344.271,515.338,344.797,515.863,344.797,516.514z"/>
		<path fill="#A6A8AB" d="M348.439,516.514c0,0.648-0.525,1.172-1.175,1.172s-1.175-0.523-1.175-1.172
			c0-0.65,0.525-1.176,1.175-1.176S348.439,515.863,348.439,516.514z"/>
		<path fill="#A6A8AB" d="M352.082,516.514c0,0.648-0.525,1.172-1.175,1.172c-0.647,0-1.175-0.523-1.175-1.172
			c0-0.65,0.527-1.176,1.175-1.176C351.557,515.338,352.082,515.863,352.082,516.514z"/>
	</g>
	<g>
		<circle fill="#A6A8AB" cx="339.878" cy="512.92" r="1.175"/>
		<circle fill="#A6A8AB" cx="343.521" cy="512.92" r="1.175"/>
		<circle fill="#A6A8AB" cx="347.165" cy="512.92" r="1.175"/>
		<circle fill="#A6A8AB" cx="350.808" cy="512.92" r="1.175"/>
	</g>
</g>
<path fill="#A6A8AB" d="M403.613,522.463l-3.889-10.336v-8.42c0-1.105-0.895-2-2-2h-4.646c-1.105,0-2,0.895-2,2v8.422l-3.889,10.334
	c-0.23,0.613-0.146,1.303,0.228,1.842s0.988,0.861,1.645,0.861h12.681c0.656,0,1.271-0.322,1.645-0.861
	C403.76,523.766,403.845,523.076,403.613,522.463z M395.725,505.707v5.729h-0.646v-5.729H395.725z M391.951,521.166l2.156-5.73
	h2.588l2.156,5.73H391.951z"/>
<g>
	<g>
		<g>
			<path fill="#A6A8AB" d="M438.838,517.369c-0.08-0.123-0.127-0.252-0.141-0.395c-0.013-0.143,0.012-0.273,0.074-0.391
				c0.061-0.115,0.154-0.209,0.279-0.279c0.123-0.068,0.282-0.09,0.477-0.064c0.106,0.008,0.201,0.035,0.285,0.084
				s0.166,0.105,0.246,0.17c0.08,0.066,0.156,0.129,0.231,0.193c0.075,0.066,0.153,0.123,0.231,0.172
				c0.045,0.023,0.099,0.051,0.16,0.078c0.062,0.027,0.203,0.082,0.16,0.068c2.064,0.775,2.715,0.062,2.6-0.527
				c-0.117-0.592-3.34-1.652-3.701-1.855c-0.363-0.203-0.655-0.473-0.877-0.812c-0.203-0.316-0.275-0.631-0.219-0.941
				c0.059-0.312,0.197-0.6,0.419-0.861c0.221-0.264,0.495-0.486,0.822-0.67c0.327-0.182,0.653-0.297,0.981-0.348
				c0-0.096,0-0.203,0-0.32s0.006-0.232,0.021-0.346c0.013-0.115,0.04-0.225,0.079-0.328c0.04-0.105,0.1-0.199,0.18-0.281
				c0.088-0.096,0.189-0.156,0.305-0.186s0.227-0.031,0.332-0.008c0.105,0.025,0.205,0.07,0.299,0.143
				c0.092,0.068,0.166,0.156,0.219,0.27c0.08,0.18,0.119,0.361,0.119,0.549c0,0.186,0,0.371,0,0.559
				c0.248,0.057,0.504,0.125,0.77,0.205c0.266,0.082,0.495,0.203,0.69,0.367c0.124,0.096,0.219,0.207,0.285,0.332
				c0.065,0.125,0.095,0.244,0.087,0.357c-0.01,0.115-0.061,0.217-0.153,0.311s-0.237,0.156-0.431,0.189
				c-0.116,0.014-0.227,0.014-0.332,0c-0.106-0.016-0.211-0.043-0.312-0.08c-0.102-0.035-0.206-0.066-0.305-0.115
				c-1.133-0.564-2.486-0.508-2.66,0.309c-0.233,1.094,0.947,0.861,2.334,1.307c0.393,0.127,0.755,0.283,1.096,0.438
				c0.34,0.154,0.648,0.377,0.922,0.668c0.15,0.162,0.256,0.357,0.318,0.584s0.082,0.457,0.061,0.691
				c-0.022,0.234-0.085,0.461-0.186,0.674c-0.103,0.215-0.242,0.391-0.418,0.529c-0.266,0.209-0.549,0.375-0.85,0.498
				c-0.301,0.121-0.62,0.219-0.955,0.291c0,0.113,0.002,0.248,0.006,0.4c0.005,0.154-0.006,0.291-0.033,0.412
				c-0.025,0.131-0.093,0.242-0.199,0.336c-0.105,0.092-0.228,0.158-0.365,0.193c-0.137,0.037-0.275,0.039-0.417,0.006
				c-0.142-0.031-0.261-0.109-0.358-0.232c-0.133-0.16-0.197-0.352-0.193-0.568c0.006-0.221,0.008-0.422,0.008-0.607
				c-0.398-0.09-0.766-0.234-1.102-0.438C439.391,517.896,439.094,517.652,438.838,517.369z"/>
			<path fill="#A6A8AB" d="M441.569,520.467c-0.103,0-0.206-0.012-0.309-0.035c-0.253-0.059-0.468-0.195-0.638-0.408
				c-0.203-0.244-0.309-0.555-0.303-0.891c0.002-0.076,0.004-0.146,0.005-0.217c-0.303-0.1-0.589-0.229-0.856-0.389
				c-0.378-0.229-0.715-0.506-1.002-0.824c-0.172-0.252-0.246-0.459-0.267-0.682c-0.022-0.242,0.021-0.467,0.129-0.67
				c0.107-0.205,0.269-0.367,0.478-0.482c0.215-0.121,0.471-0.166,0.783-0.125c0.155,0.01,0.323,0.061,0.473,0.148
				c0.104,0.059,0.207,0.131,0.308,0.211l0.247,0.205c0.057,0.051,0.111,0.09,0.168,0.125l0.284,0.123
				c0.517,0.189,0.972,0.289,1.319,0.289c0.382,0,0.506-0.115,0.534-0.148c0.011-0.014,0.042-0.051,0.027-0.123
				c-0.212-0.238-2.055-0.951-2.661-1.186c-0.395-0.152-0.693-0.273-0.794-0.328c-0.433-0.244-0.786-0.572-1.05-0.979
				c-0.275-0.426-0.373-0.865-0.292-1.305c0.073-0.396,0.251-0.766,0.528-1.094c0.257-0.307,0.58-0.57,0.961-0.781
				c0.236-0.133,0.48-0.236,0.726-0.311c0.003-0.111,0.01-0.221,0.023-0.33c0.017-0.148,0.054-0.301,0.107-0.443
				c0.064-0.17,0.161-0.322,0.29-0.453c0.143-0.154,0.328-0.268,0.539-0.32c0.196-0.049,0.385-0.053,0.562-0.012
				c0.186,0.043,0.349,0.121,0.494,0.232c0.155,0.115,0.281,0.27,0.369,0.457c0.111,0.248,0.166,0.502,0.166,0.76v0.168
				c0.136,0.035,0.273,0.074,0.414,0.117c0.334,0.104,0.625,0.26,0.867,0.463c0.163,0.125,0.305,0.291,0.405,0.48
				c0.11,0.211,0.159,0.422,0.144,0.629c-0.019,0.232-0.121,0.447-0.295,0.625c-0.172,0.172-0.408,0.281-0.705,0.33
				c-0.201,0.027-0.335,0.023-0.482,0.002s-0.287-0.057-0.42-0.107c-0.134-0.043-0.245-0.082-0.352-0.135
				c-0.408-0.203-0.867-0.32-1.26-0.32c-0.105,0-0.631,0.014-0.689,0.287c-0.029,0.137-0.016,0.197-0.012,0.207
				c0.059,0.092,0.548,0.186,0.84,0.24c0.35,0.066,0.744,0.141,1.171,0.279c0.435,0.139,0.825,0.311,1.149,0.457
				c0.398,0.18,0.762,0.441,1.079,0.779c0.207,0.225,0.353,0.49,0.437,0.795c0.078,0.285,0.104,0.578,0.076,0.871
				c-0.027,0.291-0.105,0.574-0.232,0.842c-0.137,0.285-0.325,0.523-0.562,0.709c-0.299,0.236-0.625,0.428-0.968,0.566
				c-0.206,0.082-0.419,0.154-0.638,0.217c0.006,0.195-0.009,0.369-0.045,0.533c-0.045,0.225-0.17,0.438-0.357,0.602
				c-0.172,0.148-0.362,0.248-0.57,0.303C441.806,520.451,441.688,520.467,441.569,520.467z M439.465,516.736l-0.172,0.006
				c-0.05,0.027-0.068,0.055-0.08,0.076c-0.011,0.021-0.022,0.051-0.018,0.109c0.006,0.061,0.025,0.113,0.061,0.168
				c0.174,0.184,0.436,0.398,0.729,0.574c0.288,0.174,0.608,0.301,0.953,0.377l0.391,0.088v0.4c0,0.189-0.002,0.395-0.008,0.617
				c-0.002,0.098,0.022,0.172,0.078,0.24l0.171,0.074c0.03,0,0.06-0.004,0.089-0.012c0.066-0.018,0.119-0.047,0.17-0.09
				c0.055-0.145,0.062-0.242,0.059-0.354c-0.004-0.16-0.006-0.299-0.006-0.416v-0.404l0.395-0.086
				c0.305-0.064,0.598-0.154,0.874-0.266c0.254-0.104,0.499-0.246,0.726-0.426c0.117-0.092,0.207-0.207,0.277-0.352
				c0.075-0.16,0.122-0.33,0.139-0.506c0.016-0.176,0.002-0.344-0.045-0.514c-0.041-0.148-0.107-0.271-0.203-0.377
				c-0.225-0.238-0.48-0.424-0.76-0.549c-0.301-0.137-0.658-0.293-1.044-0.418c-0.366-0.117-0.729-0.188-1.05-0.248
				c-0.639-0.121-1.19-0.225-1.486-0.67c-0.171-0.258-0.217-0.584-0.135-0.969c0.145-0.674,0.768-1.078,1.668-1.078
				c0.55,0,1.156,0.152,1.705,0.426c0.064,0.031,0.132,0.051,0.198,0.074c0.126,0.045,0.196,0.062,0.269,0.072
				c0.123,0.008,0.16,0.004,0.196,0c0.104-0.018,0.143-0.049,0.144-0.049c-0.059-0.143-0.107-0.197-0.174-0.25
				c-0.158-0.131-0.326-0.221-0.532-0.283c-0.251-0.076-0.497-0.141-0.733-0.195l-0.389-0.09v-0.957c0-0.117-0.025-0.23-0.076-0.344
				c-0.014-0.029-0.031-0.053-0.059-0.072c-0.043-0.033-0.078-0.049-0.119-0.059l-0.004,0.006l-0.158,0.051
				c-0.031,0.033-0.055,0.068-0.07,0.109c-0.024,0.064-0.041,0.133-0.049,0.207c-0.013,0.098-0.018,0.193-0.018,0.289v0.75
				l-0.424,0.064c-0.271,0.043-0.545,0.141-0.813,0.291c-0.273,0.152-0.503,0.338-0.683,0.553c-0.168,0.197-0.269,0.404-0.311,0.633
				c-0.034,0.184,0.014,0.371,0.146,0.578c0.177,0.271,0.406,0.482,0.701,0.648c0.089,0.049,0.34,0.143,0.666,0.268
				c2.436,0.943,3.172,1.375,3.281,1.926c0.066,0.34-0.02,0.688-0.236,0.951c-0.193,0.234-0.576,0.514-1.307,0.514
				c-0.485,0-1.064-0.125-1.723-0.373l0.094-0.262l-0.113,0.254l-0.166-0.07c-0.081-0.035-0.145-0.066-0.197-0.096
				c-0.126-0.078-0.225-0.148-0.322-0.234l-0.188-0.158c-0.086-0.068-0.146-0.111-0.208-0.146L439.465,516.736z"/>
		</g>
	</g>
	<g>
		<path fill="#A6A8AB" d="M444.055,525.082c-0.395,0.021-0.844-0.006-1.29-0.014c-0.451-0.008-0.919-0.016-1.403-0.016
			c-2.684,0-9.81,0-9.81-6.986c0-2.859,0.95-6.516,3.011-8.646c-0.381-1.818-0.832-4.596-0.512-5.557
			c0.258-0.771,1.012-1.596,2.358-1.596c0.451,0,0.89,0.088,1.353,0.182c0.379,0.074,0.807,0.16,1.113,0.16
			c0.111,0,0.158-0.012,0.158-0.012c1.107-0.369,2.253-0.582,3.139-0.582c0.584,0,1.096,0.092,1.531,0.273
			c0.098-0.029,0.207-0.062,0.298-0.09c0.631-0.191,1.347-0.408,2.097-0.408c0.531,0,1.016,0.111,1.441,0.33
			c1.129,0.588,1.994,1.816,0.881,6.572c2.749,2.717,3.908,8.625,3.274,11.236C450.447,525.068,446.299,525.082,444.055,525.082z
			 M438.71,509.729c0.187,0.807-0.146,1.67-0.87,2.135c-1.262,0.809-2.288,3.592-2.288,6.203c0,1.748,0.417,2.986,5.81,2.986
			c0.506,0,0.996,0.008,1.469,0.016c0.417,0.008,0.819,0.014,1.205,0.014c0,0,0,0,0.001,0c2.774,0,3.339-0.312,3.771-2.096
			c0.447-1.844-1.062-6.992-2.525-7.703c-0.865-0.42-1.309-1.396-1.056-2.324c0.263-0.965,0.481-2.012,0.606-2.834
			c-0.449,0.131-0.908,0.242-1.373,0.242c-0.562,0-0.992-0.156-1.311-0.352c-0.453,0.006-1.178,0.152-1.855,0.379
			c-0.645,0.213-1.446,0.252-2.17,0.17C438.287,507.588,438.52,508.826,438.71,509.729z"/>
	</g>
</g>
<path fill="#A6A8AB" d="M251.287,509.826l-9.121-7.482c-0.736-0.605-1.637-0.908-2.537-0.908c-0.873,0-1.746,0.285-2.473,0.855
	l-9.513,7.482c-1.341,1.055-1.864,2.842-1.308,4.453c0.488,1.412,1.715,2.416,3.158,2.643v4.566c0,2.209,1.791,4,4,4h11.879
	c2.209,0,4-1.791,4-4v-4.566c1.428-0.225,2.645-1.211,3.143-2.604C253.085,512.674,252.593,510.898,251.287,509.826z
	 M233.494,521.436v-4.562h11.879v4.562H233.494z M247.135,512.918v-0.045h-16.961l9.455-7.438l9.121,7.482H247.135z"/>
<path fill="none" stroke="#A6A8AB" stroke-miterlimit="10" d="M523.809,718.217c-2.621,0-4.753-1.895-4.753-4.225V65.32
	c0-2.336,2.132-4.225,4.753-4.225h817.44c2.621,0,4.751,1.889,4.751,4.225v648.672c0,2.33-2.13,4.225-4.751,4.225H523.809z"/>
<path fill="#E6E7E8" d="M1235.438,87.719c0,5.902-4.788,10.689-10.693,10.689h-51.979c-5.904,0-10.693-4.787-10.693-10.689l0,0
	c0-5.906,4.789-10.693,10.693-10.693h51.979C1230.65,77.025,1235.438,81.812,1235.438,87.719L1235.438,87.719z"/>
<path fill="#E6E7E8" d="M1319.653,87.719c0,5.902-4.788,10.689-10.693,10.689h-51.979c-5.905,0-10.693-4.787-10.693-10.689l0,0
	c0-5.906,4.788-10.693,10.693-10.693h51.979C1314.865,77.025,1319.653,81.812,1319.653,87.719L1319.653,87.719z"/>
<text transform="matrix(1 0 0 1 1260.416 92.667)" fill="#231F20" font-family="'OpenSans-CondensedBold'" font-size="13">SIGN UP</text>
<text transform="matrix(1 0 0 1 1181.4277 92.667)" fill="#231F20" font-family="'OpenSans-CondensedBold'" font-size="13">LOGIN</text>
<g>
	<text transform="matrix(1 0 0 1 848.0957 704.2168)" fill="#A6A8AB" font-family="'Roboto-Bold'" font-size="15">COPYRIGHT FOOTER</text>
</g>
<path fill="none" stroke="#A6A8AB" stroke-miterlimit="10" d="M38.811,176.166c-0.571,0-1.035-0.463-1.035-1.035V66.799
	c0-0.57,0.464-1.035,1.035-1.035h63.896c0.57,0,1.035,0.465,1.035,1.035v108.332c0,0.572-0.465,1.035-1.035,1.035H38.811z"/>
<rect x="47.418" y="93.445" fill="#E6E7E8" width="20.26" height="2.719"/>
<line fill="none" stroke="#A6A8AB" stroke-miterlimit="10" x1="38.009" y1="166.197" x2="103.506" y2="166.197"/>
<text transform="matrix(1 0 0 1 37.3228 61.0942)" fill="#A6A8AB" font-family="'OpenSans-Bold'" font-size="9">SIGN IN</text>
<g>
	<text transform="matrix(1 0 0 1 252.7495 420.9448)" fill="#A6A8AB" font-family="'Roboto-Bold'" font-size="15">REGISTER AS NEW USER</text>
</g>
<rect x="47.418" y="98.23" fill="none" stroke="#A6A8AB" stroke-miterlimit="10" width="47.256" height="8.508"/>
<rect x="47.418" y="112.471" fill="#E6E7E8" width="16.338" height="2.717"/>
<rect x="57.123" y="151.596" fill="#A6A8AB" width="25.3" height="2.719"/>
<rect x="47.418" y="117.256" fill="none" stroke="#A6A8AB" stroke-miterlimit="10" width="47.256" height="8.506"/>
<rect x="47.418" y="136.117" fill="#A6A8AB" width="47.256" height="8.475"/>
<rect x="58.644" y="138.814" fill="#E6E7E8" width="24.229" height="3.08"/>
<rect x="46.899" y="82.504" fill="#A6A8AB" width="45.749" height="3.859"/>
<g>
	<rect x="44.582" y="169.738" fill="#E6E7E8" width="3.734" height="3.734"/>
	<rect x="57.182" y="169.738" fill="#E6E7E8" width="3.734" height="3.734"/>
	<rect x="69.783" y="169.738" fill="#E6E7E8" width="3.733" height="3.734"/>
	<rect x="82.383" y="169.738" fill="#E6E7E8" width="3.734" height="3.734"/>
	<rect x="93.775" y="169.738" fill="#E6E7E8" width="3.733" height="3.734"/>
</g>
<line fill="none" stroke="#A6A8AB" stroke-width="3" stroke-linecap="round" stroke-miterlimit="10" x1="442.269" y1="88.408" x2="457.291" y2="88.408"/>
<line fill="none" stroke="#A6A8AB" stroke-width="3" stroke-linecap="round" stroke-miterlimit="10" x1="442.269" y1="93.445" x2="457.291" y2="93.445"/>
<line fill="none" stroke="#A6A8AB" stroke-width="3" stroke-linecap="round" stroke-miterlimit="10" x1="442.269" y1="98.482" x2="457.291" y2="98.482"/>
<path fill="none" stroke="#A6A8AB" stroke-miterlimit="10" d="M447.557,248.881c0,2.35-1.904,4.252-4.252,4.252H242.028
	c-2.349,0-4.252-1.902-4.252-4.252v-23.465c0-2.35,1.903-4.252,4.252-4.252h201.276c2.348,0,4.252,1.902,4.252,4.252V248.881z"/>
<g>
	<text transform="matrix(1 0 0 1 242.2192 278.668)" fill="#58595B" font-family="'Roboto-Bold'" font-size="15">PASSWORD</text>
</g>
<path fill="none" stroke="#A6A8AB" stroke-miterlimit="10" d="M447.557,313.092c0,2.35-1.904,4.252-4.252,4.252H242.028
	c-2.349,0-4.252-1.902-4.252-4.252v-23.465c0-2.35,1.903-4.252,4.252-4.252h201.276c2.348,0,4.252,1.902,4.252,4.252V313.092z"/>
<path fill="#A6A8AB" d="M447.557,395.477c0,2.348-1.904,4.252-4.252,4.252H242.028c-2.349,0-4.252-1.904-4.252-4.252V372.01
	c0-2.348,1.903-4.252,4.252-4.252h201.276c2.348,0,4.252,1.904,4.252,4.252V395.477z"/>
<g>
	
		<text transform="matrix(1 0 0 1 299.4175 391.3516)" fill="#FFFFFF" font-family="'Roboto-Black'" font-size="24.4288" letter-spacing="1">LOG IN</text>
</g>
<g>
	
		<text transform="matrix(1 0 0 1 883.54 281.6328)" fill="#58595B" font-family="'Roboto-Black'" font-size="24.4288" letter-spacing="1">LOG IN</text>
</g>
<g>
	<text transform="matrix(1 0 0 1 832.9512 339.3477)" fill="#58595B" font-family="'Roboto-Bold'" font-size="15">EMAIL</text>
</g>
<g>
	<text transform="matrix(1 0 0 1 843.4824 545.8359)" fill="#A6A8AB" font-family="'Roboto-Bold'" font-size="15">REGISTER AS NEW USER</text>
</g>
<path fill="none" stroke="#A6A8AB" stroke-miterlimit="10" d="M1038.289,373.771c0,2.35-1.904,4.252-4.252,4.252H832.761
	c-2.349,0-4.252-1.902-4.252-4.252v-23.465c0-2.35,1.903-4.252,4.252-4.252h201.276c2.348,0,4.252,1.902,4.252,4.252V373.771z"/>
<g>
	<text transform="matrix(1 0 0 1 832.9512 403.5586)" fill="#58595B" font-family="'Roboto-Bold'" font-size="15">PASSWORD</text>
</g>
<path fill="none" stroke="#A6A8AB" stroke-miterlimit="10" d="M1038.289,437.982c0,2.35-1.904,4.252-4.252,4.252H832.761
	c-2.349,0-4.252-1.902-4.252-4.252v-23.465c0-2.35,1.903-4.252,4.252-4.252h201.276c2.348,0,4.252,1.902,4.252,4.252V437.982z"/>
<path fill="#A6A8AB" d="M1038.289,520.367c0,2.348-1.904,4.252-4.252,4.252H832.761c-2.349,0-4.252-1.904-4.252-4.252V496.9
	c0-2.348,1.903-4.252,4.252-4.252h201.276c2.348,0,4.252,1.904,4.252,4.252V520.367z"/>
<g>
	
		<text transform="matrix(1 0 0 1 890.1504 516.2422)" fill="#FFFFFF" font-family="'Roboto-Black'" font-size="24.4288" letter-spacing="1">LOG IN</text>
</g>
<path fill="none" stroke="#A6A8AB" stroke-miterlimit="10" d="M210.197,1541.532c-2.329,0-4.225-1.893-4.225-4.225V846.114
	c0-2.336,1.896-4.225,4.225-4.225h260.774c2.33,0,4.223,1.889,4.223,4.225v691.193c0,2.332-1.893,4.225-4.223,4.225H210.197z"/>
<line fill="none" stroke="#A6A8AB" stroke-miterlimit="10" x1="206.929" y1="1500.126" x2="474.236" y2="1500.126"/>
<g>
	<polygon fill="none" stroke="#E6E7E8" stroke-width="5" stroke-linejoin="round" stroke-miterlimit="10" points="317.646,886.784 
		318.433,865.771 337.026,855.942 354.833,867.134 354.046,888.147 335.452,897.976 	"/>
	<rect x="292.082" y="871.198" fill="#FFFFFF" width="95.091" height="11.521"/>
	<text transform="matrix(1 0 0 1 302.3672 880.3555)"><tspan x="0" y="0" fill="#58595B" font-family="'OpenSans-Bold'" font-size="9.6136">STARTUPS.</tspan><tspan x="55.074" y="0" fill="#58595B" font-family="'OpenSans-Light'" font-size="9.6136">SG</tspan></text>
</g>
<g>
	<polygon fill="none" stroke="#E6E7E8" stroke-width="5" stroke-linejoin="round" stroke-miterlimit="10" points="569.781,888.851 
		570.569,867.837 589.163,858.009 606.969,869.2 606.181,890.214 587.588,900.042 	"/>
	<rect x="544.218" y="873.265" fill="#FFFFFF" width="95.09" height="11.521"/>
	<text transform="matrix(1 0 0 1 554.5029 882.4219)"><tspan x="0" y="0" fill="#58595B" font-family="'OpenSans-Bold'" font-size="9.6136">STARTUPS.</tspan><tspan x="55.074" y="0" fill="#58595B" font-family="'OpenSans-Light'" font-size="9.6136">SG</tspan></text>
</g>
<g>
	
		<text transform="matrix(1 0 0 1 271.5903 937.5361)" fill="#58595B" font-family="'Roboto-Black'" font-size="24.4288" letter-spacing="1">NEW USER</text>
</g>
<g>
	<text transform="matrix(1 0 0 1 243.1753 995.251)" fill="#58595B" font-family="'Roboto-Bold'" font-size="15">NAME</text>
</g>
<g>
	<g>
		<path fill="#A6A8AB" d="M293.509,1524.997c-0.33,0-0.661-0.082-0.96-0.244l-10.69-5.852c-0.642-0.352-1.041-1.023-1.041-1.754
			s0.398-1.404,1.04-1.756l10.69-5.852c0.6-0.326,1.322-0.326,1.922,0l10.69,5.852c0.642,0.352,1.04,1.025,1.04,1.756
			s-0.399,1.402-1.041,1.754l-10.69,5.852C294.17,1524.915,293.839,1524.997,293.509,1524.997z M286.983,1517.147l6.525,3.57
			l6.525-3.57l-6.525-3.572L286.983,1517.147z"/>
	</g>
	<g>
		<path fill="#A6A8AB" d="M293.509,1532.712c-1.104,0-2-0.895-2-2v-7.715c0-1.104,0.896-2,2-2s2,0.896,2,2v7.715
			C295.509,1531.817,294.613,1532.712,293.509,1532.712z"/>
	</g>
	<g>
		<path fill="#A6A8AB" d="M304.2,1526.86c-1.105,0-2-0.895-2-2v-7.713c0-1.105,0.895-2,2-2c1.104,0,2,0.895,2,2v7.713
			C306.2,1525.966,305.304,1526.86,304.2,1526.86z"/>
	</g>
	<g>
		<path fill="#A6A8AB" d="M282.817,1526.86c-1.104,0-2-0.895-2-2v-7.713c0-1.105,0.896-2,2-2c1.105,0,2,0.895,2,2v7.713
			C284.817,1525.966,283.923,1526.86,282.817,1526.86z"/>
	</g>
</g>
<g>
	<g>
		<path fill="#A6A8AB" d="M355.831,1530.528h-19.064c-1.104,0-2-0.895-2-2v-15.051c0-1.104,0.896-2,2-2h19.064c1.104,0,2,0.896,2,2
			v15.051C357.831,1529.634,356.936,1530.528,355.831,1530.528z M338.767,1526.528h15.064v-11.051h-15.064V1526.528z"/>
	</g>
	<rect x="336.767" y="1513.478" fill="#A6A8AB" width="19.064" height="4.051"/>
	<g>
		<path fill="#A6A8AB" d="M342.11,1524.081c0,0.648-0.527,1.172-1.176,1.172s-1.175-0.523-1.175-1.172
			c0-0.65,0.526-1.176,1.175-1.176S342.11,1523.431,342.11,1524.081z"/>
		<path fill="#A6A8AB" d="M345.753,1524.081c0,0.648-0.526,1.172-1.176,1.172c-0.648,0-1.174-0.523-1.174-1.172
			c0-0.65,0.525-1.176,1.174-1.176C345.227,1522.905,345.753,1523.431,345.753,1524.081z"/>
		<path fill="#A6A8AB" d="M349.396,1524.081c0,0.648-0.525,1.172-1.175,1.172s-1.175-0.523-1.175-1.172
			c0-0.65,0.525-1.176,1.175-1.176S349.396,1523.431,349.396,1524.081z"/>
		<path fill="#A6A8AB" d="M353.038,1524.081c0,0.648-0.525,1.172-1.175,1.172c-0.647,0-1.175-0.523-1.175-1.172
			c0-0.65,0.527-1.176,1.175-1.176C352.513,1522.905,353.038,1523.431,353.038,1524.081z"/>
	</g>
	<g>
		<circle fill="#A6A8AB" cx="340.834" cy="1520.487" r="1.175"/>
		<circle fill="#A6A8AB" cx="344.477" cy="1520.487" r="1.175"/>
		<circle fill="#A6A8AB" cx="348.121" cy="1520.487" r="1.175"/>
		<circle fill="#A6A8AB" cx="351.764" cy="1520.487" r="1.175"/>
	</g>
</g>
<path fill="#A6A8AB" d="M404.569,1530.03l-3.889-10.336v-8.42c0-1.105-0.895-2-2-2h-4.646c-1.105,0-2,0.895-2,2v8.422l-3.889,10.334
	c-0.23,0.613-0.146,1.303,0.228,1.842s0.988,0.861,1.645,0.861h12.681c0.656,0,1.271-0.322,1.645-0.861
	C404.716,1531.333,404.801,1530.644,404.569,1530.03z M396.681,1513.274v5.729h-0.646v-5.729H396.681z M392.907,1528.733l2.156-5.73
	h2.588l2.156,5.73H392.907z"/>
<g>
	<g>
		<g>
			<path fill="#A6A8AB" d="M439.794,1524.937c-0.08-0.123-0.127-0.252-0.141-0.395c-0.013-0.143,0.012-0.273,0.074-0.391
				c0.061-0.115,0.154-0.209,0.279-0.279c0.123-0.068,0.282-0.09,0.477-0.064c0.106,0.008,0.201,0.035,0.285,0.084
				s0.166,0.105,0.246,0.17c0.08,0.066,0.156,0.129,0.231,0.193c0.075,0.066,0.153,0.123,0.231,0.172
				c0.045,0.023,0.099,0.051,0.16,0.078c0.062,0.027,0.203,0.082,0.16,0.068c2.064,0.775,2.715,0.062,2.6-0.527
				c-0.117-0.592-3.34-1.652-3.701-1.855c-0.363-0.203-0.655-0.473-0.877-0.812c-0.203-0.316-0.275-0.631-0.219-0.941
				c0.059-0.312,0.197-0.6,0.419-0.861c0.221-0.264,0.495-0.486,0.822-0.67c0.327-0.182,0.653-0.297,0.981-0.348
				c0-0.096,0-0.203,0-0.32s0.006-0.232,0.021-0.346c0.013-0.115,0.04-0.225,0.079-0.328c0.04-0.105,0.1-0.199,0.18-0.281
				c0.088-0.096,0.189-0.156,0.305-0.186s0.227-0.031,0.332-0.008c0.105,0.025,0.205,0.07,0.299,0.143
				c0.092,0.068,0.166,0.156,0.219,0.27c0.08,0.18,0.119,0.361,0.119,0.549c0,0.186,0,0.371,0,0.559
				c0.248,0.057,0.504,0.125,0.77,0.205c0.266,0.082,0.495,0.203,0.69,0.367c0.124,0.096,0.219,0.207,0.285,0.332
				c0.065,0.125,0.095,0.244,0.087,0.357c-0.01,0.115-0.061,0.217-0.153,0.311s-0.237,0.156-0.431,0.189
				c-0.116,0.014-0.227,0.014-0.332,0c-0.106-0.016-0.211-0.043-0.312-0.08c-0.102-0.035-0.206-0.066-0.305-0.115
				c-1.133-0.564-2.486-0.508-2.66,0.309c-0.233,1.094,0.947,0.861,2.334,1.307c0.393,0.127,0.755,0.283,1.096,0.438
				c0.34,0.154,0.648,0.377,0.922,0.668c0.15,0.162,0.256,0.357,0.318,0.584s0.082,0.457,0.061,0.691
				c-0.022,0.234-0.085,0.461-0.186,0.674c-0.103,0.215-0.242,0.391-0.418,0.529c-0.266,0.209-0.549,0.375-0.85,0.498
				c-0.301,0.121-0.62,0.219-0.955,0.291c0,0.113,0.002,0.248,0.006,0.4c0.005,0.154-0.006,0.291-0.033,0.412
				c-0.025,0.131-0.093,0.242-0.199,0.336c-0.105,0.092-0.228,0.158-0.365,0.193c-0.137,0.037-0.275,0.039-0.417,0.006
				c-0.142-0.031-0.261-0.109-0.358-0.232c-0.133-0.16-0.197-0.352-0.193-0.568c0.006-0.221,0.008-0.422,0.008-0.607
				c-0.398-0.09-0.766-0.234-1.102-0.438C440.347,1525.464,440.05,1525.22,439.794,1524.937z"/>
			<path fill="#A6A8AB" d="M442.525,1528.034c-0.103,0-0.206-0.012-0.309-0.035c-0.253-0.059-0.468-0.195-0.638-0.408
				c-0.203-0.244-0.309-0.555-0.303-0.891c0.002-0.076,0.004-0.146,0.005-0.217c-0.303-0.1-0.589-0.229-0.856-0.389
				c-0.378-0.229-0.715-0.506-1.002-0.824c-0.172-0.252-0.246-0.459-0.267-0.682c-0.022-0.242,0.021-0.467,0.129-0.67
				c0.107-0.205,0.269-0.367,0.478-0.482c0.215-0.121,0.471-0.166,0.783-0.125c0.155,0.01,0.323,0.061,0.473,0.148
				c0.104,0.059,0.207,0.131,0.308,0.211l0.247,0.205c0.057,0.051,0.111,0.09,0.168,0.125l0.284,0.123
				c0.517,0.189,0.972,0.289,1.319,0.289c0.382,0,0.506-0.115,0.534-0.148c0.011-0.014,0.042-0.051,0.027-0.123
				c-0.212-0.238-2.055-0.951-2.661-1.186c-0.395-0.152-0.693-0.273-0.794-0.328c-0.433-0.244-0.786-0.572-1.05-0.979
				c-0.275-0.426-0.373-0.865-0.292-1.305c0.073-0.396,0.251-0.766,0.528-1.094c0.257-0.307,0.58-0.57,0.961-0.781
				c0.236-0.133,0.48-0.236,0.726-0.311c0.003-0.111,0.01-0.221,0.023-0.33c0.017-0.148,0.054-0.301,0.107-0.443
				c0.064-0.17,0.161-0.322,0.29-0.453c0.143-0.154,0.328-0.268,0.539-0.32c0.196-0.049,0.385-0.053,0.562-0.012
				c0.186,0.043,0.349,0.121,0.494,0.232c0.155,0.115,0.281,0.27,0.369,0.457c0.111,0.248,0.166,0.502,0.166,0.76v0.168
				c0.136,0.035,0.273,0.074,0.414,0.117c0.334,0.104,0.625,0.26,0.867,0.463c0.163,0.125,0.305,0.291,0.405,0.48
				c0.11,0.211,0.159,0.422,0.144,0.629c-0.019,0.232-0.121,0.447-0.295,0.625c-0.172,0.172-0.408,0.281-0.705,0.33
				c-0.201,0.027-0.335,0.023-0.482,0.002s-0.287-0.057-0.42-0.107c-0.134-0.043-0.245-0.082-0.352-0.135
				c-0.408-0.203-0.867-0.32-1.26-0.32c-0.105,0-0.631,0.014-0.689,0.287c-0.029,0.137-0.016,0.197-0.012,0.207
				c0.059,0.092,0.548,0.186,0.84,0.24c0.35,0.066,0.744,0.141,1.171,0.279c0.435,0.139,0.825,0.311,1.149,0.457
				c0.398,0.18,0.762,0.441,1.079,0.779c0.207,0.225,0.353,0.49,0.437,0.795c0.078,0.285,0.104,0.578,0.076,0.871
				c-0.027,0.291-0.105,0.574-0.232,0.842c-0.137,0.285-0.325,0.523-0.562,0.709c-0.299,0.236-0.625,0.428-0.968,0.566
				c-0.206,0.082-0.419,0.154-0.638,0.217c0.006,0.195-0.009,0.369-0.045,0.533c-0.045,0.225-0.17,0.438-0.357,0.602
				c-0.172,0.148-0.362,0.248-0.57,0.303C442.762,1528.019,442.644,1528.034,442.525,1528.034z M440.421,1524.304l-0.172,0.006
				c-0.05,0.027-0.068,0.055-0.08,0.076c-0.011,0.021-0.022,0.051-0.018,0.109c0.006,0.061,0.025,0.113,0.061,0.168
				c0.174,0.184,0.436,0.398,0.729,0.574c0.288,0.174,0.608,0.301,0.953,0.377l0.391,0.088v0.4c0,0.189-0.002,0.395-0.008,0.617
				c-0.002,0.098,0.022,0.172,0.078,0.24l0.171,0.074c0.03,0,0.06-0.004,0.089-0.012c0.066-0.018,0.119-0.047,0.17-0.09
				c0.055-0.145,0.062-0.242,0.059-0.354c-0.004-0.16-0.006-0.299-0.006-0.416v-0.404l0.395-0.086
				c0.305-0.064,0.598-0.154,0.874-0.266c0.254-0.104,0.499-0.246,0.726-0.426c0.117-0.092,0.207-0.207,0.277-0.352
				c0.075-0.16,0.122-0.33,0.139-0.506c0.016-0.176,0.002-0.344-0.045-0.514c-0.041-0.148-0.107-0.271-0.203-0.377
				c-0.225-0.238-0.48-0.424-0.76-0.549c-0.301-0.137-0.658-0.293-1.044-0.418c-0.366-0.117-0.729-0.188-1.05-0.248
				c-0.639-0.121-1.19-0.225-1.486-0.67c-0.171-0.258-0.217-0.584-0.135-0.969c0.145-0.674,0.768-1.078,1.668-1.078
				c0.55,0,1.156,0.152,1.705,0.426c0.064,0.031,0.132,0.051,0.198,0.074c0.126,0.045,0.196,0.062,0.269,0.072
				c0.123,0.008,0.16,0.004,0.196,0c0.104-0.018,0.143-0.049,0.144-0.049c-0.059-0.143-0.107-0.197-0.174-0.25
				c-0.158-0.131-0.326-0.221-0.532-0.283c-0.251-0.076-0.497-0.141-0.733-0.195l-0.389-0.09v-0.957c0-0.117-0.025-0.23-0.076-0.344
				c-0.014-0.029-0.031-0.053-0.059-0.072c-0.043-0.033-0.078-0.049-0.119-0.059l-0.004,0.006l-0.158,0.051
				c-0.031,0.033-0.055,0.068-0.07,0.109c-0.024,0.064-0.041,0.133-0.049,0.207c-0.013,0.098-0.018,0.193-0.018,0.289v0.75
				l-0.424,0.064c-0.271,0.043-0.545,0.141-0.813,0.291c-0.273,0.152-0.503,0.338-0.683,0.553c-0.168,0.197-0.269,0.404-0.311,0.633
				c-0.034,0.184,0.014,0.371,0.146,0.578c0.177,0.271,0.406,0.482,0.701,0.648c0.089,0.049,0.34,0.143,0.666,0.268
				c2.436,0.943,3.172,1.375,3.281,1.926c0.066,0.34-0.02,0.688-0.236,0.951c-0.193,0.234-0.576,0.514-1.307,0.514
				c-0.485,0-1.064-0.125-1.723-0.373l0.094-0.262l-0.113,0.254l-0.166-0.07c-0.081-0.035-0.145-0.066-0.197-0.096
				c-0.126-0.078-0.225-0.148-0.322-0.234l-0.188-0.158c-0.086-0.068-0.146-0.111-0.208-0.146L440.421,1524.304z"/>
		</g>
	</g>
	<g>
		<path fill="#A6A8AB" d="M445.011,1532.649c-0.395,0.021-0.844-0.006-1.29-0.014c-0.451-0.008-0.919-0.016-1.403-0.016
			c-2.684,0-9.81,0-9.81-6.986c0-2.859,0.95-6.516,3.011-8.646c-0.381-1.818-0.832-4.596-0.512-5.557
			c0.258-0.771,1.012-1.596,2.358-1.596c0.451,0,0.89,0.088,1.353,0.182c0.379,0.074,0.807,0.16,1.113,0.16
			c0.111,0,0.158-0.012,0.158-0.012c1.107-0.369,2.253-0.582,3.139-0.582c0.584,0,1.096,0.092,1.531,0.273
			c0.098-0.029,0.207-0.062,0.298-0.09c0.631-0.191,1.347-0.408,2.097-0.408c0.531,0,1.016,0.111,1.441,0.33
			c1.129,0.588,1.994,1.816,0.881,6.572c2.749,2.717,3.908,8.625,3.274,11.236C451.403,1532.636,447.255,1532.649,445.011,1532.649z
			 M439.666,1517.296c0.187,0.807-0.146,1.67-0.87,2.135c-1.262,0.809-2.288,3.592-2.288,6.203c0,1.748,0.417,2.986,5.81,2.986
			c0.506,0,0.996,0.008,1.469,0.016c0.417,0.008,0.819,0.014,1.205,0.014c0,0,0,0,0.001,0c2.774,0,3.339-0.312,3.771-2.096
			c0.447-1.844-1.062-6.992-2.525-7.703c-0.865-0.42-1.309-1.396-1.056-2.324c0.263-0.965,0.481-2.012,0.606-2.834
			c-0.449,0.131-0.908,0.242-1.373,0.242c-0.562,0-0.992-0.156-1.311-0.352c-0.453,0.006-1.178,0.152-1.855,0.379
			c-0.645,0.213-1.446,0.252-2.17,0.17C439.243,1515.155,439.476,1516.394,439.666,1517.296z"/>
	</g>
</g>
<path fill="#A6A8AB" d="M252.243,1517.394l-9.121-7.482c-0.736-0.605-1.637-0.908-2.537-0.908c-0.873,0-1.746,0.285-2.473,0.855
	l-9.513,7.482c-1.341,1.055-1.864,2.842-1.308,4.453c0.488,1.412,1.715,2.416,3.158,2.643v4.566c0,2.209,1.791,4,4,4h11.879
	c2.209,0,4-1.791,4-4v-4.566c1.428-0.225,2.645-1.211,3.143-2.604C254.041,1520.241,253.549,1518.466,252.243,1517.394z
	 M234.45,1529.003v-4.562h11.879v4.562H234.45z M248.091,1520.485v-0.045H231.13l9.455-7.438l9.121,7.482H248.091z"/>
<path fill="none" stroke="#A6A8AB" stroke-miterlimit="10" d="M524.765,1499.011c-2.621,0-4.753-1.895-4.753-4.225V846.114
	c0-2.336,2.132-4.225,4.753-4.225h817.44c2.621,0,4.75,1.889,4.75,4.225v648.672c0,2.33-2.129,4.225-4.75,4.225H524.765z"/>
<path fill="#E6E7E8" d="M1236.395,868.513c0,5.902-4.789,10.689-10.693,10.689h-51.98c-5.904,0-10.693-4.787-10.693-10.689l0,0
	c0-5.906,4.789-10.693,10.693-10.693h51.98C1231.605,857.819,1236.395,862.606,1236.395,868.513L1236.395,868.513z"/>
<path fill="#E6E7E8" d="M1320.609,868.513c0,5.902-4.789,10.689-10.693,10.689h-51.979c-5.906,0-10.693-4.787-10.693-10.689l0,0
	c0-5.906,4.787-10.693,10.693-10.693h51.979C1315.82,857.819,1320.609,862.606,1320.609,868.513L1320.609,868.513z"/>
<text transform="matrix(1 0 0 1 1261.3721 873.4609)" fill="#231F20" font-family="'OpenSans-CondensedBold'" font-size="13">SIGN UP</text>
<text transform="matrix(1 0 0 1 1182.3848 873.4609)" fill="#231F20" font-family="'OpenSans-CondensedBold'" font-size="13">LOGIN</text>
<g>
	<text transform="matrix(1 0 0 1 849.0518 1485.0107)" fill="#A6A8AB" font-family="'Roboto-Bold'" font-size="15">COPYRIGHT FOOTER</text>
</g>
<line fill="none" stroke="#A6A8AB" stroke-width="3" stroke-linecap="round" stroke-miterlimit="10" x1="443.225" y1="869.202" x2="458.247" y2="869.202"/>
<line fill="none" stroke="#A6A8AB" stroke-width="3" stroke-linecap="round" stroke-miterlimit="10" x1="443.225" y1="874.239" x2="458.247" y2="874.239"/>
<line fill="none" stroke="#A6A8AB" stroke-width="3" stroke-linecap="round" stroke-miterlimit="10" x1="443.225" y1="879.276" x2="458.247" y2="879.276"/>
<path fill="none" stroke="#A6A8AB" stroke-miterlimit="10" d="M448.513,1029.675c0,2.35-1.904,4.252-4.252,4.252H242.984
	c-2.349,0-4.252-1.902-4.252-4.252v-23.465c0-2.35,1.903-4.252,4.252-4.252h201.276c2.348,0,4.252,1.902,4.252,4.252V1029.675z"/>
<g>
	<text transform="matrix(1 0 0 1 243.1753 1059.4619)" fill="#58595B" font-family="'Roboto-Bold'" font-size="15">EMAIL</text>
</g>
<path fill="none" stroke="#A6A8AB" stroke-miterlimit="10" d="M448.513,1093.886c0,2.35-1.904,4.252-4.252,4.252H242.984
	c-2.349,0-4.252-1.902-4.252-4.252v-23.465c0-2.35,1.903-4.252,4.252-4.252h201.276c2.348,0,4.252,1.902,4.252,4.252V1093.886z"/>
<g>
	<text transform="matrix(1 0 0 1 240.7065 1126.7959)" fill="#58595B" font-family="'Roboto-Bold'" font-size="15">PASSWORD</text>
</g>
<path fill="none" stroke="#A6A8AB" stroke-miterlimit="10" d="M446.044,1161.22c0,2.35-1.904,4.252-4.252,4.252H240.516
	c-2.349,0-4.252-1.902-4.252-4.252v-23.465c0-2.35,1.903-4.252,4.252-4.252h201.276c2.348,0,4.252,1.902,4.252,4.252V1161.22z"/>
<g>
	<text transform="matrix(1 0 0 1 241.6626 1188.7959)" fill="#58595B" font-family="'Roboto-Bold'" font-size="15">CONFIRM PASSWORD</text>
</g>
<path fill="none" stroke="#A6A8AB" stroke-miterlimit="10" d="M447,1223.22c0,2.35-1.904,4.252-4.252,4.252H241.472
	c-2.349,0-4.252-1.902-4.252-4.252v-23.465c0-2.35,1.903-4.252,4.252-4.252h201.276c2.348,0,4.252,1.902,4.252,4.252V1223.22z"/>
<g>
	<text transform="matrix(1 0 0 1 730.145 1033.377)" fill="#58595B" font-family="'Roboto-Bold'" font-size="15">NAME</text>
</g>
<path fill="none" stroke="#A6A8AB" stroke-miterlimit="10" d="M935.482,1067.801c0,2.35-1.904,4.252-4.252,4.252H729.954
	c-2.349,0-4.252-1.902-4.252-4.252v-23.465c0-2.35,1.903-4.252,4.252-4.252H931.23c2.348,0,4.252,1.902,4.252,4.252V1067.801z"/>
<g>
	<text transform="matrix(1 0 0 1 730.145 1097.5879)" fill="#58595B" font-family="'Roboto-Bold'" font-size="15">EMAIL</text>
</g>
<path fill="none" stroke="#A6A8AB" stroke-miterlimit="10" d="M935.482,1132.012c0,2.35-1.904,4.252-4.252,4.252H729.954
	c-2.349,0-4.252-1.902-4.252-4.252v-23.465c0-2.35,1.903-4.252,4.252-4.252H931.23c2.348,0,4.252,1.902,4.252,4.252V1132.012z"/>
<g>
	<text transform="matrix(1 0 0 1 727.6763 1164.9219)" fill="#58595B" font-family="'Roboto-Bold'" font-size="15">PASSWORD</text>
</g>
<path fill="none" stroke="#A6A8AB" stroke-miterlimit="10" d="M933.014,1199.346c0,2.35-1.904,4.252-4.252,4.252H727.485
	c-2.349,0-4.252-1.902-4.252-4.252v-23.465c0-2.35,1.903-4.252,4.252-4.252h201.276c2.348,0,4.252,1.902,4.252,4.252V1199.346z"/>
<g>
	<text transform="matrix(1 0 0 1 728.6323 1226.9219)" fill="#58595B" font-family="'Roboto-Bold'" font-size="15">CONFIRM PASSWORD</text>
</g>
<path fill="none" stroke="#A6A8AB" stroke-miterlimit="10" d="M933.97,1261.346c0,2.35-1.904,4.252-4.252,4.252H728.441
	c-2.349,0-4.252-1.902-4.252-4.252v-23.465c0-2.35,1.903-4.252,4.252-4.252h201.276c2.348,0,4.252,1.902,4.252,4.252V1261.346z"/>
<g>
	<text transform="matrix(1 0 0 1 241.6626 1258.3604)" fill="#58595B" font-family="'Roboto-Bold'" font-size="15">I AM A...</text>
</g>
<g>
	<text transform="matrix(1 0 0 1 270.6626 1285.7754)" fill="#A6A8AB" font-family="'Roboto-Bold'" font-size="15">START-UP</text>
</g>
<path fill="#A6A8AB" d="M448.513,1459.735c0,2.348-1.904,4.252-4.252,4.252H242.984c-2.349,0-4.252-1.904-4.252-4.252v-23.467
	c0-2.348,1.903-4.252,4.252-4.252h201.276c2.348,0,4.252,1.904,4.252,4.252V1459.735z"/>
<g>
	
		<text transform="matrix(1 0 0 1 287.1226 1455.6104)" fill="#FFFFFF" font-family="'Roboto-Black'" font-size="24.4288" letter-spacing="1">SIGN UP!</text>
</g>
<path fill="#A6A8AB" d="M1038.06,1345.932c0,2.348-1.904,4.252-4.252,4.252H832.532c-2.35,0-4.252-1.904-4.252-4.252v-23.467
	c0-2.348,1.902-4.252,4.252-4.252h201.275c2.348,0,4.252,1.904,4.252,4.252V1345.932z"/>
<g>
	
		<text transform="matrix(1 0 0 1 876.6699 1341.8066)" fill="#FFFFFF" font-family="'Roboto-Black'" font-size="24.4288" letter-spacing="1">SIGN UP!</text>
</g>
<g>
	
		<text transform="matrix(1 0 0 1 862.3223 965.9033)" fill="#58595B" font-family="'Roboto-Black'" font-size="24.4288" letter-spacing="1">new user</text>
</g>
<text transform="matrix(1 0 0 1 40.6753 841.8896)" fill="#A6A8AB" font-family="'OpenSans-Bold'" font-size="9">SIGN UP</text>
<g>
	<path fill="none" stroke="#A6A8AB" stroke-miterlimit="10" d="M41.57,999.457c-0.572,0-1.036-0.466-1.036-1.036V846.428
		c0-0.572,0.464-1.036,1.036-1.036h63.896c0.571,0,1.034,0.464,1.034,1.036v151.993c0,0.57-0.463,1.036-1.034,1.036H41.57z"/>
	<rect x="50.176" y="866.327" fill="#E6E7E8" width="20.261" height="2.717"/>
	<line fill="none" stroke="#A6A8AB" stroke-miterlimit="10" x1="40.767" y1="989.488" x2="106.265" y2="989.488"/>
	<rect x="50.176" y="871.112" fill="none" stroke="#A6A8AB" stroke-miterlimit="10" width="47.257" height="8.506"/>
	<rect x="50.176" y="885.35" fill="#E6E7E8" width="16.339" height="2.717"/>
	<rect x="58.824" y="944.743" fill="#E6E7E8" width="23.225" height="3.082"/>
	<rect x="58.824" y="950.769" fill="#E6E7E8" width="30.055" height="3.081"/>
	<rect x="58.824" y="956.796" fill="#E6E7E8" width="24.229" height="3.079"/>
	<rect x="58.824" y="962.821" fill="#E6E7E8" width="26.84" height="3.082"/>
	<rect x="50.176" y="890.135" fill="none" stroke="#A6A8AB" stroke-miterlimit="10" width="47.257" height="8.506"/>
	<rect x="50.224" y="904.395" fill="#E6E7E8" width="32.676" height="2.716"/>
	<rect x="50.224" y="909.179" fill="none" stroke="#A6A8AB" stroke-miterlimit="10" width="47.256" height="8.507"/>
	<rect x="50.224" y="921.872" fill="#E6E7E8" width="32.676" height="2.716"/>
	<rect x="50.224" y="926.656" fill="none" stroke="#A6A8AB" stroke-miterlimit="10" width="47.256" height="8.506"/>
	<rect x="50.176" y="944.743" fill="none" stroke="#A6A8AB" stroke-miterlimit="10" width="2.745" height="3.082"/>
	<rect x="50.176" y="950.769" fill="none" stroke="#A6A8AB" stroke-miterlimit="10" width="2.745" height="3.081"/>
	<rect x="50.176" y="956.796" fill="none" stroke="#A6A8AB" stroke-miterlimit="10" width="2.745" height="3.079"/>
	<rect x="50.176" y="962.821" fill="none" stroke="#A6A8AB" stroke-miterlimit="10" width="2.745" height="3.082"/>
	<rect x="50.176" y="972.604" fill="#A6A8AB" width="47.257" height="8.473"/>
	<rect x="61.402" y="975.301" fill="#E6E7E8" width="24.229" height="3.079"/>
	<rect x="50.642" y="856.118" fill="#A6A8AB" width="45.749" height="3.857"/>
	<g>
		<rect x="47.054" y="992.814" fill="#E6E7E8" width="3.733" height="3.734"/>
		<rect x="59.654" y="992.814" fill="#E6E7E8" width="3.734" height="3.734"/>
		<rect x="72.254" y="992.814" fill="#E6E7E8" width="3.733" height="3.734"/>
		<rect x="84.854" y="992.814" fill="#E6E7E8" width="3.733" height="3.734"/>
		<rect x="96.246" y="992.814" fill="#E6E7E8" width="3.734" height="3.734"/>
	</g>
</g>
<rect x="243.334" y="1273.442" fill="none" stroke="#D0D2D3" stroke-width="2" stroke-miterlimit="10" width="12.333" height="12.333"/>
<g>
	<text transform="matrix(1 0 0 1 270.6626 1313.0703)" fill="#A6A8AB" font-family="'Roboto-Bold'" font-size="15">INVESTOR</text>
</g>
<rect x="243.334" y="1300.737" fill="none" stroke="#D0D2D3" stroke-width="2" stroke-miterlimit="10" width="12.333" height="12.333"/>
<g>
	<text transform="matrix(1 0 0 1 270.6626 1340.3652)" fill="#A6A8AB" font-family="'Roboto-Bold'" font-size="15">DEVELOPER</text>
</g>
<rect x="243.334" y="1328.032" fill="none" stroke="#D0D2D3" stroke-width="2" stroke-miterlimit="10" width="12.333" height="12.333"/>
<g>
	<text transform="matrix(1 0 0 1 270.6626 1367.6602)" fill="#A6A8AB" font-family="'Roboto-Bold'" font-size="15">DESIGNER</text>
</g>
<rect x="243.334" y="1355.327" fill="none" stroke="#D0D2D3" stroke-width="2" stroke-miterlimit="10" width="12.333" height="12.333"/>
<g>
	<text transform="matrix(1 0 0 1 270.6626 1394.9551)" fill="#A6A8AB" font-family="'Roboto-Bold'" font-size="15">HUSTLER</text>
</g>
<rect x="243.334" y="1382.622" fill="none" stroke="#D0D2D3" stroke-width="2" stroke-miterlimit="10" width="12.333" height="12.333"/>
<g>
	<text transform="matrix(1 0 0 1 994.8867 1035.9971)" fill="#58595B" font-family="'Roboto-Bold'" font-size="15">I AM A...</text>
</g>
<g>
	<text transform="matrix(1 0 0 1 1023.8867 1063.4121)" fill="#A6A8AB" font-family="'Roboto-Bold'" font-size="15">START-UP</text>
</g>
<rect x="996.559" y="1051.079" fill="none" stroke="#D0D2D3" stroke-width="2" stroke-miterlimit="10" width="12.332" height="12.333"/>
<g>
	<text transform="matrix(1 0 0 1 1023.8867 1090.707)" fill="#A6A8AB" font-family="'Roboto-Bold'" font-size="15">INVESTOR</text>
</g>
<rect x="996.559" y="1078.374" fill="none" stroke="#D0D2D3" stroke-width="2" stroke-miterlimit="10" width="12.332" height="12.333"/>
<g>
	<text transform="matrix(1 0 0 1 1023.8867 1118.002)" fill="#A6A8AB" font-family="'Roboto-Bold'" font-size="15">DEVELOPER</text>
</g>
<rect x="996.559" y="1105.669" fill="none" stroke="#D0D2D3" stroke-width="2" stroke-miterlimit="10" width="12.332" height="12.333"/>
<g>
	<text transform="matrix(1 0 0 1 1023.8867 1145.2969)" fill="#A6A8AB" font-family="'Roboto-Bold'" font-size="15">DESIGNER</text>
</g>
<rect x="996.559" y="1132.964" fill="none" stroke="#D0D2D3" stroke-width="2" stroke-miterlimit="10" width="12.332" height="12.333"/>
<g>
	<text transform="matrix(1 0 0 1 1023.8867 1172.5918)" fill="#A6A8AB" font-family="'Roboto-Bold'" font-size="15">HUSTLER</text>
</g>
<rect x="996.559" y="1160.259" fill="none" stroke="#D0D2D3" stroke-width="2" stroke-miterlimit="10" width="12.332" height="12.333"/>
</svg>
