<?xml version="1.0" encoding="utf-8"?>
<!-- Generator: Adobe Illustrator 16.0.0, SVG Export Plug-In . SVG Version: 6.00 Build 0)  -->
<!DOCTYPE svg PUBLIC "-//W3C//DTD SVG 1.1//EN" "http://www.w3.org/Graphics/SVG/1.1/DTD/svg11.dtd">
<svg version="1.1" id="Layer_1" xmlns="http://www.w3.org/2000/svg" xmlns:xlink="http://www.w3.org/1999/xlink" x="0px" y="0px"
	 width="64px" height="59px" viewBox="0 0 64 59" enable-background="new 0 0 64 59" xml:space="preserve">
<g>
	<path fill="#ED6306" d="M48.956,7.697H44.58V6.135c0-0.939-0.625-1.564-1.563-1.564c-0.938,0-1.563,0.625-1.563,1.564v1.562H22.698
		V6.135c0-0.939-0.625-1.564-1.563-1.564c-0.938,0-1.562,0.625-1.562,1.564v1.562h-4.376c-4.533,0-8.127,3.75-8.127,8.127v30.479
		c0,4.531,3.751,8.127,8.127,8.127h33.604c4.533,0,8.127-3.752,8.127-8.127V15.824C57.083,11.447,53.332,7.697,48.956,7.697z
		 M15.196,10.822h4.376v2.189c-1.876,0.625-3.126,2.344-3.126,4.375c0,2.658,2.032,4.689,4.688,4.689
		c2.657,0,4.689-2.031,4.689-4.689c0-2.031-1.25-3.75-3.126-4.375v-2.189h18.755v2.189c-1.875,0.625-3.126,2.344-3.126,4.375
		c0,2.658,2.032,4.689,4.689,4.689c2.657,0,4.688-2.031,4.688-4.689c0-2.031-1.25-3.75-3.125-4.375v-2.189h4.376
		c2.813,0,5.001,2.346,5.001,5.002v7.502H10.194v-7.502C10.194,13.168,12.539,10.822,15.196,10.822z M21.135,15.824
		c0.938,0,1.563,0.625,1.563,1.562s-0.625,1.562-1.563,1.562c-0.938,0-1.562-0.625-1.562-1.562S20.197,15.824,21.135,15.824z
		 M43.017,15.824c0.938,0,1.563,0.625,1.563,1.562s-0.625,1.562-1.563,1.562c-0.938,0-1.563-0.625-1.563-1.562
		S42.079,15.824,43.017,15.824z M48.956,51.459H15.352c-2.813,0-5.001-2.344-5.001-5V26.453h43.763v20.006
		C53.957,49.115,51.613,51.459,48.956,51.459z"/>
	<path fill="#ED6306" d="M28.325,31.141h-1.563c-0.938,0-1.563,0.625-1.563,1.564c0,0.938,0.625,1.562,1.563,1.562h1.563
		c0.938,0,1.563-0.625,1.563-1.562C29.888,31.766,29.106,31.141,28.325,31.141z"/>
	<path fill="#ED6306" d="M37.39,31.141h-1.563c-0.938,0-1.563,0.625-1.563,1.564c0,0.938,0.625,1.562,1.563,1.562h1.563
		c0.938,0,1.563-0.625,1.563-1.562C38.953,31.766,38.171,31.141,37.39,31.141z"/>
	<path fill="#ED6306" d="M19.259,31.141h-1.563c-0.938,0-1.562,0.625-1.562,1.564c0,0.938,0.625,1.562,1.562,1.562h1.563
		c0.938,0,1.563-0.625,1.563-1.562C20.822,31.766,20.041,31.141,19.259,31.141z"/>
	<path fill="#ED6306" d="M46.455,31.141h-1.563c-0.938,0-1.563,0.625-1.563,1.564c0,0.938,0.625,1.562,1.563,1.562h1.563
		c0.938,0,1.563-0.625,1.563-1.562C48.018,31.766,47.236,31.141,46.455,31.141z"/>
	<path fill="#ED6306" d="M19.259,37.393h-1.563c-0.938,0-1.562,0.625-1.562,1.562c0,0.939,0.625,1.564,1.562,1.564h1.563
		c0.938,0,1.563-0.625,1.563-1.564C20.822,38.018,20.041,37.393,19.259,37.393z"/>
	<path fill="#ED6306" d="M28.325,37.393h-1.563c-0.938,0-1.563,0.625-1.563,1.562c0,0.939,0.625,1.564,1.563,1.564h1.563
		c0.938,0,1.563-0.625,1.563-1.564C29.888,38.018,29.106,37.393,28.325,37.393z"/>
	<path fill="#ED6306" d="M46.455,37.393h-1.563c-0.938,0-1.563,0.625-1.563,1.562c0,0.939,0.625,1.564,1.563,1.564h1.563
		c0.938,0,1.563-0.625,1.563-1.564C48.018,38.018,47.236,37.393,46.455,37.393z"/>
	<path fill="#ED6306" d="M37.39,37.393h-1.563c-0.938,0-1.563,0.625-1.563,1.562c0,0.939,0.625,1.564,1.563,1.564h1.563
		c0.938,0,1.563-0.625,1.563-1.564C38.953,38.018,38.171,37.393,37.39,37.393z"/>
	<path fill="#ED6306" d="M37.39,43.645h-1.563c-0.938,0-1.563,0.625-1.563,1.562c0,0.939,0.625,1.564,1.563,1.564h1.563
		c0.938,0,1.563-0.625,1.563-1.564C38.953,44.27,38.171,43.645,37.39,43.645z"/>
	<path fill="#ED6306" d="M46.455,43.645h-1.563c-0.938,0-1.563,0.625-1.563,1.562c0,0.939,0.625,1.564,1.563,1.564h1.563
		c0.938,0,1.563-0.625,1.563-1.564C48.018,44.27,47.236,43.645,46.455,43.645z"/>
	<path fill="#ED6306" d="M28.325,43.645h-1.563c-0.938,0-1.563,0.625-1.563,1.562c0,0.939,0.625,1.564,1.563,1.564h1.563
		c0.938,0,1.563-0.625,1.563-1.564C29.888,44.27,29.106,43.645,28.325,43.645z"/>
	<path fill="#ED6306" d="M19.259,43.645h-1.563c-0.938,0-1.562,0.625-1.562,1.562c0,0.939,0.625,1.564,1.562,1.564h1.563
		c0.938,0,1.563-0.625,1.563-1.564C20.822,44.27,20.041,43.645,19.259,43.645z"/>
</g>
</svg>
