<?xml version="1.0" encoding="utf-8"?>
<!-- Generator: Adobe Illustrator 16.0.0, SVG Export Plug-In . SVG Version: 6.00 Build 0)  -->
<!DOCTYPE svg PUBLIC "-//W3C//DTD SVG 1.1//EN" "http://www.w3.org/Graphics/SVG/1.1/DTD/svg11.dtd">
<svg version="1.1" id="Layer_1" xmlns="http://www.w3.org/2000/svg" xmlns:xlink="http://www.w3.org/1999/xlink" x="0px" y="0px"
	 width="31.256px" height="31.257px" viewBox="0 0 31.256 31.257" enable-background="new 0 0 31.256 31.257" xml:space="preserve">
<g>
	<g>
		
			<rect x="4.41" y="7.664" fill="none" stroke="#333333" stroke-width="2" stroke-linecap="round" stroke-linejoin="round" stroke-miterlimit="10" width="22.437" height="4.768"/>
		<g>
			<circle fill="#333333" stroke="#333333" stroke-miterlimit="10" cx="9.315" cy="20.141" r="1.383"/>
			<circle fill="#333333" stroke="#333333" stroke-miterlimit="10" cx="13.602" cy="20.141" r="1.383"/>
			<circle fill="#333333" stroke="#333333" stroke-miterlimit="10" cx="17.89" cy="20.141" r="1.383"/>
			<circle fill="#333333" stroke="#333333" stroke-miterlimit="10" cx="22.177" cy="20.141" r="1.383"/>
		</g>
		<g>
			<path fill="#333333" stroke="#333333" stroke-miterlimit="10" d="M10.579,15.914c0,0.766-0.62,1.381-1.382,1.381
				c-0.763,0-1.383-0.615-1.383-1.381c0-0.764,0.62-1.385,1.383-1.385C9.959,14.529,10.579,15.15,10.579,15.914z"/>
			<path fill="#333333" stroke="#333333" stroke-miterlimit="10" d="M14.866,15.914c0,0.766-0.619,1.381-1.381,1.381
				c-0.765,0-1.384-0.615-1.384-1.381c0-0.764,0.619-1.385,1.384-1.385C14.248,14.529,14.866,15.15,14.866,15.914z"/>
			<path fill="#333333" stroke="#333333" stroke-miterlimit="10" d="M19.154,15.914c0,0.766-0.619,1.381-1.383,1.381
				s-1.381-0.615-1.381-1.381c0-0.764,0.617-1.385,1.381-1.385S19.154,15.15,19.154,15.914z"/>
			<path fill="#333333" stroke="#333333" stroke-miterlimit="10" d="M23.441,15.914c0,0.766-0.618,1.381-1.382,1.381
				c-0.763,0-1.383-0.615-1.383-1.381c0-0.764,0.62-1.385,1.383-1.385C22.823,14.529,23.441,15.15,23.441,15.914z"/>
		</g>
	</g>
	
		<rect x="4.41" y="7.664" fill="none" stroke="#333333" stroke-width="2.5" stroke-linecap="round" stroke-linejoin="round" stroke-miterlimit="10" width="22.437" height="17.863"/>
	
		<line fill="none" stroke="#333333" stroke-width="2.6196" stroke-linecap="round" stroke-linejoin="round" stroke-miterlimit="10" x1="23.441" y1="5.73" x2="23.441" y2="8.932"/>
	
		<line fill="none" stroke="#333333" stroke-width="2.6196" stroke-linecap="round" stroke-linejoin="round" stroke-miterlimit="10" x1="7.932" y1="5.73" x2="7.932" y2="8.932"/>
</g>
</svg>
