<?xml version="1.0" encoding="utf-8"?>
<!-- Generator: Adobe Illustrator 16.0.0, SVG Export Plug-In . SVG Version: 6.00 Build 0)  -->
<!DOCTYPE svg PUBLIC "-//W3C//DTD SVG 1.1//EN" "http://www.w3.org/Graphics/SVG/1.1/DTD/svg11.dtd">
<svg version="1.1" id="Layer_1" xmlns="http://www.w3.org/2000/svg" xmlns:xlink="http://www.w3.org/1999/xlink" x="0px" y="0px"
	 width="31.256px" height="31.257px" viewBox="0 0 31.256 31.257" enable-background="new 0 0 31.256 31.257" xml:space="preserve">
<g>
	<g>
		<path fill="#ED6306" d="M25.161,25.155H6.096c-1.104,0-2-0.896-2-2V8.104c0-1.105,0.896-2,2-2h19.064c1.104,0,2,0.895,2,2v15.051
			C27.161,24.259,26.265,25.155,25.161,25.155z M8.096,21.155h15.064V10.104H8.096V21.155z"/>
	</g>
	<rect x="6.096" y="8.104" fill="#ED6306" width="19.064" height="4.051"/>
	<g>
		<circle fill="#ED6306" cx="10.264" cy="18.706" r="1.175"/>
		<circle fill="#ED6306" cx="13.907" cy="18.706" r="1.175"/>
		<circle fill="#ED6306" cx="17.55" cy="18.706" r="1.175"/>
		<circle fill="#ED6306" cx="21.193" cy="18.706" r="1.175"/>
	</g>
	<g>
		<circle fill="#ED6306" cx="10.164" cy="15.114" r="1.175"/>
		<circle fill="#ED6306" cx="13.806" cy="15.114" r="1.175"/>
		<circle fill="#ED6306" cx="17.45" cy="15.114" r="1.174"/>
		<circle fill="#ED6306" cx="21.092" cy="15.114" r="1.175"/>
	</g>
</g>
</svg>
