<?xml version="1.0" encoding="utf-8"?>
<!-- Generator: Adobe Illustrator 16.0.0, SVG Export Plug-In . SVG Version: 6.00 Build 0)  -->
<!DOCTYPE svg PUBLIC "-//W3C//DTD SVG 1.1//EN" "http://www.w3.org/Graphics/SVG/1.1/DTD/svg11.dtd">
<svg version="1.1" id="Layer_1" xmlns="http://www.w3.org/2000/svg" xmlns:xlink="http://www.w3.org/1999/xlink" x="0px" y="0px"
	 width="260px" height="260px" viewBox="0 0 260 260" enable-background="new 0 0 260 260" xml:space="preserve">
<g>
	<g>
		<g>
			<polyline fill="none" points="222.181,97.845 222.033,75.963 129.184,23.288 37.18,77.348 37.318,97.845 			"/>
			<polyline fill="none" points="37.809,162.188 37.957,184.089 130.799,236.73 222.817,182.686 222.671,162.188 			"/>
			<path fill="#1BEDD4" d="M37.18,77.348l92.004-54.06l92.849,52.675l0.147,21.882h18.612l-0.209-27.413
				c-0.019-3.307-1.796-6.372-4.721-8.021L133.696,4.443c-2.878-1.652-6.445-1.617-9.295,0.09l-101.305,59.5
				c-2.846,1.697-4.605,4.749-4.577,8.078l0.172,25.733h18.626L37.18,77.348z"/>
			<path fill="#26B6A5" d="M222.817,182.686l-92.018,54.045l-92.843-52.642l-0.147-21.901H19.206l0.193,27.378
				c0.03,3.337,1.83,6.398,4.727,8.056l102.15,57.968c1.456,0.795,3.03,1.184,4.607,1.184c1.622,0,3.252-0.42,4.713-1.26
				l101.304-59.532c2.851-1.644,4.593-4.735,4.58-8.095l-0.192-25.698h-18.617L222.817,182.686z"/>
		</g>
	</g>
	<g>
		<path fill="#ED6306" d="M104.954,179.861c0-1.975-0.687-3.458-2.091-4.592c-1.399-1.14-3.851-2.257-7.385-3.423
			c-3.48-1.188-6.355-2.341-8.576-3.422c-7.265-3.592-10.881-8.484-10.881-14.699c0-3.082,0.89-5.852,2.696-8.225
			c1.808-2.363,4.363-4.213,7.68-5.49c3.3-1.313,7.008-2.047,11.145-2.047c4.032,0,7.622,0.769,10.833,2.186
			c3.178,1.442,5.635,3.471,7.436,6.134c1.765,2.663,2.641,5.719,2.641,9.078h-13.466c0-2.252-0.684-4.03-2.078-5.271
			c-1.418-1.252-3.303-1.896-5.696-1.896c-2.403,0-4.289,0.532-5.691,1.609c-1.403,1.027-2.077,2.398-2.077,4.047
			c0,1.452,0.754,2.727,2.298,3.896c1.531,1.17,4.237,2.363,8.1,3.646c3.869,1.216,7.062,2.568,9.523,4.003
			c6.092,3.472,9.088,8.265,9.088,14.39c0,4.906-1.821,8.771-5.531,11.532c-3.707,2.827-8.765,4.217-15.19,4.217
			c-4.535,0-8.644-0.777-12.315-2.479c-3.675-1.605-6.471-3.821-8.31-6.671c-1.874-2.859-2.776-6.085-2.776-9.748h13.53
			c0,2.976,0.755,5.204,2.339,6.611c1.543,1.43,4.05,2.113,7.532,2.113c2.247,0,3.995-0.465,5.284-1.415
			C104.323,182.998,104.954,181.591,104.954,179.861z"/>
		<path fill="#333333" d="M104.954,108.299c0-2.002-0.687-3.476-2.091-4.615c-1.407-1.117-3.856-2.273-7.372-3.427
			c-3.494-1.135-6.368-2.332-8.589-3.392c-7.265-3.586-10.895-8.505-10.895-14.734c0-3.068,0.894-5.839,2.709-8.211
			c1.808-2.381,4.345-4.19,7.689-5.5c3.291-1.317,6.999-2.01,11.126-2.01c4.042,0,7.631,0.715,10.848,2.171
			c3.172,1.465,5.647,3.467,7.43,6.134c1.765,2.668,2.645,5.688,2.645,9.102h-13.452c0-2.306-0.702-4.057-2.096-5.303
			c-1.418-1.292-3.303-1.868-5.696-1.868c-2.39,0-4.289,0.5-5.7,1.577c-1.394,1.037-2.102,2.413-2.102,4.058
			c0,1.419,0.788,2.729,2.312,3.895c1.551,1.14,4.238,2.386,8.12,3.619c3.876,1.242,7.075,2.601,9.537,3.994
			c6.078,3.511,9.078,8.31,9.078,14.413c0,4.923-1.825,8.752-5.535,11.544c-3.681,2.788-8.757,4.218-15.202,4.218
			c-4.514,0-8.633-0.778-12.297-2.457c-3.69-1.622-6.478-3.815-8.317-6.702c-1.865-2.832-2.794-6.086-2.794-9.793h13.535
			c0,3.037,0.769,5.264,2.352,6.684c1.523,1.385,4.034,2.113,7.521,2.113c2.254,0,3.987-0.496,5.284-1.443
			C104.301,111.408,104.954,110.023,104.954,108.299z"/>
		<path fill="#ED6306" d="M181.704,187.85c-2.09,2.306-5.12,4.16-9.128,5.567c-4.005,1.397-8.391,2.117-13.179,2.117
			c-7.305,0-13.148-2.242-17.553-6.729c-4.376-4.504-6.742-10.748-7.046-18.736l-0.04-4.861c0-5.518,0.996-10.312,2.936-14.439
			c1.932-4.098,4.759-7.247,8.345-9.48c3.646-2.217,7.846-3.324,12.612-3.324c6.979,0,12.389,1.608,16.247,4.799
			c3.869,3.189,6.119,7.942,6.76,14.278h-12.994c-0.479-3.146-1.47-5.384-3.003-6.675c-1.543-1.367-3.724-2.011-6.559-2.011
			c-3.367,0-5.981,1.403-7.832,4.334c-1.84,2.864-2.783,6.956-2.818,12.295v3.352c0,5.62,0.964,9.828,2.863,12.585
			c1.925,2.805,4.919,4.204,9.025,4.204c3.511,0,6.111-0.751,7.845-2.332v-8.722h-9.374v-9.238h22.893V187.85z"/>
		<path fill="#333333" d="M179.87,68.216v36.035c0,4.048-0.855,7.568-2.591,10.544c-1.751,2.983-4.238,5.244-7.485,6.817
			c-3.239,1.572-7.096,2.351-11.516,2.351c-6.684,0-11.969-1.761-15.825-5.237c-3.857-3.439-5.803-8.22-5.872-14.278V68.216h13.309
			v36.513c0.147,6.055,2.958,9.021,8.389,9.021c2.732,0,4.811-0.764,6.214-2.229c1.425-1.532,2.109-3.973,2.109-7.403V68.216H179.87
			z"/>
	</g>
</g>
<rect fill="none" width="260" height="260"/>
</svg>
