<?xml version="1.0" encoding="utf-8"?>
<!-- Generator: Adobe Illustrator 16.0.0, SVG Export Plug-In . SVG Version: 6.00 Build 0)  -->
<!DOCTYPE svg PUBLIC "-//W3C//DTD SVG 1.1//EN" "http://www.w3.org/Graphics/SVG/1.1/DTD/svg11.dtd">
<svg version="1.1" id="Layer_1" xmlns="http://www.w3.org/2000/svg" xmlns:xlink="http://www.w3.org/1999/xlink" x="0px" y="0px"
	 width="16px" height="16px" viewBox="0 0 16 16" enable-background="new 0 0 16 16" xml:space="preserve">
<g>
	<g>
		<g>
			<polyline fill="none" points="13.78,5.979 13.771,4.607 7.949,1.305 2.18,4.694 2.189,5.979 			"/>
			<polyline fill="none" points="2.22,10.014 2.229,11.387 8.05,14.688 13.82,11.299 13.811,10.014 			"/>
			<path fill="#1BEDD4" d="M2.18,4.694l5.769-3.39l5.822,3.303l0.009,1.372h1.167l-0.013-1.719
				c-0.001-0.207-0.113-0.399-0.296-0.503L8.232,0.123C8.051,0.02,7.828,0.021,7.649,0.129l-6.352,3.73
				C1.119,3.966,1.008,4.157,1.01,4.366l0.011,1.613h1.168L2.18,4.694z"/>
			<path fill="#26B6A5" d="M13.82,11.299l-5.77,3.389l-5.821-3.301L2.22,10.014H1.053l0.012,1.717
				c0.002,0.209,0.115,0.401,0.296,0.505l6.405,3.635c0.091,0.05,0.19,0.074,0.289,0.074c0.102,0,0.204-0.026,0.295-0.079
				l6.352-3.732c0.179-0.104,0.288-0.297,0.287-0.508l-0.012-1.611h-1.167L13.82,11.299z"/>
		</g>
	</g>
	<g>
		<path fill="#ED6306" d="M6.43,11.122c0-0.124-0.043-0.217-0.131-0.288c-0.087-0.071-0.241-0.142-0.463-0.215
			c-0.218-0.074-0.398-0.146-0.538-0.214C4.842,10.18,4.616,9.873,4.616,9.483c0-0.193,0.056-0.367,0.169-0.516
			s0.273-0.265,0.481-0.345c0.207-0.082,0.439-0.128,0.699-0.128c0.253,0,0.478,0.048,0.679,0.137
			C6.843,8.723,6.998,8.85,7.11,9.017c0.111,0.167,0.166,0.358,0.166,0.569H6.432c0-0.142-0.043-0.253-0.13-0.331
			C6.212,9.177,6.094,9.137,5.944,9.137c-0.151,0-0.269,0.033-0.357,0.101c-0.088,0.064-0.13,0.15-0.13,0.254
			c0,0.091,0.047,0.171,0.144,0.244c0.096,0.073,0.266,0.148,0.508,0.229c0.243,0.076,0.443,0.161,0.597,0.251
			c0.382,0.218,0.57,0.519,0.57,0.902c0,0.308-0.114,0.55-0.347,0.723c-0.232,0.178-0.55,0.265-0.953,0.265
			c-0.284,0-0.542-0.049-0.772-0.155c-0.23-0.101-0.406-0.239-0.521-0.418c-0.118-0.18-0.174-0.382-0.174-0.611h0.849
			c0,0.187,0.047,0.326,0.146,0.414c0.097,0.09,0.254,0.133,0.472,0.133c0.141,0,0.25-0.029,0.332-0.089
			C6.39,11.318,6.43,11.23,6.43,11.122z"/>
		<path fill="#333333" d="M6.43,6.635c0-0.125-0.043-0.218-0.131-0.289C6.21,6.275,6.057,6.203,5.836,6.131
			C5.617,6.06,5.437,5.984,5.298,5.918C4.842,5.693,4.615,5.385,4.615,4.994c0-0.192,0.056-0.366,0.17-0.515
			C4.898,4.33,5.057,4.217,5.267,4.135c0.207-0.083,0.439-0.126,0.698-0.126c0.253,0,0.479,0.045,0.68,0.136
			C6.843,4.236,6.999,4.362,7.11,4.529C7.221,4.696,7.276,4.886,7.276,5.1H6.433c0-0.145-0.044-0.254-0.131-0.332
			C6.212,4.687,6.094,4.65,5.944,4.65S5.675,4.682,5.587,4.749C5.5,4.814,5.455,4.9,5.455,5.004c0,0.089,0.049,0.171,0.145,0.244
			c0.097,0.071,0.266,0.149,0.509,0.227c0.243,0.078,0.444,0.163,0.598,0.251c0.381,0.22,0.569,0.521,0.569,0.903
			c0,0.309-0.115,0.549-0.347,0.724C6.698,7.527,6.38,7.617,5.976,7.617c-0.283,0-0.542-0.049-0.771-0.154
			c-0.231-0.102-0.406-0.239-0.521-0.42C4.566,6.865,4.508,6.661,4.508,6.429h0.849c0,0.19,0.048,0.33,0.147,0.419
			C5.6,6.935,5.757,6.98,5.976,6.98c0.141,0,0.25-0.031,0.331-0.091C6.389,6.83,6.43,6.743,6.43,6.635z"/>
		<path fill="#ED6306" d="M11.242,11.623c-0.131,0.145-0.321,0.261-0.572,0.349c-0.251,0.088-0.526,0.133-0.826,0.133
			c-0.458,0-0.824-0.141-1.101-0.422C8.468,11.4,8.32,11.009,8.301,10.508l-0.002-0.305c0-0.346,0.062-0.646,0.184-0.905
			c0.121-0.257,0.298-0.454,0.523-0.595c0.229-0.139,0.492-0.208,0.791-0.208c0.438,0,0.777,0.101,1.019,0.301
			c0.243,0.2,0.384,0.498,0.424,0.896h-0.814c-0.03-0.197-0.092-0.338-0.188-0.419c-0.097-0.086-0.233-0.126-0.411-0.126
			c-0.211,0-0.375,0.088-0.491,0.271c-0.115,0.18-0.174,0.437-0.177,0.771v0.21c0,0.353,0.061,0.616,0.18,0.789
			c0.121,0.176,0.309,0.264,0.566,0.264c0.22,0,0.383-0.047,0.492-0.146v-0.547H9.807V10.18h1.435V11.623z"/>
		<path fill="#333333" d="M11.127,4.122v2.259c0,0.254-0.054,0.475-0.163,0.661c-0.11,0.188-0.266,0.329-0.469,0.428
			c-0.203,0.099-0.445,0.147-0.722,0.147c-0.419,0-0.75-0.11-0.992-0.328C8.539,7.073,8.417,6.773,8.413,6.394V4.122h0.834v2.289
			c0.009,0.38,0.186,0.565,0.526,0.565c0.171,0,0.302-0.048,0.39-0.14c0.089-0.096,0.132-0.249,0.132-0.464V4.122H11.127z"/>
	</g>
</g>
</svg>
