<?xml version="1.0" encoding="utf-8"?>
<!-- Generator: Adobe Illustrator 16.0.0, SVG Export Plug-In . SVG Version: 6.00 Build 0)  -->
<!DOCTYPE svg PUBLIC "-//W3C//DTD SVG 1.1//EN" "http://www.w3.org/Graphics/SVG/1.1/DTD/svg11.dtd">
<svg version="1.1" id="Layer_1" xmlns="http://www.w3.org/2000/svg" xmlns:xlink="http://www.w3.org/1999/xlink" x="0px" y="0px"
	 width="31.256px" height="31.257px" viewBox="0 0 31.256 31.257" enable-background="new 0 0 31.256 31.257" xml:space="preserve">
<g>
	<g>
		<g>
			<path fill="#888888" d="M12.758,19.557c-0.08-0.122-0.126-0.252-0.14-0.395s0.011-0.272,0.073-0.39
				c0.062-0.116,0.154-0.21,0.279-0.279c0.123-0.069,0.282-0.09,0.477-0.065c0.106,0.008,0.201,0.036,0.286,0.085
				c0.084,0.048,0.165,0.105,0.245,0.169c0.08,0.066,0.157,0.13,0.231,0.194c0.076,0.066,0.153,0.122,0.232,0.171
				c0.045,0.024,0.098,0.051,0.159,0.079c0.062,0.027,0.204,0.082,0.16,0.067c2.065,0.775,2.716,0.063,2.6-0.527
				c-0.117-0.591-3.339-1.651-3.701-1.854c-0.363-0.203-0.655-0.474-0.876-0.813c-0.204-0.315-0.276-0.631-0.219-0.94
				c0.058-0.312,0.196-0.6,0.418-0.862c0.221-0.264,0.495-0.486,0.822-0.669s0.654-0.297,0.981-0.348c0-0.097,0-0.204,0-0.321
				s0.007-0.232,0.021-0.345c0.014-0.115,0.04-0.225,0.079-0.329c0.04-0.105,0.1-0.198,0.18-0.28
				c0.088-0.096,0.19-0.157,0.306-0.187c0.114-0.028,0.226-0.031,0.331-0.008c0.106,0.025,0.205,0.071,0.299,0.143
				c0.093,0.068,0.166,0.157,0.219,0.271c0.08,0.179,0.119,0.36,0.119,0.548c0,0.186,0,0.372,0,0.56
				c0.248,0.057,0.505,0.125,0.771,0.205c0.265,0.082,0.494,0.202,0.689,0.366c0.124,0.096,0.219,0.207,0.285,0.332
				c0.066,0.126,0.095,0.244,0.087,0.358c-0.01,0.114-0.061,0.217-0.153,0.311c-0.093,0.093-0.236,0.156-0.431,0.188
				c-0.116,0.015-0.227,0.015-0.332,0c-0.106-0.016-0.211-0.042-0.312-0.08c-0.102-0.034-0.206-0.066-0.304-0.115
				c-1.133-0.563-2.487-0.507-2.661,0.31c-0.233,1.093,0.947,0.861,2.335,1.307c0.393,0.127,0.754,0.282,1.095,0.438
				c0.34,0.153,0.648,0.376,0.922,0.667c0.15,0.163,0.257,0.357,0.319,0.584c0.062,0.227,0.081,0.457,0.06,0.691
				c-0.022,0.235-0.085,0.461-0.186,0.675c-0.103,0.214-0.241,0.391-0.418,0.528c-0.266,0.21-0.549,0.376-0.85,0.498
				c-0.301,0.121-0.62,0.219-0.955,0.291c0,0.114,0.002,0.248,0.006,0.4c0.005,0.155-0.006,0.292-0.033,0.413
				c-0.025,0.13-0.093,0.242-0.198,0.335c-0.106,0.092-0.229,0.158-0.365,0.193c-0.137,0.037-0.276,0.039-0.418,0.007
				s-0.26-0.109-0.358-0.232c-0.133-0.161-0.197-0.352-0.192-0.569c0.005-0.22,0.007-0.421,0.007-0.607
				c-0.398-0.089-0.766-0.234-1.102-0.437S13.014,19.841,12.758,19.557z"/>
			<path fill="#888888" d="M15.49,22.654c-0.103,0-0.206-0.012-0.309-0.035c-0.253-0.058-0.468-0.194-0.638-0.408
				c-0.202-0.244-0.309-0.555-0.302-0.891c0.002-0.075,0.003-0.146,0.004-0.217c-0.303-0.099-0.589-0.229-0.856-0.389
				c-0.378-0.228-0.715-0.505-1.002-0.823c-0.172-0.252-0.245-0.46-0.267-0.682c-0.022-0.242,0.021-0.468,0.129-0.671
				c0.107-0.204,0.269-0.366,0.479-0.482c0.214-0.12,0.47-0.166,0.782-0.125c0.155,0.011,0.323,0.062,0.474,0.148
				c0.104,0.059,0.206,0.131,0.307,0.211l0.247,0.206c0.057,0.05,0.111,0.09,0.168,0.124l0.284,0.123
				c0.517,0.189,0.972,0.289,1.319,0.289c0.382,0,0.506-0.114,0.534-0.148c0.011-0.013,0.042-0.051,0.027-0.122
				c-0.211-0.239-2.055-0.952-2.66-1.187c-0.396-0.152-0.694-0.272-0.795-0.328c-0.433-0.243-0.786-0.571-1.05-0.978
				c-0.275-0.427-0.373-0.865-0.292-1.305c0.073-0.397,0.252-0.766,0.528-1.094c0.257-0.307,0.581-0.57,0.961-0.782
				c0.237-0.133,0.48-0.236,0.726-0.31c0.003-0.112,0.01-0.222,0.023-0.33c0.018-0.149,0.054-0.301,0.107-0.443
				c0.064-0.17,0.162-0.322,0.29-0.453c0.143-0.155,0.328-0.268,0.54-0.321c0.195-0.049,0.384-0.052,0.562-0.012
				c0.185,0.044,0.348,0.122,0.494,0.233c0.154,0.114,0.281,0.27,0.368,0.457c0.111,0.248,0.166,0.502,0.166,0.759v0.168
				c0.136,0.036,0.274,0.075,0.415,0.118c0.334,0.104,0.624,0.259,0.867,0.462c0.162,0.125,0.304,0.291,0.404,0.48
				c0.111,0.212,0.159,0.422,0.144,0.629c-0.019,0.233-0.12,0.448-0.295,0.625c-0.172,0.172-0.408,0.282-0.705,0.331
				c-0.201,0.026-0.335,0.023-0.482,0.002s-0.287-0.058-0.42-0.107c-0.134-0.044-0.245-0.083-0.351-0.136
				c-0.408-0.202-0.868-0.319-1.261-0.319c-0.104,0-0.631,0.014-0.688,0.286c-0.029,0.137-0.017,0.197-0.012,0.207
				c0.059,0.093,0.547,0.186,0.839,0.241c0.35,0.066,0.745,0.141,1.171,0.278c0.436,0.14,0.825,0.311,1.15,0.458
				c0.397,0.18,0.761,0.441,1.078,0.779c0.207,0.225,0.354,0.49,0.437,0.794c0.078,0.286,0.104,0.578,0.076,0.871
				c-0.027,0.291-0.105,0.574-0.231,0.842c-0.137,0.286-0.326,0.524-0.563,0.709c-0.298,0.236-0.625,0.428-0.968,0.566
				c-0.206,0.083-0.419,0.155-0.638,0.218c0.006,0.194-0.009,0.369-0.045,0.532c-0.045,0.226-0.169,0.438-0.357,0.603
				c-0.171,0.147-0.362,0.248-0.57,0.302C15.726,22.639,15.608,22.654,15.49,22.654z M13.385,18.924l-0.171,0.006
				c-0.051,0.028-0.069,0.056-0.081,0.077c-0.011,0.021-0.022,0.051-0.017,0.109c0.005,0.06,0.024,0.112,0.061,0.167
				c0.174,0.185,0.435,0.398,0.728,0.574c0.288,0.174,0.608,0.301,0.953,0.377l0.391,0.088v0.4c0,0.189-0.002,0.395-0.007,0.618
				c-0.002,0.098,0.021,0.172,0.078,0.24l0.17,0.073c0.03,0,0.06-0.004,0.09-0.012c0.065-0.017,0.118-0.046,0.169-0.09
				c0.056-0.145,0.062-0.242,0.06-0.354c-0.005-0.159-0.007-0.298-0.007-0.416V20.38l0.395-0.086
				c0.305-0.065,0.599-0.154,0.874-0.266c0.254-0.104,0.499-0.247,0.726-0.427c0.118-0.092,0.208-0.206,0.277-0.351
				c0.075-0.16,0.122-0.331,0.139-0.507c0.017-0.175,0.002-0.343-0.044-0.514c-0.041-0.148-0.108-0.271-0.204-0.376
				c-0.224-0.238-0.48-0.424-0.76-0.55c-0.301-0.137-0.658-0.293-1.044-0.418c-0.366-0.117-0.729-0.187-1.05-0.247
				c-0.639-0.121-1.19-0.226-1.486-0.671c-0.171-0.257-0.216-0.583-0.134-0.969c0.144-0.674,0.767-1.077,1.667-1.077
				c0.55,0,1.156,0.151,1.706,0.425c0.063,0.031,0.131,0.052,0.197,0.074c0.126,0.045,0.196,0.062,0.27,0.073
				c0.123,0.007,0.159,0.004,0.195-0.001c0.105-0.018,0.143-0.048,0.144-0.048c-0.058-0.143-0.106-0.198-0.174-0.25
				c-0.157-0.132-0.326-0.221-0.532-0.284c-0.25-0.075-0.496-0.141-0.733-0.195l-0.389-0.089V12.67c0-0.117-0.024-0.229-0.075-0.344
				c-0.014-0.028-0.032-0.052-0.06-0.072c-0.042-0.032-0.077-0.049-0.118-0.059l-0.005,0.006l-0.157,0.052
				c-0.032,0.032-0.055,0.067-0.07,0.108c-0.025,0.065-0.041,0.134-0.05,0.208c-0.013,0.098-0.018,0.192-0.018,0.288v0.75
				l-0.423,0.065c-0.271,0.042-0.545,0.14-0.814,0.29c-0.273,0.152-0.503,0.338-0.683,0.554c-0.167,0.197-0.269,0.403-0.311,0.632
				c-0.034,0.184,0.015,0.372,0.147,0.578c0.176,0.271,0.405,0.483,0.7,0.648c0.089,0.049,0.34,0.143,0.666,0.269
				c2.437,0.942,3.172,1.374,3.281,1.926c0.067,0.34-0.02,0.687-0.236,0.95c-0.192,0.234-0.576,0.514-1.307,0.514
				c-0.485,0-1.064-0.125-1.723-0.372l0.094-0.262l-0.112,0.253l-0.167-0.069c-0.081-0.036-0.144-0.067-0.197-0.097
				c-0.126-0.077-0.225-0.148-0.322-0.234l-0.188-0.157c-0.086-0.069-0.146-0.112-0.208-0.147L13.385,18.924z"/>
		</g>
	</g>
	<g>
		<path fill="#888888" d="M17.975,27.271c-0.395,0.021-0.844-0.006-1.29-0.014c-0.451-0.008-0.919-0.016-1.403-0.016
			c-2.683,0-9.81,0-9.81-6.987c0-2.859,0.95-6.516,3.011-8.646C8.102,9.79,7.652,7.013,7.972,6.052
			C8.229,5.28,8.984,4.456,10.33,4.456c0.451,0,0.89,0.088,1.354,0.181c0.378,0.075,0.806,0.161,1.112,0.161
			c0.111,0,0.158-0.013,0.158-0.013c1.107-0.369,2.253-0.581,3.139-0.581c0.584,0,1.096,0.092,1.531,0.273
			c0.098-0.029,0.208-0.063,0.298-0.091c0.631-0.191,1.347-0.408,2.098-0.408c0.531,0,1.016,0.111,1.44,0.331
			c1.13,0.587,1.994,1.815,0.881,6.571c2.749,2.717,3.908,8.625,3.274,11.237C24.369,27.256,20.219,27.271,17.975,27.271z
			 M12.63,11.917c0.187,0.807-0.145,1.669-0.87,2.134c-1.262,0.809-2.288,3.592-2.288,6.203c0,1.749,0.417,2.987,5.81,2.987
			c0.507,0,0.997,0.008,1.469,0.016c0.417,0.007,0.819,0.014,1.205,0.014c0.001,0,0.001,0,0.001,0c2.775,0,3.339-0.313,3.771-2.096
			c0.448-1.845-1.062-6.993-2.524-7.704c-0.865-0.42-1.309-1.396-1.057-2.324c0.263-0.965,0.481-2.011,0.606-2.833
			c-0.448,0.131-0.908,0.242-1.373,0.242c-0.562,0-0.991-0.157-1.31-0.352c-0.454,0.005-1.179,0.152-1.856,0.378
			c-0.645,0.214-1.446,0.252-2.17,0.17C12.208,9.775,12.44,11.014,12.63,11.917z"/>
	</g>
</g>
</svg>
