<?xml version="1.0" encoding="utf-8"?>
<!-- Generator: Adobe Illustrator 16.0.0, SVG Export Plug-In . SVG Version: 6.00 Build 0)  -->
<!DOCTYPE svg PUBLIC "-//W3C//DTD SVG 1.1//EN" "http://www.w3.org/Graphics/SVG/1.1/DTD/svg11.dtd">
<svg version="1.1" id="Layer_1" xmlns="http://www.w3.org/2000/svg" xmlns:xlink="http://www.w3.org/1999/xlink" x="0px" y="0px"
	 width="31.256px" height="31.257px" viewBox="0 0 31.256 31.257" enable-background="new 0 0 31.256 31.257" xml:space="preserve">
<g>
	<g>
		<g>
			<path fill="#ED6306" d="M12.758,19.557c-0.08-0.123-0.126-0.252-0.14-0.395s0.011-0.273,0.073-0.391
				c0.062-0.115,0.154-0.209,0.279-0.279c0.123-0.068,0.282-0.09,0.477-0.064c0.106,0.008,0.201,0.035,0.286,0.084
				c0.084,0.049,0.165,0.105,0.245,0.17c0.08,0.066,0.157,0.129,0.231,0.193c0.076,0.066,0.153,0.123,0.232,0.172
				c0.045,0.023,0.098,0.051,0.159,0.078c0.062,0.027,0.204,0.082,0.16,0.068c2.065,0.775,2.716,0.062,2.6-0.527
				c-0.117-0.592-3.339-1.652-3.701-1.855c-0.363-0.203-0.655-0.473-0.876-0.812c-0.204-0.316-0.276-0.631-0.219-0.941
				c0.058-0.312,0.196-0.6,0.418-0.861c0.221-0.264,0.495-0.486,0.822-0.67c0.327-0.182,0.654-0.297,0.981-0.348
				c0-0.096,0-0.203,0-0.32s0.007-0.232,0.021-0.346c0.014-0.115,0.04-0.225,0.079-0.328c0.04-0.105,0.1-0.199,0.18-0.281
				c0.088-0.096,0.19-0.156,0.306-0.186c0.114-0.029,0.226-0.031,0.331-0.008c0.106,0.025,0.205,0.07,0.299,0.143
				c0.093,0.068,0.166,0.156,0.219,0.27c0.08,0.18,0.119,0.361,0.119,0.549c0,0.186,0,0.371,0,0.559
				c0.248,0.057,0.505,0.125,0.771,0.205c0.265,0.082,0.494,0.203,0.689,0.367c0.124,0.096,0.219,0.207,0.285,0.332
				s0.095,0.244,0.087,0.357c-0.01,0.115-0.061,0.217-0.153,0.311s-0.236,0.156-0.431,0.189c-0.116,0.014-0.227,0.014-0.332,0
				c-0.106-0.016-0.211-0.043-0.312-0.08c-0.102-0.035-0.206-0.066-0.304-0.115c-1.133-0.564-2.487-0.508-2.661,0.309
				c-0.233,1.094,0.947,0.861,2.335,1.307c0.393,0.127,0.754,0.283,1.095,0.438c0.34,0.154,0.648,0.377,0.922,0.668
				c0.15,0.162,0.257,0.357,0.319,0.584c0.062,0.227,0.081,0.457,0.06,0.691c-0.022,0.234-0.085,0.461-0.186,0.674
				c-0.103,0.215-0.241,0.391-0.418,0.529c-0.266,0.209-0.549,0.375-0.85,0.498c-0.301,0.121-0.62,0.219-0.955,0.291
				c0,0.113,0.002,0.248,0.006,0.4c0.005,0.154-0.006,0.291-0.033,0.412c-0.025,0.131-0.093,0.242-0.198,0.336
				c-0.106,0.092-0.229,0.158-0.365,0.193c-0.137,0.037-0.276,0.039-0.418,0.006c-0.142-0.031-0.26-0.109-0.358-0.232
				c-0.133-0.16-0.197-0.352-0.192-0.568c0.005-0.221,0.007-0.422,0.007-0.607c-0.398-0.09-0.766-0.234-1.102-0.438
				C13.311,20.084,13.014,19.84,12.758,19.557z"/>
			<path fill="#ED6306" d="M15.49,22.654c-0.103,0-0.206-0.012-0.309-0.035c-0.253-0.059-0.468-0.195-0.638-0.408
				c-0.202-0.244-0.309-0.555-0.302-0.891c0.002-0.076,0.003-0.146,0.004-0.217c-0.303-0.1-0.589-0.229-0.856-0.389
				c-0.378-0.229-0.715-0.506-1.002-0.824c-0.172-0.252-0.245-0.459-0.267-0.682c-0.022-0.242,0.021-0.467,0.129-0.67
				c0.107-0.205,0.269-0.367,0.479-0.482c0.214-0.121,0.47-0.166,0.782-0.125c0.155,0.01,0.323,0.061,0.474,0.148
				c0.104,0.059,0.206,0.131,0.307,0.211l0.247,0.205c0.057,0.051,0.111,0.09,0.168,0.125l0.284,0.123
				c0.517,0.189,0.972,0.289,1.319,0.289c0.382,0,0.506-0.115,0.534-0.148c0.011-0.014,0.042-0.051,0.027-0.123
				c-0.211-0.238-2.055-0.951-2.66-1.186c-0.396-0.152-0.694-0.273-0.795-0.328c-0.433-0.244-0.786-0.572-1.05-0.979
				c-0.275-0.426-0.373-0.865-0.292-1.305c0.073-0.396,0.252-0.766,0.528-1.094c0.257-0.307,0.581-0.57,0.961-0.781
				c0.237-0.133,0.48-0.236,0.726-0.311c0.003-0.111,0.01-0.221,0.023-0.33c0.018-0.148,0.054-0.301,0.107-0.443
				c0.064-0.17,0.162-0.322,0.29-0.453c0.143-0.154,0.328-0.268,0.54-0.32c0.195-0.049,0.384-0.053,0.562-0.012
				c0.185,0.043,0.348,0.121,0.494,0.232c0.154,0.115,0.281,0.27,0.368,0.457c0.111,0.248,0.166,0.502,0.166,0.76v0.168
				c0.136,0.035,0.274,0.074,0.415,0.117c0.334,0.104,0.624,0.26,0.867,0.463c0.162,0.125,0.304,0.291,0.404,0.48
				c0.111,0.211,0.159,0.422,0.144,0.629c-0.019,0.232-0.12,0.447-0.295,0.625c-0.172,0.172-0.408,0.281-0.705,0.33
				c-0.201,0.027-0.335,0.023-0.482,0.002s-0.287-0.057-0.42-0.107c-0.134-0.043-0.245-0.082-0.351-0.135
				c-0.408-0.203-0.868-0.32-1.261-0.32c-0.104,0-0.631,0.014-0.688,0.287c-0.029,0.137-0.017,0.197-0.012,0.207
				c0.059,0.092,0.547,0.186,0.839,0.24c0.35,0.066,0.745,0.141,1.171,0.279c0.436,0.139,0.825,0.311,1.15,0.457
				c0.397,0.18,0.761,0.441,1.078,0.779c0.207,0.225,0.354,0.49,0.437,0.795c0.078,0.285,0.104,0.578,0.076,0.871
				c-0.027,0.291-0.105,0.574-0.231,0.842c-0.137,0.285-0.326,0.523-0.563,0.709c-0.298,0.236-0.625,0.428-0.968,0.566
				c-0.206,0.082-0.419,0.154-0.638,0.217c0.006,0.195-0.009,0.369-0.045,0.533c-0.045,0.225-0.169,0.438-0.357,0.602
				c-0.171,0.148-0.362,0.248-0.57,0.303C15.726,22.639,15.608,22.654,15.49,22.654z M13.385,18.924l-0.171,0.006
				c-0.051,0.027-0.069,0.055-0.081,0.076c-0.011,0.021-0.022,0.051-0.017,0.109c0.005,0.061,0.024,0.113,0.061,0.168
				c0.174,0.184,0.435,0.398,0.728,0.574c0.288,0.174,0.608,0.301,0.953,0.377l0.391,0.088v0.4c0,0.189-0.002,0.395-0.007,0.617
				c-0.002,0.098,0.021,0.172,0.078,0.24l0.17,0.074c0.03,0,0.06-0.004,0.09-0.012c0.065-0.018,0.118-0.047,0.169-0.09
				c0.056-0.145,0.062-0.242,0.06-0.354c-0.005-0.16-0.007-0.299-0.007-0.416v-0.404l0.395-0.086
				c0.305-0.064,0.599-0.154,0.874-0.266c0.254-0.104,0.499-0.246,0.726-0.426c0.118-0.092,0.208-0.207,0.277-0.352
				c0.075-0.16,0.122-0.33,0.139-0.506s0.002-0.344-0.044-0.514c-0.041-0.148-0.108-0.271-0.204-0.377
				c-0.224-0.238-0.48-0.424-0.76-0.549c-0.301-0.137-0.658-0.293-1.044-0.418c-0.366-0.117-0.729-0.188-1.05-0.248
				c-0.639-0.121-1.19-0.225-1.486-0.67c-0.171-0.258-0.216-0.584-0.134-0.969c0.144-0.674,0.767-1.078,1.667-1.078
				c0.55,0,1.156,0.152,1.706,0.426c0.063,0.031,0.131,0.051,0.197,0.074c0.126,0.045,0.196,0.062,0.27,0.072
				c0.123,0.008,0.159,0.004,0.195,0c0.105-0.018,0.143-0.049,0.144-0.049c-0.058-0.143-0.106-0.197-0.174-0.25
				c-0.157-0.131-0.326-0.221-0.532-0.283c-0.25-0.076-0.496-0.141-0.733-0.195l-0.389-0.09V12.67c0-0.117-0.024-0.23-0.075-0.344
				c-0.014-0.029-0.032-0.053-0.06-0.072c-0.042-0.033-0.077-0.049-0.118-0.059l-0.005,0.006l-0.157,0.051
				c-0.032,0.033-0.055,0.068-0.07,0.109c-0.025,0.064-0.041,0.133-0.05,0.207c-0.013,0.098-0.018,0.193-0.018,0.289v0.75
				l-0.423,0.064c-0.271,0.043-0.545,0.141-0.814,0.291c-0.273,0.152-0.503,0.338-0.683,0.553c-0.167,0.197-0.269,0.404-0.311,0.633
				c-0.034,0.184,0.015,0.371,0.147,0.578c0.176,0.271,0.405,0.482,0.7,0.648c0.089,0.049,0.34,0.143,0.666,0.268
				c2.437,0.943,3.172,1.375,3.281,1.926c0.067,0.34-0.02,0.688-0.236,0.951c-0.192,0.234-0.576,0.514-1.307,0.514
				c-0.485,0-1.064-0.125-1.723-0.373l0.094-0.262l-0.112,0.254l-0.167-0.07c-0.081-0.035-0.144-0.066-0.197-0.096
				c-0.126-0.078-0.225-0.148-0.322-0.234l-0.188-0.158c-0.086-0.068-0.146-0.111-0.208-0.146L13.385,18.924z"/>
		</g>
	</g>
	<g>
		<path fill="#ED6306" d="M17.975,27.27c-0.395,0.021-0.844-0.006-1.29-0.014c-0.451-0.008-0.919-0.016-1.403-0.016
			c-2.683,0-9.81,0-9.81-6.986c0-2.859,0.95-6.516,3.011-8.646C8.102,9.789,7.652,7.012,7.972,6.051
			c0.257-0.771,1.012-1.596,2.357-1.596c0.451,0,0.89,0.088,1.354,0.182c0.378,0.074,0.806,0.16,1.112,0.16
			c0.111,0,0.158-0.012,0.158-0.012c1.107-0.369,2.253-0.582,3.139-0.582c0.584,0,1.096,0.092,1.531,0.273
			c0.098-0.029,0.208-0.062,0.298-0.09c0.631-0.191,1.347-0.408,2.098-0.408c0.531,0,1.016,0.111,1.44,0.33
			c1.13,0.588,1.994,1.816,0.881,6.572c2.749,2.717,3.908,8.625,3.274,11.236C24.369,27.256,20.219,27.27,17.975,27.27z
			 M12.63,11.916c0.187,0.807-0.145,1.67-0.87,2.135c-1.262,0.809-2.288,3.592-2.288,6.203c0,1.748,0.417,2.986,5.81,2.986
			c0.507,0,0.997,0.008,1.469,0.016c0.417,0.008,0.819,0.014,1.205,0.014c0.001,0,0.001,0,0.001,0c2.775,0,3.339-0.312,3.771-2.096
			c0.448-1.844-1.062-6.992-2.524-7.703c-0.865-0.42-1.309-1.396-1.057-2.324c0.263-0.965,0.481-2.012,0.606-2.834
			c-0.448,0.131-0.908,0.242-1.373,0.242c-0.562,0-0.991-0.156-1.31-0.352c-0.454,0.006-1.179,0.152-1.856,0.379
			c-0.645,0.213-1.446,0.252-2.17,0.17C12.208,9.775,12.44,11.014,12.63,11.916z"/>
	</g>
</g>
</svg>
