<?xml version="1.0" encoding="utf-8"?>
<!-- Generator: Adobe Illustrator 16.0.0, SVG Export Plug-In . SVG Version: 6.00 Build 0)  -->
<!DOCTYPE svg PUBLIC "-//W3C//DTD SVG 1.1//EN" "http://www.w3.org/Graphics/SVG/1.1/DTD/svg11.dtd">
<svg version="1.1" id="Layer_1" xmlns="http://www.w3.org/2000/svg" xmlns:xlink="http://www.w3.org/1999/xlink" x="0px" y="0px"
	 width="64px" height="59px" viewBox="0 0 64 59" enable-background="new 0 0 64 59" xml:space="preserve">
<g>
	<path fill="#ED6306" d="M51.19,50.965H25.276c-0.646,0-1.167,0.521-1.167,1.168c0,0.643,0.522,1.166,1.167,1.166H51.19
		c0.645,0,1.167-0.523,1.167-1.166C52.357,51.486,51.835,50.965,51.19,50.965z"/>
	<path fill="#ED6306" d="M27.206,54.758H14.248c-0.645,0-1.167,0.523-1.167,1.168s0.523,1.166,1.167,1.166h12.957
		c0.644,0,1.167-0.521,1.167-1.166S27.85,54.758,27.206,54.758z"/>
	<path fill="#ED6306" d="M63.08,29.555c0-0.645-0.521-1.166-1.167-1.166h-7.444c-0.148-0.475-0.585-0.82-1.109-0.82
		c-0.645,0-1.166,0.521-1.166,1.166v18.25h-1.59c-0.153,0-0.399-0.002-0.469-0.338c0.002-0.049,0.009-0.098,0.009-0.15V34.15
		c0-1.133-0.752-2.82-2.821-2.82h-0.343v-4.594h0.772c1.051,0,1.698-0.355,1.927-1.059c0.227-0.695-0.11-1.434-0.924-2.025
		L31.957,11.428c-0.274-0.197-0.562-0.35-0.862-0.459v-0.656h7.386c0.645,0,1.168-0.521,1.168-1.166v-4.99
		c0-0.045-0.009-0.088-0.014-0.131c0.005-0.045,0.014-0.086,0.014-0.131c0-0.645-0.523-1.168-1.168-1.168h-7.444
		c-0.149-0.473-0.586-0.818-1.108-0.818c-0.645,0-1.167,0.521-1.167,1.166v7.922c-0.481,0.174-0.798,0.393-0.851,0.432
		L11.112,23.654c-0.85,0.617-1.164,1.287-0.936,1.988c0.227,0.695,0.932,1.096,1.938,1.096h0.762v4.592h-0.284
		c-1.134,0-2.821,0.752-2.821,2.822v12.346c0,0.018,0.001,0.033,0.001,0.049c-0.045,0.432-0.313,0.438-0.479,0.438H2.087
		c-0.645,0-1.167,0.521-1.167,1.166c0,0.646,0.523,1.168,1.167,1.168h7.207c0.69,0,1.231-0.189,1.649-0.482
		c0.417,0.293,0.958,0.482,1.648,0.482h34.729c0.499,0,1.105-0.146,1.628-0.484c0.419,0.293,0.961,0.484,1.653,0.484h7.207
		c0.645,0,1.167-0.523,1.167-1.168s-0.522-1.166-1.167-1.166h-3.283v-11.01h7.387c0.645,0,1.166-0.523,1.166-1.168v-4.988
		c0-0.047-0.008-0.088-0.014-0.133C63.072,29.643,63.08,29.6,63.08,29.555z M44.645,31.33h-4.019v-4.594h4.019V31.33z
		 M25.584,26.736v4.594h-4.02v-4.594H25.584z M27.918,26.736h4.02v4.594h-4.02V26.736z M34.271,26.736h4.02v4.594h-4.02V26.736z
		 M31.095,5.061h6.22v2.918h-6.22V5.061z M29.283,13.316c0.002-0.002,0.324-0.209,0.7-0.209c0.214,0,0.405,0.066,0.602,0.209
		l15.233,11.086h-31.77L29.283,13.316z M15.211,26.736h4.02v4.594h-4.02V26.736z M17.303,46.986h-1.818v-3.959
		c0-0.496,0.405-0.902,0.903-0.902s0.902,0.406,0.902,0.902v3.514C17.29,46.697,17.296,46.844,17.303,46.986z M26.062,46.986h-1.819
		v-3.959c0-0.496,0.405-0.902,0.903-0.902s0.903,0.406,0.903,0.902v3.514C26.049,46.697,26.055,46.844,26.062,46.986z M34.82,46.986
		h-1.818v-3.959c0-0.496,0.406-0.902,0.904-0.902s0.902,0.406,0.902,0.902v3.514C34.808,46.697,34.813,46.844,34.82,46.986z
		 M43.578,46.986h-1.816v-3.959c0-0.496,0.404-0.902,0.902-0.902c0.497,0,0.901,0.406,0.901,0.902v3.514
		C43.565,46.697,43.571,46.844,43.578,46.986z M47.321,46.986H46.46v-3.959c0-2.094-1.704-3.795-3.796-3.795
		c-2.094,0-3.796,1.701-3.796,3.795v3.514c0,0.156,0.005,0.303,0.013,0.445h-1.18v-3.959c0-2.094-1.702-3.795-3.796-3.795
		s-3.797,1.701-3.797,3.795v3.514c0,0.156,0.005,0.303,0.014,0.445h-1.181v-3.959c0-2.094-1.702-3.795-3.796-3.795
		c-2.093,0-3.796,1.701-3.796,3.795v3.514c0,0.156,0.005,0.303,0.013,0.445h-1.18v-3.959c0-2.094-1.702-3.795-3.795-3.795
		c-2.094,0-3.797,1.701-3.797,3.795v3.514c0,0.156,0.005,0.303,0.013,0.445h-0.012c-0.156,0-0.436-0.008-0.479-0.428
		c0.001-0.02,0.002-0.041,0.002-0.061v-5.246c0-0.035-0.007-0.066-0.01-0.1v-7c0-0.164,0-0.467,0.486-0.486h7.95v0.006l10.385-0.006
		c0.017,0,0.033,0,0.05,0H47.32c0.174,0,0.468,0,0.486,0.486v6.857c-0.017,0.078-0.025,0.158-0.025,0.242v5.246
		c0,0.061,0.003,0.125,0.008,0.188C47.757,46.828,47.651,46.971,47.321,46.986z M54.527,30.723h6.219v2.918h-6.219V30.723z"/>
</g>
</svg>
