<?xml version="1.0" encoding="utf-8"?>
<!-- Generator: Adobe Illustrator 16.0.0, SVG Export Plug-In . SVG Version: 6.00 Build 0)  -->
<!DOCTYPE svg PUBLIC "-//W3C//DTD SVG 1.1//EN" "http://www.w3.org/Graphics/SVG/1.1/DTD/svg11.dtd">
<svg version="1.1" id="Layer_1" xmlns="http://www.w3.org/2000/svg" xmlns:xlink="http://www.w3.org/1999/xlink" x="0px" y="0px"
	 width="31.256px" height="31.257px" viewBox="0 0 31.256 31.257" enable-background="new 0 0 31.256 31.257" xml:space="preserve">
<g>
	<g>
		<path fill="#ED6306" stroke="#ED6306" stroke-miterlimit="10" d="M24.251,16.375c-0.411,0-0.729,0.317-0.729,0.731v8.875H18.34
			v-8.933c0-0.383-0.319-0.718-0.704-0.718H13.89c-0.412,0-0.745,0.335-0.745,0.718v8.933H7.977v-8.543
			c0-0.386-0.318-0.706-0.73-0.706c-0.385,0-0.704,0.32-0.704,0.706v9.274c0,0.386,0.319,0.706,0.704,0.706h6.644
			c0.385,0,0.703-0.32,0.703-0.706v-8.932h2.312v8.932c0,0.386,0.319,0.706,0.731,0.706h6.615c0.386,0,0.704-0.32,0.704-0.706
			v-9.606C24.955,16.692,24.637,16.375,24.251,16.375L24.251,16.375z M24.251,16.375"/>
		<path fill="#ED6306" stroke="#ED6306" stroke-miterlimit="10" d="M28.224,15.832l-5.765-5.79V6.096c0-0.411-0.333-0.73-0.745-0.73
			c-0.386,0-0.705,0.319-0.705,0.73v2.499l-4.756-4.784c-0.146-0.147-0.319-0.227-0.492-0.227c-0.199,0-0.372,0.081-0.518,0.227
			L3.301,15.754c-0.287,0.286-0.305,0.745,0,1.009c0.265,0.306,0.724,0.286,1.01,0L15.762,5.339L27.188,16.87
			c0.119,0.119,0.292,0.187,0.518,0.187c0.199,0,0.372-0.067,0.519-0.187C28.49,16.604,28.509,16.121,28.224,15.832L28.224,15.832z
			 M28.224,15.832"/>
	</g>
</g>
</svg>
