<?xml version="1.0" encoding="utf-8"?>
<!-- Generator: Adobe Illustrator 16.0.0, SVG Export Plug-In . SVG Version: 6.00 Build 0)  -->
<!DOCTYPE svg PUBLIC "-//W3C//DTD SVG 1.1//EN" "http://www.w3.org/Graphics/SVG/1.1/DTD/svg11.dtd">
<svg version="1.1" id="Layer_1" xmlns="http://www.w3.org/2000/svg" xmlns:xlink="http://www.w3.org/1999/xlink" x="0px" y="0px"
	 width="31.256px" height="31.257px" viewBox="0 0 31.256 31.257" enable-background="new 0 0 31.256 31.257" xml:space="preserve">
<g>
	<g>
		<path fill="#333333" stroke="#333333" stroke-miterlimit="10" d="M24.125,16.502c-0.411,0-0.729,0.317-0.729,0.731v8.875h-5.182
			v-8.933c0-0.383-0.319-0.718-0.704-0.718h-3.746c-0.412,0-0.744,0.335-0.744,0.718v8.933H7.85v-8.543
			c0-0.386-0.318-0.706-0.73-0.706c-0.385,0-0.703,0.32-0.703,0.706v9.274c0,0.386,0.318,0.706,0.703,0.706h6.644
			c0.385,0,0.703-0.32,0.703-0.706v-8.932h2.312v8.932c0,0.386,0.318,0.706,0.73,0.706h6.615c0.386,0,0.704-0.32,0.704-0.706v-9.606
			C24.829,16.819,24.51,16.502,24.125,16.502L24.125,16.502z M24.125,16.502"/>
		<path fill="#333333" stroke="#333333" stroke-miterlimit="10" d="M28.097,15.959l-5.765-5.79V6.223c0-0.411-0.334-0.73-0.745-0.73
			c-0.386,0-0.704,0.319-0.704,0.73v2.499l-4.756-4.784c-0.146-0.147-0.319-0.227-0.492-0.227c-0.199,0-0.372,0.081-0.518,0.227
			L3.174,15.881c-0.287,0.286-0.305,0.745,0,1.009c0.266,0.306,0.724,0.286,1.01,0L15.635,5.466l11.426,11.531
			c0.118,0.119,0.292,0.187,0.518,0.187c0.199,0,0.372-0.067,0.519-0.187C28.363,16.731,28.382,16.248,28.097,15.959L28.097,15.959z
			 M28.097,15.959"/>
	</g>
</g>
</svg>
