<?xml version="1.0" encoding="utf-8"?>
<!-- Generator: Adobe Illustrator 16.0.0, SVG Export Plug-In . SVG Version: 6.00 Build 0)  -->
<!DOCTYPE svg PUBLIC "-//W3C//DTD SVG 1.1//EN" "http://www.w3.org/Graphics/SVG/1.1/DTD/svg11.dtd">
<svg version="1.1" id="Layer_1" xmlns="http://www.w3.org/2000/svg" xmlns:xlink="http://www.w3.org/1999/xlink" x="0px" y="0px"
	 width="31.256px" height="31.257px" viewBox="0 0 31.256 31.257" enable-background="new 0 0 31.256 31.257" xml:space="preserve">
<path fill="#ED6306" d="M23.84,24.655l-3.889-10.336v-8.42c0-1.105-0.896-2-2-2h-4.647c-1.104,0-2,0.895-2,2v8.422L7.416,24.655
	c-0.231,0.613-0.146,1.303,0.228,1.842s0.988,0.861,1.645,0.861h12.68c0.656,0,1.271-0.322,1.645-0.861S24.071,25.269,23.84,24.655z
	 M15.952,7.899v5.729h-0.647V7.899H15.952z M12.177,23.358l2.156-5.73h2.589l2.156,5.73H12.177z"/>
</svg>
