<?xml version="1.0" encoding="utf-8"?>
<!-- Generator: Adobe Illustrator 16.0.0, SVG Export Plug-In . SVG Version: 6.00 Build 0)  -->
<!DOCTYPE svg PUBLIC "-//W3C//DTD SVG 1.1//EN" "http://www.w3.org/Graphics/SVG/1.1/DTD/svg11.dtd">
<svg version="1.1" id="Layer_1" xmlns="http://www.w3.org/2000/svg" xmlns:xlink="http://www.w3.org/1999/xlink" x="0px" y="0px"
	 width="64px" height="59px" viewBox="0 0 64 59" enable-background="new 0 0 64 59" xml:space="preserve">
<g transform="translate(0,-952.36218)">
	<path fill="#ED6306" stroke="#ED6306" stroke-width="0.5" stroke-miterlimit="10" d="M23.329,956.426
		c-1.262,0-2.313,1.051-2.313,2.312v3.469c0,1.26,1.052,2.312,2.313,2.312h0.577v9.016c-3.798,8.175-7.603,16.347-11.418,24.515
		l-0.036,0.091c-0.735,1.322-1.264,2.618-1.264,3.957c0,1.466,0.483,2.843,1.518,3.794c1.032,0.95,2.501,1.408,4.264,1.408h30.062
		c1.762,0,3.229-0.458,4.264-1.408c1.032-0.951,1.517-2.328,1.517-3.794c0-1.339-0.528-2.635-1.265-3.957l-0.035-0.091
		l-11.418-24.515v-9.016h0.578c1.261,0,2.312-1.052,2.312-2.312v-3.469c0-1.262-1.051-2.312-2.312-2.312H23.329z M23.329,958.738
		h17.343v3.469h-1.734h-1.156v1.155c0,3.56,0,7.118,0,10.678c2.238,4.818,4.479,9.635,6.721,14.452
		c-2.718,2.516-4.142,3.198-6.721,3.198c-1.932,0-3.818-1.245-5.926-2.692s-4.439-3.089-7.371-3.089
		c-1.495,0-2.908,0.335-4.245,0.993c1.99-4.289,3.991-8.573,5.979-12.862c0-3.56,0-7.118,0-10.678v-1.155h-1.156h-1.733V958.738z
		 M33.156,973.787c-1.583,0-2.873,1.289-2.873,2.873c0,1.582,1.29,2.872,2.873,2.872s2.872-1.29,2.872-2.872
		C36.028,975.076,34.739,973.787,33.156,973.787z M33.156,976.063c0.333,0,0.596,0.263,0.596,0.597c0,0.332-0.263,0.596-0.596,0.596
		s-0.597-0.264-0.597-0.596C32.56,976.326,32.823,976.063,33.156,976.063z M27.953,978.989c-1.583,0-2.872,1.291-2.872,2.873
		c0,1.583,1.289,2.873,2.872,2.873s2.872-1.29,2.872-2.873C30.825,980.28,29.536,978.989,27.953,978.989z M27.953,981.266
		c0.333,0,0.597,0.263,0.597,0.596s-0.264,0.596-0.597,0.596s-0.596-0.263-0.596-0.596S27.62,981.266,27.953,981.266z
		 M36.625,983.615c-1.583,0-2.873,1.289-2.873,2.871c0,1.584,1.29,2.873,2.873,2.873c1.582,0,2.872-1.289,2.872-2.873
		C39.497,984.904,38.207,983.615,36.625,983.615z M36.625,985.891c0.333,0,0.596,0.264,0.596,0.596c0,0.334-0.263,0.597-0.596,0.597
		s-0.597-0.263-0.597-0.597C36.028,986.154,36.292,985.891,36.625,985.891z M24.484,988.222c2.033,0,3.951,1.23,6.053,2.674
		c2.101,1.443,4.383,3.106,7.244,3.106c2.879,0,5.046-0.967,7.75-3.323l3.92,8.437l0.019,0.037l0.019,0.036
		c0.667,1.184,1.012,2.192,1.012,2.908c0,1-0.264,1.64-0.76,2.096c-0.495,0.455-1.335,0.795-2.709,0.795H16.97
		c-1.375,0-2.215-0.34-2.711-0.795c-0.494-0.456-0.759-1.096-0.759-2.096c0-0.716,0.345-1.725,1.012-2.908l0.019-0.036l0.019-0.037
		l3.468-7.443C20.125,989.101,22.009,988.222,24.484,988.222z"/>
</g>
</svg>
