<?xml version="1.0" encoding="utf-8"?>
<!-- Generator: Adobe Illustrator 16.0.0, SVG Export Plug-In . SVG Version: 6.00 Build 0)  -->
<!DOCTYPE svg PUBLIC "-//W3C//DTD SVG 1.1//EN" "http://www.w3.org/Graphics/SVG/1.1/DTD/svg11.dtd">
<svg version="1.1" id="Layer_1" xmlns="http://www.w3.org/2000/svg" xmlns:xlink="http://www.w3.org/1999/xlink" x="0px" y="0px"
	 width="89.926px" height="81.707px" viewBox="0 0 89.926 81.707" enable-background="new 0 0 89.926 81.707" xml:space="preserve">
<g>
	<g>
		<g>
			<polyline fill="none" points="72.489,31.252 72.445,24.718 44.72,8.989 17.247,25.131 17.288,31.252 			"/>
			<polyline fill="none" points="17.435,50.464 17.479,57.004 45.202,72.723 72.678,56.585 72.635,50.464 			"/>
			<path fill="#1BEDD4" d="M17.247,25.131L44.72,8.989l27.725,15.729l0.044,6.534h5.557l-0.062-8.186
				c-0.005-0.988-0.536-1.903-1.409-2.395L46.067,3.362c-0.859-0.494-1.924-0.483-2.776,0.027L13.042,21.156
				c-0.85,0.506-1.375,1.418-1.367,2.412l0.051,7.684h5.562L17.247,25.131z"/>
			<path fill="#26B6A5" d="M72.678,56.585L45.202,72.723L17.479,57.004l-0.044-6.54H11.88l0.058,8.175
				c0.009,0.996,0.546,1.91,1.411,2.406l30.502,17.309c0.435,0.238,0.905,0.354,1.376,0.354c0.484,0,0.971-0.125,1.407-0.376
				l30.249-17.776c0.852-0.491,1.371-1.414,1.367-2.417l-0.057-7.673h-5.56L72.678,56.585z"/>
		</g>
	</g>
	<g>
		<path fill="#ED6306" d="M37.484,55.742c0-0.59-0.205-1.033-0.625-1.372c-0.417-0.34-1.149-0.674-2.205-1.021
			c-1.04-0.355-1.898-0.699-2.561-1.022c-2.17-1.073-3.25-2.534-3.25-4.39c0-0.92,0.266-1.747,0.806-2.456
			c0.54-0.706,1.303-1.258,2.292-1.639c0.986-0.392,2.093-0.612,3.328-0.612c1.205,0,2.276,0.229,3.235,0.652
			c0.949,0.431,1.683,1.037,2.22,1.832c0.527,0.795,0.789,1.708,0.789,2.711h-4.021c0-0.672-0.205-1.204-0.62-1.574
			c-0.424-0.374-0.987-0.566-1.701-0.566c-0.718,0-1.281,0.159-1.699,0.48c-0.419,0.307-0.621,0.716-0.621,1.208
			c0,0.434,0.225,0.814,0.687,1.164c0.456,0.349,1.265,0.705,2.418,1.088c1.155,0.363,2.108,0.767,2.844,1.196
			c1.819,1.036,2.714,2.467,2.714,4.296c0,1.465-0.544,2.619-1.652,3.443c-1.107,0.844-2.617,1.259-4.536,1.259
			c-1.354,0-2.582-0.231-3.677-0.739c-1.097-0.48-1.932-1.142-2.481-1.992c-0.56-0.854-0.829-1.817-0.829-2.911h4.04
			c0,0.888,0.226,1.554,0.698,1.974c0.462,0.427,1.209,0.631,2.25,0.631c0.671,0,1.193-0.139,1.578-0.423
			C37.296,56.679,37.484,56.258,37.484,55.742z"/>
		<path fill="#333333" d="M37.484,34.373c0-0.598-0.205-1.038-0.625-1.378c-0.42-0.333-1.151-0.679-2.201-1.023
			c-1.043-0.339-1.901-0.697-2.564-1.013c-2.17-1.071-3.253-2.54-3.253-4.4c0-0.916,0.267-1.743,0.81-2.452
			c0.54-0.711,1.297-1.251,2.295-1.643c0.983-0.394,2.09-0.6,3.322-0.6c1.208,0,2.279,0.213,3.239,0.648
			c0.947,0.438,1.687,1.036,2.219,1.832c0.527,0.797,0.79,1.699,0.79,2.718h-4.017c0-0.688-0.209-1.212-0.625-1.583
			c-0.424-0.386-0.987-0.558-1.701-0.558c-0.713,0-1.281,0.149-1.702,0.471c-0.417,0.31-0.627,0.721-0.627,1.211
			c0,0.424,0.235,0.814,0.69,1.163c0.463,0.341,1.266,0.712,2.425,1.081c1.158,0.371,2.112,0.777,2.848,1.193
			c1.815,1.047,2.71,2.48,2.71,4.303c0,1.47-0.544,2.613-1.653,3.447c-1.099,0.833-2.615,1.259-4.539,1.259
			c-1.348,0-2.578-0.232-3.671-0.733c-1.102-0.484-1.935-1.139-2.484-2.001c-0.557-0.846-0.834-1.817-0.834-2.924h4.042
			c0,0.907,0.23,1.572,0.702,1.996c0.455,0.414,1.205,0.631,2.246,0.631c0.673,0,1.191-0.148,1.578-0.431
			C37.289,35.302,37.484,34.888,37.484,34.373z"/>
		<path fill="#ED6306" d="M60.402,58.127c-0.624,0.688-1.528,1.242-2.726,1.662c-1.196,0.417-2.505,0.632-3.936,0.632
			c-2.181,0-3.926-0.669-5.241-2.009c-1.307-1.345-2.013-3.209-2.104-5.594l-0.012-1.452c0-1.648,0.297-3.08,0.876-4.312
			c0.577-1.223,1.421-2.164,2.492-2.831c1.088-0.662,2.343-0.993,3.766-0.993c2.084,0,3.7,0.48,4.852,1.433
			c1.155,0.952,1.826,2.372,2.019,4.264h-3.88c-0.144-0.94-0.439-1.608-0.897-1.994c-0.461-0.408-1.112-0.601-1.958-0.601
			c-1.005,0-1.786,0.419-2.339,1.294c-0.549,0.855-0.831,2.077-0.841,3.671v1.001c0,1.678,0.288,2.934,0.855,3.757
			c0.575,0.838,1.469,1.255,2.695,1.255c1.048,0,1.825-0.224,2.342-0.696v-2.604h-2.799v-2.759h6.836V58.127z"/>
		<path fill="#333333" d="M59.854,22.405v10.76c0,1.208-0.256,2.26-0.774,3.148c-0.522,0.891-1.265,1.566-2.235,2.036
			c-0.967,0.47-2.119,0.702-3.438,0.702c-1.996,0-3.575-0.525-4.726-1.563c-1.151-1.027-1.732-2.455-1.753-4.264V22.405h3.974
			v10.902c0.044,1.808,0.884,2.694,2.505,2.694c0.815,0,1.436-0.228,1.855-0.666c0.426-0.458,0.63-1.187,0.63-2.211v-10.72H59.854z"
			/>
	</g>
</g>
</svg>
