<?xml version="1.0" encoding="utf-8"?>
<!-- Generator: Adobe Illustrator 16.0.0, SVG Export Plug-In . SVG Version: 6.00 Build 0)  -->
<!DOCTYPE svg PUBLIC "-//W3C//DTD SVG 1.1//EN" "http://www.w3.org/Graphics/SVG/1.1/DTD/svg11.dtd">
<svg version="1.1" id="Layer_1" xmlns="http://www.w3.org/2000/svg" xmlns:xlink="http://www.w3.org/1999/xlink" x="0px" y="0px"
	 width="119.5px" height="81.707px" viewBox="0 0 119.5 81.707" enable-background="new 0 0 119.5 81.707" xml:space="preserve">
<g>
	<g>
		<polyline fill="none" points="85.012,32.208 84.967,26.329 60.026,12.178 35.301,26.704 35.342,32.208 		"/>
		<polyline fill="none" points="35.473,49.498 35.518,55.377 60.458,69.529 85.184,55.002 85.142,49.498 		"/>
		<path fill="#E6E6E6" d="M35.301,26.704l24.725-14.526l24.941,14.151l0.044,5.88h5l-0.055-7.361
			c-0.007-0.893-0.489-1.715-1.266-2.155L61.238,7.117c-0.777-0.441-1.729-0.434-2.5,0.019L31.523,23.124
			c-0.77,0.453-1.24,1.282-1.233,2.175l0.052,6.91h5L35.301,26.704z"/>
		<path fill="#E6E6E6" d="M85.184,55.002L60.458,69.529L35.518,55.377l-0.044-5.88h-5l0.056,7.361
			c0.007,0.893,0.489,1.714,1.266,2.155L59.247,74.59c0.383,0.217,0.809,0.326,1.234,0.326c0.438,0,0.876-0.115,1.267-0.345
			l27.214-15.989c0.77-0.452,1.24-1.281,1.233-2.174l-0.052-6.91h-5L85.184,55.002z"/>
	</g>
	<g>
		<path fill="#58595B" d="M16.782,43.09c0,0.93-0.335,1.663-1.004,2.198c-0.669,0.535-1.601,0.803-2.794,0.803
			c-1.099,0-2.07-0.207-2.916-0.62v-2.029c0.695,0.31,1.283,0.528,1.765,0.655c0.481,0.127,0.922,0.19,1.321,0.19
			c0.479,0,0.846-0.092,1.103-0.275c0.256-0.183,0.384-0.456,0.384-0.817c0-0.202-0.057-0.382-0.169-0.539
			c-0.113-0.157-0.278-0.309-0.497-0.455s-0.663-0.378-1.335-0.697c-0.63-0.296-1.102-0.58-1.416-0.853s-0.566-0.589-0.754-0.951
			c-0.188-0.361-0.281-0.784-0.281-1.268c0-0.911,0.309-1.627,0.926-2.148c0.618-0.521,1.472-0.782,2.561-0.782
			c0.536,0,1.047,0.063,1.533,0.19c0.485,0.126,0.994,0.305,1.524,0.535l-0.704,1.698c-0.55-0.225-1.004-0.383-1.363-0.472
			c-0.359-0.089-0.713-0.134-1.061-0.134c-0.413,0-0.73,0.096-0.951,0.289c-0.221,0.193-0.331,0.444-0.331,0.754
			c0,0.192,0.045,0.36,0.134,0.503c0.09,0.144,0.231,0.282,0.427,0.416c0.194,0.134,0.656,0.375,1.384,0.722
			c0.963,0.46,1.623,0.921,1.98,1.384C16.604,41.852,16.782,42.419,16.782,43.09z"/>
		<path fill="#58595B" d="M23.344,45.951H21.16v-8.482h-2.797v-1.818h7.777v1.818h-2.797V45.951z"/>
		<path fill="#58595B" d="M34.753,45.951l-0.747-2.452h-3.755l-0.747,2.452h-2.353l3.635-10.342h2.67l3.649,10.342H34.753z
			 M33.484,41.667c-0.69-2.222-1.079-3.478-1.166-3.769c-0.087-0.292-0.148-0.521-0.187-0.69c-0.155,0.601-0.599,2.087-1.331,4.459
			H33.484z"/>
		<path fill="#58595B" d="M41.308,41.999v3.952h-2.185v-10.3h3.001c1.399,0,2.436,0.255,3.107,0.765
			c0.671,0.509,1.007,1.283,1.007,2.321c0,0.605-0.166,1.145-0.5,1.617c-0.333,0.472-0.806,0.842-1.416,1.109
			c1.55,2.315,2.56,3.812,3.029,4.488h-2.423l-2.459-3.952H41.308z M41.308,40.223h0.704c0.69,0,1.2-0.115,1.528-0.345
			c0.329-0.23,0.493-0.592,0.493-1.085c0-0.488-0.168-0.836-0.503-1.042c-0.336-0.207-0.856-0.31-1.561-0.31h-0.662V40.223z"/>
		<path fill="#58595B" d="M53.343,45.951h-2.184v-8.482h-2.797v-1.818h7.777v1.818h-2.797V45.951z"/>
		<path fill="#58595B" d="M66.83,35.651v6.665c0,0.761-0.17,1.428-0.511,2.001c-0.341,0.573-0.833,1.012-1.476,1.317
			c-0.644,0.305-1.405,0.458-2.283,0.458c-1.324,0-2.353-0.339-3.086-1.018c-0.732-0.679-1.099-1.607-1.099-2.787v-6.636h2.177
			v6.305c0,0.794,0.16,1.376,0.479,1.747c0.319,0.371,0.848,0.557,1.585,0.557c0.714,0,1.231-0.187,1.554-0.56
			c0.321-0.373,0.482-0.959,0.482-1.758v-6.291H66.83z"/>
		<path fill="#58595B" d="M77.188,38.863c0,1.108-0.346,1.957-1.039,2.543c-0.692,0.587-1.678,0.88-2.955,0.88h-0.937v3.664h-2.185
			v-10.3h3.29c1.249,0,2.199,0.269,2.85,0.807C76.863,36.996,77.188,37.797,77.188,38.863z M72.258,40.498h0.718
			c0.672,0,1.175-0.133,1.508-0.398c0.334-0.265,0.5-0.651,0.5-1.159c0-0.512-0.14-0.89-0.419-1.134s-0.718-0.366-1.313-0.366
			h-0.993V40.498z"/>
		<path fill="#58595B" d="M85.935,43.09c0,0.93-0.335,1.663-1.004,2.198c-0.669,0.535-1.601,0.803-2.794,0.803
			c-1.099,0-2.07-0.207-2.916-0.62v-2.029c0.695,0.31,1.283,0.528,1.765,0.655c0.481,0.127,0.922,0.19,1.321,0.19
			c0.479,0,0.846-0.092,1.103-0.275c0.256-0.183,0.384-0.456,0.384-0.817c0-0.202-0.057-0.382-0.169-0.539
			c-0.113-0.157-0.278-0.309-0.497-0.455s-0.663-0.378-1.335-0.697c-0.63-0.296-1.102-0.58-1.416-0.853s-0.566-0.589-0.754-0.951
			c-0.188-0.361-0.281-0.784-0.281-1.268c0-0.911,0.309-1.627,0.926-2.148c0.618-0.521,1.472-0.782,2.561-0.782
			c0.536,0,1.047,0.063,1.533,0.19c0.485,0.126,0.994,0.305,1.524,0.535l-0.704,1.698c-0.55-0.225-1.004-0.383-1.363-0.472
			c-0.359-0.089-0.713-0.134-1.061-0.134c-0.413,0-0.73,0.096-0.951,0.289c-0.221,0.193-0.331,0.444-0.331,0.754
			c0,0.192,0.045,0.36,0.134,0.503c0.09,0.144,0.231,0.282,0.427,0.416c0.194,0.134,0.656,0.375,1.384,0.722
			c0.963,0.46,1.623,0.921,1.98,1.384C85.756,41.852,85.935,42.419,85.935,43.09z"/>
		<path fill="#58595B" d="M88.051,44.943c0-0.395,0.105-0.693,0.316-0.895c0.212-0.202,0.52-0.303,0.923-0.303
			c0.391,0,0.692,0.104,0.905,0.31c0.214,0.207,0.321,0.502,0.321,0.888c0,0.371-0.108,0.664-0.324,0.877
			c-0.216,0.214-0.517,0.321-0.902,0.321c-0.395,0-0.699-0.105-0.915-0.313C88.158,45.619,88.051,45.324,88.051,44.943z"/>
		<path fill="#58595B" d="M99.206,43.295c0,0.859-0.316,1.541-0.947,2.043c-0.632,0.502-1.472,0.754-2.52,0.754
			c-1.258,0-2.224-0.139-2.895-0.416v-0.718c0.741,0.314,1.688,0.472,2.839,0.472c0.845,0,1.516-0.193,2.011-0.581
			c0.496-0.388,0.743-0.896,0.743-1.525c0-0.39-0.082-0.712-0.246-0.969c-0.164-0.256-0.433-0.489-0.803-0.701
			c-0.371-0.211-0.916-0.439-1.635-0.684c-1.052-0.361-1.779-0.752-2.181-1.173s-0.603-0.98-0.603-1.68
			c0-0.771,0.302-1.398,0.905-1.885c0.604-0.486,1.38-0.729,2.329-0.729c0.967,0,1.876,0.183,2.726,0.549l-0.26,0.62
			c-0.855-0.357-1.673-0.535-2.452-0.535c-0.761,0-1.366,0.176-1.817,0.528c-0.451,0.352-0.677,0.831-0.677,1.437
			c0,0.38,0.069,0.693,0.208,0.937s0.365,0.464,0.68,0.659s0.855,0.429,1.62,0.701c0.804,0.277,1.407,0.546,1.811,0.807
			c0.404,0.26,0.699,0.556,0.885,0.888C99.113,42.425,99.206,42.825,99.206,43.295z"/>
		<path fill="#58595B" d="M106.155,40.758h3.797v4.699c-0.996,0.423-2.116,0.634-3.36,0.634c-1.625,0-2.871-0.459-3.737-1.377
			c-0.866-0.918-1.3-2.218-1.3-3.899c0-1.047,0.215-1.976,0.645-2.786c0.43-0.811,1.045-1.436,1.846-1.878
			c0.801-0.441,1.72-0.662,2.758-0.662c1.123,0,2.13,0.207,3.022,0.62l-0.289,0.648c-0.892-0.413-1.817-0.62-2.775-0.62
			c-1.357,0-2.434,0.419-3.23,1.257c-0.796,0.838-1.193,1.969-1.193,3.392c0,1.55,0.378,2.716,1.134,3.498
			c0.756,0.782,1.867,1.173,3.332,1.173c0.949,0,1.755-0.134,2.417-0.401v-3.621h-3.064V40.758z"/>
	</g>
</g>
</svg>
