<?xml version="1.0" encoding="utf-8"?>
<!-- Generator: Adobe Illustrator 16.0.0, SVG Export Plug-In . SVG Version: 6.00 Build 0)  -->
<!DOCTYPE svg PUBLIC "-//W3C//DTD SVG 1.1//EN" "http://www.w3.org/Graphics/SVG/1.1/DTD/svg11.dtd">
<svg version="1.1" id="Layer_1" xmlns="http://www.w3.org/2000/svg" xmlns:xlink="http://www.w3.org/1999/xlink" x="0px" y="0px"
	 width="119.5px" height="81.707px" viewBox="0 0 119.5 81.707" enable-background="new 0 0 119.5 81.707" xml:space="preserve">
<g>
	<g>
		<polyline fill="none" points="85.012,32.208 84.967,26.329 60.026,12.178 35.301,26.704 35.342,32.208 		"/>
		<polyline fill="none" points="35.473,49.498 35.518,55.377 60.458,69.529 85.184,55.002 85.142,49.498 		"/>
		<path fill="#1BEDD4" d="M35.301,26.704l24.725-14.526l24.941,14.151l0.044,5.88h5l-0.055-7.361
			c-0.007-0.893-0.489-1.715-1.266-2.155L61.238,7.117c-0.777-0.441-1.729-0.434-2.5,0.019L31.523,23.124
			c-0.77,0.453-1.24,1.282-1.233,2.175l0.052,6.91h5L35.301,26.704z"/>
		<path fill="#26B6A5" d="M85.184,55.002L60.458,69.529L35.518,55.377l-0.044-5.88h-5l0.056,7.361
			c0.007,0.893,0.489,1.714,1.266,2.155L59.247,74.59c0.383,0.217,0.809,0.326,1.234,0.326c0.438,0,0.876-0.115,1.267-0.345
			l27.214-15.989c0.77-0.452,1.24-1.281,1.233-2.174l-0.052-6.91h-5L85.184,55.002z"/>
	</g>
</g>
<g>
	<path fill="#333333" d="M14.507,42.684c0-0.366-0.129-0.652-0.389-0.856c-0.26-0.205-0.715-0.417-1.367-0.635
		s-1.185-0.431-1.599-0.635c-1.347-0.662-2.02-1.571-2.02-2.727c0-0.576,0.167-1.084,0.503-1.524c0.335-0.44,0.81-0.783,1.424-1.028
		s1.304-0.368,2.07-0.368c0.747,0,1.417,0.133,2.009,0.399c0.593,0.267,1.053,0.646,1.381,1.139
		c0.328,0.493,0.493,1.056,0.493,1.688h-2.499c0-0.424-0.13-0.752-0.389-0.985c-0.259-0.233-0.61-0.35-1.053-0.35
		c-0.447,0-0.801,0.099-1.06,0.296c-0.26,0.197-0.389,0.448-0.389,0.753c0,0.267,0.143,0.508,0.428,0.725
		c0.286,0.216,0.788,0.44,1.506,0.671c0.718,0.231,1.309,0.479,1.771,0.746c1.123,0.647,1.685,1.54,1.685,2.677
		c0,0.909-0.343,1.623-1.028,2.142c-0.685,0.519-1.625,0.778-2.819,0.778c-0.842,0-1.605-0.151-2.288-0.453
		c-0.683-0.302-1.197-0.716-1.542-1.242c-0.345-0.526-0.518-1.131-0.518-1.816h2.513c0,0.557,0.144,0.967,0.432,1.231
		c0.288,0.264,0.755,0.396,1.403,0.396c0.414,0,0.741-0.089,0.981-0.268C14.387,43.258,14.507,43.007,14.507,42.684z"/>
	<path fill="#333333" d="M27.188,36.987h-3.12v8.459h-2.505v-8.459H18.5v-1.935h8.688V36.987z"/>
	<path fill="#333333" d="M34.022,43.505h-3.434l-0.6,1.941h-2.677l3.812-10.394h2.355l3.841,10.394h-2.691L34.022,43.505z
		 M31.188,41.57h2.234l-1.121-3.605L31.188,41.57z"/>
	<path fill="#333333" d="M42.669,41.77h-1.356v3.676h-2.506V35.053h4.09c1.232,0,2.196,0.273,2.891,0.82
		c0.695,0.546,1.042,1.319,1.042,2.317c0,0.723-0.146,1.322-0.439,1.797c-0.292,0.476-0.75,0.86-1.374,1.155l2.17,4.196v0.107
		h-2.684L42.669,41.77z M41.313,39.843h1.584c0.476,0,0.834-0.125,1.074-0.376s0.361-0.6,0.361-1.048c0-0.448-0.122-0.8-0.364-1.055
		c-0.243-0.255-0.6-0.383-1.071-0.383h-1.584V39.843z"/>
	<path fill="#333333" d="M56.878,36.987h-3.12v8.459h-2.505v-8.459H48.19v-1.935h8.688V36.987z"/>
	<path fill="#333333" d="M66.817,35.053v6.803c0,0.771-0.164,1.438-0.492,2.002c-0.329,0.564-0.8,0.994-1.414,1.289
		s-1.34,0.442-2.177,0.442c-1.266,0-2.263-0.328-2.991-0.985c-0.729-0.657-1.1-1.556-1.114-2.698v-6.853h2.52v6.903
		c0.028,1.138,0.557,1.706,1.584,1.706c0.519,0,0.911-0.143,1.178-0.428s0.4-0.75,0.4-1.392v-6.789H66.817z"/>
	<path fill="#333333" d="M71.618,41.92v3.526h-2.506V35.053h4.147c0.795,0,1.498,0.146,2.109,0.439
		c0.611,0.293,1.085,0.709,1.42,1.25s0.503,1.153,0.503,1.838c0,1.014-0.363,1.824-1.089,2.431c-0.726,0.607-1.721,0.91-2.987,0.91
		H71.618z M71.618,39.985h1.642c0.485,0,0.855-0.121,1.11-0.364c0.255-0.243,0.382-0.585,0.382-1.028
		c0-0.485-0.131-0.873-0.393-1.164c-0.262-0.29-0.619-0.438-1.071-0.442h-1.67V39.985z"/>
	<path fill="#333333" d="M84.719,42.684c0-0.366-0.129-0.652-0.389-0.856c-0.26-0.205-0.715-0.417-1.367-0.635
		s-1.185-0.431-1.599-0.635c-1.347-0.662-2.02-1.571-2.02-2.727c0-0.576,0.167-1.084,0.503-1.524c0.335-0.44,0.81-0.783,1.424-1.028
		s1.304-0.368,2.07-0.368c0.747,0,1.417,0.133,2.009,0.399c0.593,0.267,1.053,0.646,1.381,1.139
		c0.328,0.493,0.493,1.056,0.493,1.688h-2.499c0-0.424-0.13-0.752-0.389-0.985c-0.259-0.233-0.61-0.35-1.053-0.35
		c-0.447,0-0.801,0.099-1.06,0.296c-0.26,0.197-0.389,0.448-0.389,0.753c0,0.267,0.143,0.508,0.428,0.725
		c0.286,0.216,0.788,0.44,1.506,0.671c0.718,0.231,1.309,0.479,1.771,0.746c1.123,0.647,1.685,1.54,1.685,2.677
		c0,0.909-0.343,1.623-1.028,2.142c-0.685,0.519-1.625,0.778-2.819,0.778c-0.842,0-1.605-0.151-2.288-0.453
		c-0.683-0.302-1.197-0.716-1.542-1.242c-0.345-0.526-0.518-1.131-0.518-1.816h2.513c0,0.557,0.144,0.967,0.432,1.231
		c0.288,0.264,0.755,0.396,1.403,0.396c0.414,0,0.741-0.089,0.981-0.268C84.599,43.258,84.719,43.007,84.719,42.684z"/>
	<path fill="#ED6306" d="M90.618,43.112c0.38,0,0.697,0.113,0.949,0.339s0.378,0.515,0.378,0.867c0,0.353-0.126,0.642-0.378,0.867
		c-0.252,0.226-0.569,0.339-0.949,0.339c-0.386,0-0.703-0.114-0.953-0.343s-0.375-0.516-0.375-0.864
		c0-0.347,0.125-0.635,0.375-0.864S90.232,43.112,90.618,43.112z"/>
	<path fill="#ED6306" d="M99.751,42.684c0-0.366-0.129-0.652-0.389-0.856c-0.26-0.205-0.715-0.417-1.367-0.635
		s-1.185-0.431-1.599-0.635c-1.347-0.662-2.02-1.571-2.02-2.727c0-0.576,0.167-1.084,0.503-1.524c0.335-0.44,0.81-0.783,1.424-1.028
		s1.304-0.368,2.07-0.368c0.747,0,1.417,0.133,2.009,0.399c0.593,0.267,1.053,0.646,1.381,1.139
		c0.328,0.493,0.493,1.056,0.493,1.688h-2.499c0-0.424-0.13-0.752-0.389-0.985c-0.259-0.233-0.61-0.35-1.053-0.35
		c-0.447,0-0.801,0.099-1.06,0.296c-0.26,0.197-0.389,0.448-0.389,0.753c0,0.267,0.143,0.508,0.428,0.725
		c0.286,0.216,0.788,0.44,1.506,0.671c0.718,0.231,1.309,0.479,1.771,0.746c1.123,0.647,1.685,1.54,1.685,2.677
		c0,0.909-0.343,1.623-1.028,2.142c-0.685,0.519-1.625,0.778-2.819,0.778c-0.842,0-1.605-0.151-2.288-0.453
		c-0.683-0.302-1.197-0.716-1.542-1.242c-0.345-0.526-0.518-1.131-0.518-1.816h2.513c0,0.557,0.144,0.967,0.432,1.231
		c0.288,0.264,0.755,0.396,1.403,0.396c0.414,0,0.741-0.089,0.981-0.268C99.631,43.258,99.751,43.007,99.751,42.684z"/>
	<path fill="#ED6306" d="M112.781,44.162c-0.385,0.428-0.949,0.773-1.691,1.035c-0.743,0.262-1.556,0.393-2.441,0.393
		c-1.361,0-2.449-0.416-3.262-1.249c-0.814-0.833-1.25-1.992-1.307-3.477l-0.007-0.899c0-1.023,0.181-1.917,0.542-2.68
		c0.361-0.764,0.879-1.352,1.553-1.763c0.673-0.412,1.453-0.618,2.337-0.618c1.294,0,2.3,0.296,3.016,0.889
		c0.716,0.593,1.134,1.477,1.253,2.652h-2.413c-0.085-0.581-0.271-0.994-0.557-1.242s-0.69-0.372-1.213-0.372
		c-0.628,0-1.114,0.267-1.456,0.8c-0.343,0.533-0.517,1.294-0.521,2.284v0.628c0,1.038,0.177,1.817,0.532,2.338
		c0.354,0.521,0.913,0.782,1.674,0.782c0.652,0,1.137-0.145,1.456-0.436v-1.613h-1.742v-1.72h4.247V44.162z"/>
</g>
</svg>
